<svg xmlns="http://www.w3.org/2000/svg" viewBox="0 0 796.23 796.23"><defs><style>.cls-1{fill:#333;}.cls-2{font-size:94px;letter-spacing:0.05em;}.cls-12,.cls-13,.cls-14,.cls-2,.cls-3{fill:#fcfcfc;}.cls-12,.cls-2{font-family:SuperSmashBros, "Super Smash Bros.";}.cls-3{font-size:154.82px;font-family:LifeCraft;}.cls-4{letter-spacing:0em;}.cls-5{letter-spacing:-0.07em;}.cls-6{letter-spacing:0.03em;}.cls-7{letter-spacing:-0.02em;}.cls-8{letter-spacing:-0.04em;}.cls-9{letter-spacing:-0.02em;}.cls-10{letter-spacing:-0.04em;}.cls-11{letter-spacing:0.03em;}.cls-12{font-size:109px;letter-spacing:0.05em;}.cls-13{font-size:31.49px;font-family:SquadaOne-Regular, Squada One;letter-spacing:0.54em;}</style></defs><title>Super Warcraft Bros Logo</title><g id="Layer_2" data-name="Layer 2"><g id="Layer_1-2" data-name="Layer 1"><rect class="cls-1" width="796.23" height="796.23"/><text class="cls-2" transform="translate(255.42 298.79)">SUPER</text><text class="cls-3" transform="translate(105.94 429.44)"><tspan class="cls-4">W</tspan><tspan class="cls-5" x="103.89" y="0">A</tspan><tspan class="cls-6" x="170.77" y="0">R</tspan><tspan class="cls-7" x="251.27" y="0">C</tspan><tspan x="301.28" y="0">R</tspan><tspan class="cls-8" x="377.76" y="0">A</tspan><tspan class="cls-9" x="448.67" y="0">F</tspan><tspan class="cls-10" x="508.74" y="0">T</tspan><tspan class="cls-11" x="566.79" y="0"> </tspan></text><text class="cls-12" transform="translate(266.5 525.35)">BROS</text><text class="cls-13" transform="translate(273.45 593.95)">DREADMIST</text><path class="cls-14" d="M403.64,541.34c116.37,0,211.16,19.18,215.44,43.16a9.64,9.64,0,0,0,.21-1.69C619.29,558,522.74,538,403.64,538S188,558,188,582.81a9.63,9.63,0,0,0,.2,1.69C192.49,560.52,287.27,541.34,403.64,541.34Z"/></g></g></svg>