<svg id="Layer_1" data-name="Layer 1" xmlns="http://www.w3.org/2000/svg" xmlns:xlink="http://www.w3.org/1999/xlink" viewBox="0 0 1920 1080"><defs><style>.cls-1{fill:url(#linear-gradient);}.cls-2{font-size:43.31px;font-family:SquadaOne-Regular, Squada One;letter-spacing:0.6em;}.cls-2,.cls-3{fill:#788282;}.cls-4{fill:#2a2a2a;}.cls-5{fill:#fcfcfc;}.cls-6{fill:url(#linear-gradient-2);}.cls-7{fill:url(#linear-gradient-3);}.cls-8{fill:url(#linear-gradient-4);}.cls-9{fill:url(#linear-gradient-5);}.cls-10{fill:url(#linear-gradient-6);}.cls-11{fill:url(#linear-gradient-7);}.cls-12{fill:url(#linear-gradient-8);}.cls-13{fill:url(#linear-gradient-9);}.cls-14{fill:url(#linear-gradient-10);}.cls-15{fill:#fff;}</style><linearGradient id="linear-gradient" x1="321.71" y1="641.77" x2="346.3" y2="415.55" gradientUnits="userSpaceOnUse"><stop offset="0" stop-color="#623aa2"/><stop offset="1" stop-color="#f97794"/></linearGradient><linearGradient id="linear-gradient-2" x1="431.25" y1="589.05" x2="428.33" y2="573.86" gradientUnits="userSpaceOnUse"><stop offset="0" stop-color="#f8d800"/><stop offset="0.98" stop-color="#fdeb71"/></linearGradient><linearGradient id="linear-gradient-3" x1="362" y1="582.36" x2="388.3" y2="558.4" gradientUnits="userSpaceOnUse"><stop offset="0" stop-color="#3cd500"/><stop offset="0.98" stop-color="#fff720"/></linearGradient><linearGradient id="linear-gradient-4" x1="386.09" y1="505.31" x2="371.5" y2="553.24" gradientUnits="userSpaceOnUse"><stop offset="0" stop-color="#0396ff"/><stop offset="0.98" stop-color="#abdcff"/></linearGradient><linearGradient id="linear-gradient-5" x1="438.35" y1="495.44" x2="417.89" y2="562.65" gradientUnits="userSpaceOnUse"><stop offset="0" stop-color="#ea5455"/><stop offset="0.98" stop-color="#feb692"/></linearGradient><linearGradient id="linear-gradient-6" x1="104.18" y1="597.81" x2="86.65" y2="283.99" gradientUnits="userSpaceOnUse"><stop offset="0" stop-color="#fcff00"/><stop offset="0.98" stop-color="#ffa8a8"/></linearGradient><linearGradient id="linear-gradient-7" x1="238.7" y1="590.3" x2="221.17" y2="276.48" xlink:href="#linear-gradient-6"/><linearGradient id="linear-gradient-8" x1="364.73" y1="583.26" x2="347.2" y2="269.43" xlink:href="#linear-gradient-6"/><linearGradient id="linear-gradient-9" x1="436.77" y1="579.23" x2="419.24" y2="265.41" xlink:href="#linear-gradient-6"/><linearGradient id="linear-gradient-10" x1="597.7" y1="570.24" x2="580.17" y2="256.42" xlink:href="#linear-gradient-6"/><symbol id="SWB_Logo" data-name="SWB Logo" viewBox="0 0 734.56 758.05"><path class="cls-1" d="M619.55,292.07l-.46,14.75c-1.63,16.51-7.57,45.22-28.11,77.57a230.18,230.18,0,0,0,4.34-117.22C565.25,132.68,416.7,26.36,228.33,4.25,205.87.4,192.6,0,192.6,0L194,1.2c78.65,66.86,87.9,137,75.23,186.86a140.77,140.77,0,0,1-19.91,44.79,135.1,135.1,0,0,0,6.05-42.12c-.59-20.18-7.12-42.53-29.87-54.64,7,26-1.5,47.48-18.18,67.64C158,263.33,37.05,308.08,27.08,418.66v5.43c0,76.1,51.07,140.28,137,177.17-13.65-17.49-29.82-49.89-17.4-85.25,8,33.55,19.83,51.09,41.61,73.35,16.25,16.62,38.07,27.31,66,35.34s57.87,10.21,91.54,10.21c111.23,0,209.72-40.48,266.76-102l.53.09h0c31.89-35.79,52-78.66,52-124.74C665.05,365.8,648.11,326.06,619.55,292.07Z"/><g id="Server"><text class="cls-2" transform="translate(166.86 749.57)">DREADMIST</text><g id="Arc"><path class="cls-3" d="M364.73,674.26c160,0,290.4,26.37,296.29,59.36a13.12,13.12,0,0,0,.28-2.33c0-34.07-132.78-61.68-296.57-61.68S68.15,697.22,68.15,731.29a14.12,14.12,0,0,0,.28,2.33C74.33,700.63,204.69,674.26,364.73,674.26Z"/></g></g><g id="Shadow"><path class="cls-4" d="M733,356.36a.14.14,0,0,0,0-.06l0-.05a.14.14,0,0,0,0-.06l0-.06s0,0,0-.05l0-.06a.14.14,0,0,1,0-.06l0,0,0-.06a.14.14,0,0,0,0-.06l0-.05a.14.14,0,0,0,0-.06l0-.06,0-.05,0-.06a.14.14,0,0,1,0-.06l0-.06,0-.05a.14.14,0,0,0,0-.06l0-.06a.17.17,0,0,0,0-.05l0-.06a.14.14,0,0,1,0-.06l0-.05a.14.14,0,0,1,0-.06l0-.06,0-.05a.14.14,0,0,0,0-.06l0-.06,0,0,0-.06a.14.14,0,0,1,0-.06l0-.05a.14.14,0,0,1,0-.06l0-.06,0-.05a.14.14,0,0,0,0-.06l0-.06s0,0,0-.05l0-.06a.14.14,0,0,1,0-.06l0-.06a.08.08,0,0,1,0-.05l0-.06,0-.06s0,0,0-.05l0-.06s0,0,0-.06l0-.05a.14.14,0,0,1,0-.06l0-.06s0,0,0,0l0-.06,0-.06a.08.08,0,0,0,0-.05l0-.06s0,0,0-.06l0-.05a.14.14,0,0,1,0-.06l0-.06,0-.06,0-.05,0-.06a.14.14,0,0,0,0-.06l0-.05,0-.06,0-.06s0,0,0-.05l0-.06,0-.06s0,0,0-.05l0-.06a.14.14,0,0,0,0-.06l0,0,0-.06,0-.06,0-.05,0-.06,0-.06a.08.08,0,0,0,0-.05l0-.06a.14.14,0,0,0,0-.06l0-.06a.08.08,0,0,1,0-.05l0-.06a.14.14,0,0,1,0-.06l0-.05,0-.06a.14.14,0,0,0,0-.06l0-.05a.14.14,0,0,0,0-.06l0-.06s0,0,0-.05l0-.06a.14.14,0,0,1,0-.06l0,0,0-.06a.14.14,0,0,0,0-.06l0-.05a.14.14,0,0,0,0-.06l0-.06,0-.05,0-.06a.14.14,0,0,1,0-.06l0-.06,0-.05a.14.14,0,0,0,0-.06l0-.06s0,0,0-.05l0-.06a.14.14,0,0,1,0-.06l0-.05a.14.14,0,0,1,0-.06l0-.06,0-.05a.14.14,0,0,0,0-.06l0-.06,0,0,0-.06a.14.14,0,0,1,0-.06l0-.05a.14.14,0,0,1,0-.06l0-.06,0-.05a.14.14,0,0,0,0-.06l0-.06s0,0,0-.06l0-.05a.14.14,0,0,1,0-.06l0-.06a.08.08,0,0,1,0-.05l0-.06,0-.06s0,0,0-.05l0-.06s0,0,0-.06l0-.05a.14.14,0,0,1,0-.06l0-.06,0,0a.14.14,0,0,0,0-.06l0-.06a.08.08,0,0,0,0-.05l0-.06s0,0,0-.06l0-.05a.14.14,0,0,1,0-.06l0-.06,0-.06,0-.05,0-.06a.14.14,0,0,0,0-.06l0-.05,0-.06,0-.06s0,0,0-.05l0-.06,0-.06s0,0,0-.05l0-.06a.14.14,0,0,0,0-.06l0,0,0-.06,0-.06,0-.05,0-.06,0-.06a.14.14,0,0,0,0-.06l0-.05a.14.14,0,0,0,0-.06l0-.06a.08.08,0,0,1,0-.05l0-.06a.14.14,0,0,1,0-.06l0-.05,0-.06a.14.14,0,0,0,0-.06l0-.05a.14.14,0,0,0,0-.06l0-.06s0,0,0-.05l0-.06a.14.14,0,0,1,0-.06l0,0,0-.06a.14.14,0,0,0,0-.06l0-.05a.14.14,0,0,0,0-.06l0-.06,0-.05,0-.06a.14.14,0,0,1,0-.06l0-.06,0-.05a.14.14,0,0,0,0-.06l0-.06,0-.05,0-.06a.14.14,0,0,1,0-.06l0-.05a.14.14,0,0,1,0-.06l0-.06,0-.05a.14.14,0,0,0,0-.06l0-.06s0,0,0,0l0-.06a.14.14,0,0,1,0-.06l0-.05a.14.14,0,0,1,0-.06l0-.06,0-.06,0-.05,0-.06s0,0,0-.06l0-.05a.14.14,0,0,1,0-.06l0-.06,0-.05a.14.14,0,0,0,0-.06l0-.06s0,0,0-.05l0-.06s0,0,0-.06l0-.05a.14.14,0,0,1,0-.06l0-.06,0,0a.14.14,0,0,0,0-.06l0-.06a.08.08,0,0,0,0-.05l0-.06s0,0,0-.06l0-.05a.14.14,0,0,1,0-.06l0-.06,0-.06,0-.05,0-.06a.14.14,0,0,0,0-.06l0-.05,0-.06,0-.06s0,0,0-.05l0-.06,0-.06s0,0,0-.05l0-.06a.14.14,0,0,0,0-.06l0,0a.14.14,0,0,1,0-.06l0-.06,0-.05,0-.06,0-.06a.14.14,0,0,0,0-.06l0-.05a.14.14,0,0,0,0-.06l0-.06s0,0,0-.05l0-.06a.14.14,0,0,1,0-.06l0-.05,0-.06a.14.14,0,0,0,0-.06l0-.05a.14.14,0,0,0,0-.06l0-.06s0,0,0-.05l0-.06a.14.14,0,0,1,0-.06l0,0,0-.06a.14.14,0,0,0,0-.06l0-.05a.14.14,0,0,0,0-.06l0-.06a.14.14,0,0,1,0-.06l0-.05a.14.14,0,0,1,0-.06l0-.06,0-.05a.14.14,0,0,0,0-.06l0-.06,0-.05,0-.06a.14.14,0,0,1,0-.06l0-.05a.14.14,0,0,1,0-.06l0-.06,0-.05a.14.14,0,0,0,0-.06l0-.06,0,0,0-.06a.14.14,0,0,1,0-.06l0-.05a.14.14,0,0,1,0-.06l0-.06,0-.05a.14.14,0,0,0,0-.06l0-.06s0,0,0-.06l0-.05a.14.14,0,0,1,0-.06l0-.06,0-.05a.14.14,0,0,0,0-.06l0-.06s0,0,0-.05l0-.06s0,0,0-.06l0-.05a.14.14,0,0,1,0-.06l0-.06,0,0a.14.14,0,0,0,0-.06l0-.06a.14.14,0,0,0,0-.06l0-.05s0,0,0-.06l0-.06a.08.08,0,0,1,0-.05l0-.06,0-.06,0-.05,0-.06a.14.14,0,0,0,0-.06l0-.05,0-.06,0-.06s0,0,0-.05l0-.06,0-.06s0,0,0-.05l0-.06a.14.14,0,0,0,0-.06l0,0a.14.14,0,0,1,0-.06l0-.06,0-.05,0-.06,0-.06a.14.14,0,0,0,0-.06l0-.05a.14.14,0,0,0,0-.06l0-.06s0,0,0-.05l0-.06a.14.14,0,0,1,0-.06l0-.05,0-.06a.14.14,0,0,0,0-.06l0-.05s0,0,0-.06l0-.06s0,0,0-.05l0-.06a.14.14,0,0,1,0-.06l0,0,0-.06a.14.14,0,0,0,0-.06l0-.06s0,0,0-.05l0-.06a.14.14,0,0,1,0-.06l0-.05a.14.14,0,0,1,0-.06l0-.06,0-.05a.14.14,0,0,0,0-.06l0-.06,0-.05,0-.06a.14.14,0,0,1,0-.06l0-.05a.14.14,0,0,1,0-.06l0-.06,0-.05a.14.14,0,0,0,0-.06l0-.06s0,0,0,0l0-.06a.14.14,0,0,1,0-.06l0-.05a.14.14,0,0,1,0-.06l0-.06,0-.06,0-.05,0-.06s0,0,0-.06l0-.05a.14.14,0,0,1,0-.06l0-.06,0-.05a.14.14,0,0,0,0-.06l0-.06s0,0,0-.05l0-.06s0,0,0-.06l0-.05a.14.14,0,0,1,0-.06l0-.06,0,0a.14.14,0,0,0,0-.06l0-.06a.14.14,0,0,0,0-.06l0-.05s0,0,0-.06l0-.06a.08.08,0,0,1,0-.05l0-.06,0-.06s0,0,0-.05l0-.06a.14.14,0,0,0,0-.06l0-.05,0-.06,0-.06s0,0,0-.05a19.16,19.16,0,0,0-17.64-11.71H637.81c-5.22,0-7-.05-7.62-.08a19.32,19.32,0,0,0-2-.1,18.78,18.78,0,0,0-3.75.37h-56l0-.06,0-.05,0-.06,0-.06,0-.06,0-.05,0-.06,0-.06,0,0,0-.06,0-.06,0-.05,0-.06,0-.06,0-.05,0-.06,0-.06,0-.05,0-.06,0-.06,0,0,0-.06,0-.06,0-.05,0-.06,0-.06,0-.05,0-.06,0-.06,0-.06,0,0,0-.06,0-.06,0-.05,0-.06,0-.06,0-.05,0-.06,0-.06,0-.05,0-.06,0-.06,0,0,0-.06,0-.06,0-.05,0-.06,0-.06,0-.06,0-.05,0-.06,0-.06,0,0,0-.06,0-.06,0-.05,0-.06,0-.06,0-.05,0-.06,0-.06,0-.05,0-.06,0-.06,0-.06,0,0,0-.06,0-.05,0-.06,0-.06,0-.06,0-.05,0-.06,0-.06,0,0,0-.06,0-.06,0-.05,0-.06,0-.06,0-.05,0-.06,0-.06,0-.05,0-.06,0-.06,0,0,0-.06,0-.06,0-.05,0-.06,0-.06,0-.06,0-.05,0-.06,0-.06,0,0,0-.06,0-.06,0-.05,0-.06,0-.06,0-.05,0-.06,0-.06,0-.05,0-.06,0-.06,0,0,0-.06,0-.06,0-.06,0-.05,0-.06,0-.06,0-.05,0-.06,0-.06,0,0,0-.06,0-.06,0-.05,0-.06,0-.06,0-.05,0-.06,0-.06,0-.05,0-.06,0-.06,0,0,0-.06,0-.06,0-.06,0-.05,0-.06,0-.06,0-.05,0-.06,0-.06,0,0,0-.06,0-.06,0-.05,0-.06,0-.06,0-.05,0-.06,0-.06,0-.05,0-.06,0-.06,0,0,0-.06,0-.06,0-.06,0-.05,0-.06,0-.06,0-.05,0-.06,0-.06,0,0,0-.06,0-.06,0-.05,0-.06,0-.06,0-.05,0-.06,0-.06,0-.05,0-.06,0-.06,0,0,0-.06,0-.06,0-.05,0-.06,0-.06,0-.06,0-.05,0-.06,0-.06,0,0,0-.06,0-.06,0-.05,0-.06,0-.06,0-.05,0-.06,0-.06,0-.05,0-.06,0-.06,0,0,0-.06,0-.06,0-.06,0-.05,0-.06,0-.06,0-.05,0-.06,0-.06,0,0,0-.06,0-.06,0-.05,0-.06,0-.06,0-.05,0-.06,0-.06,0-.05,0-.06,0-.06,0,0,0-.06,0-.06,0-.05,0-.06,0-.06,0-.06,0-.05,0-.06,0-.06,0,0,0-.06,0-.06,0-.05,0-.06a18,18,0,0,0-1.26-2.38l-.27-.44a19.14,19.14,0,0,0-5.54-5.75A63.89,63.89,0,0,0,557,284.5a38.23,38.23,0,0,0-3.7-16.3l0-.05,0-.06,0-.06,0,0,0-.06a.14.14,0,0,1,0-.06l0-.05,0-.06a.14.14,0,0,0,0-.06l0-.05,0-.06,0-.06a.14.14,0,0,1,0-.06l0,0a.14.14,0,0,1,0-.06l0-.06,0-.05,0-.06,0-.06,0-.05,0-.06a.14.14,0,0,1,0-.06l0-.05,0-.06a.14.14,0,0,0,0-.06l0,0s0,0,0-.06l0-.06s0,0,0-.06l0-.05a.14.14,0,0,1,0-.06l0-.05,0-.06,0-.06,0-.06s0,0,0,0l0-.06s0,0,0-.06l0-.05a.14.14,0,0,1,0-.06l0-.06,0-.05a.14.14,0,0,0,0-.06l0-.06,0-.05,0-.06,0-.06,0,0,0-.06a.14.14,0,0,0,0-.06l0-.05a.14.14,0,0,0,0-.06l0-.06s0,0,0-.05l0-.06,0-.06,0-.06a.08.08,0,0,1,0,0l0-.06,0-.06a.17.17,0,0,0,0-.05l0-.06s0,0,0-.06l0-.05,0-.06,0-.06s0,0,0-.05l0-.06,0-.06s0,0,0,0l0-.06,0-.06,0-.06s0,0,0-.05l0-.06,0-.05,0-.06,0-.06,0-.06,0,0,0-.06,0-.06s0,0,0-.05l0-.06,0-.06s0,0,0-.05l0-.06,0-.06,0-.05,0-.06,0-.06,0,0,0-.06,0-.06s0,0,0-.05l0-.06s0,0,0-.06l0-.05,0-.06,0-.06,0-.06,0,0,0-.06a.14.14,0,0,0,0-.06l0-.05,0-.06,0-.06s0,0,0-.05l0-.06,0-.06,0-.05,0-.06,0-.06,0,0s0,0,0-.06l0-.06s0,0,0-.06l0-.05a.14.14,0,0,1,0-.06l0-.05,0-.06a.14.14,0,0,0,0-.06l0-.06s0,0,0,0l0-.06s0,0,0-.06l0-.05a.14.14,0,0,1,0-.06l0-.06,0-.05a.14.14,0,0,0,0-.06l0-.06s0,0,0-.05l0-.06s0,0,0-.06l0,0a.14.14,0,0,1,0-.06l0-.06,0-.05,0-.06,0-.06,0-.05,0-.06s0,0,0-.06l0-.06a.08.08,0,0,1,0,0l0-.06,0-.06s0,0,0-.05l0-.06s0,0,0-.06l0-.05s0,0,0-.06l0-.06s0,0,0-.05l0-.06,0-.06s0,0,0,0l0-.06,0-.06,0-.05,0-.06,0-.06,0-.06,0-.05,0-.06a.14.14,0,0,0,0-.06l0,0,0-.06,0-.06,0-.05,0-.06a.14.14,0,0,1,0-.06l0-.05,0-.06s0,0,0-.06l0-.05,0-.06,0-.06a.14.14,0,0,1,0-.06l0-.05,0-.06,0-.05,0-.06,0-.06,0-.05,0-.06,0-.06a.14.14,0,0,1,0-.06l0,0,0-.06,0-.06,0-.05s0,0,0-.06l0-.06,0-.05,0-.06,0-.06,0-.05,0-.06a.14.14,0,0,0,0-.06l0,0s0,0,0-.06l0-.06s0,0,0-.05l0-.06,0-.06,0-.06,0-.05,0-.06,0,0s0,0,0-.06l0-.06s0,0,0-.06l0-.05,0-.06,0-.06,0-.05,0-.06,0-.06,0,0,0-.06,0-.06,0-.06,0-.05,0-.06,0-.05a.14.14,0,0,0,0-.06l0-.06s0,0,0-.06l0,0s0,0,0-.06l0-.06a.08.08,0,0,1,0-.05l0-.06,0-.06,0,0,0-.06,0-.06,0-.05s0,0,0-.06l0-.06s0,0,0,0l0-.06,0-.06s0,0,0-.05l0-.06s0,0,0-.06l0-.05,0-.06,0-.06,0-.06,0,0,0-.06a.08.08,0,0,0,0-.05l0-.06,0-.06,0-.06s0,0,0,0l0-.06,0-.06,0-.05,0-.06,0-.06,0,0,0-.06,0-.06a.14.14,0,0,1,0-.06l0-.05a.14.14,0,0,1,0-.06l0-.05,0-.06,0-.06,0-.06s0,0,0,0l0-.06a.14.14,0,0,1,0-.06l0-.05a.14.14,0,0,1,0-.06l0-.06,0,0s0,0,0-.06l0-.06,0-.05,0-.06a.14.14,0,0,1,0-.06l0-.06,0,0a.14.14,0,0,0,0-.06l0-.05,0-.06,0-.06,0-.05,0-.06a.14.14,0,0,1,0-.06l0-.06,0,0a.14.14,0,0,0,0-.06l0-.06,0-.05,0-.06,0-.06,0,0,0-.06,0-.06,0-.05a.14.14,0,0,0,0-.06l0-.06,0,0,0-.06,0-.06,0-.05a.14.14,0,0,1,0-.06l0-.06,0-.06s0,0,0-.05l0-.06s0,0,0-.06l0,0,0-.06,0-.06,0-.05,0-.06,0-.06,0,0,0-.06s0,0,0-.06l0-.05s0,0,0-.06l0-.06,0-.06,0,0,0-.06,0-.05,0-.06,0-.06,0-.05,0-.06,0-.06,0-.06,0,0,0-.06,0-.06,0-.05,0-.06,0-.06s0,0,0,0l0-.06,0-.06s0,0,0-.05l0-.06s0,0,0-.06l0,0,0-.06,0-.06a.17.17,0,0,1,0-.05l0-.06,0-.06a.14.14,0,0,0,0-.06l0-.05,0-.06,0-.05s0,0,0-.06l0-.06a.14.14,0,0,1,0-.06l0-.05,0-.06,0-.06,0,0,0-.06,0-.06,0-.05,0-.06a.14.14,0,0,1,0-.06l0-.06,0,0a.14.14,0,0,0,0-.06l0-.05s0,0,0-.06l0-.06s0,0,0-.05l0-.06,0-.06,0-.06,0,0a.14.14,0,0,0,0-.06l0-.06,0-.05,0-.06s0,0,0-.06l0,0a.14.14,0,0,1,0-.06l0-.06,0-.05a.14.14,0,0,0,0-.06l0-.06,0,0,0-.06,0-.06,0-.05a.14.14,0,0,1,0-.06l0-.06,0-.06a.17.17,0,0,0,0-.05l0-.06s0,0,0-.05l0-.06,0-.06,0-.06a.08.08,0,0,1,0-.05l0-.06,0-.06,0,0,0-.06,0-.06,0-.05s0,0,0-.06l0-.06,0-.06,0,0a45.18,45.18,0,0,0-7.87-11.55,19,19,0,0,0-1.64-1.59c-9.28-7.92-19.33-11.94-29.89-11.94H461.34a19.18,19.18,0,0,0-6.72,1.23,19.67,19.67,0,0,0-6.87-1.28H392.53a19.21,19.21,0,0,0-8.52,2,21.5,21.5,0,0,0-2.7,1.63,54.93,54.93,0,0,0-7.72-2.15h0a29.9,29.9,0,0,0-5-.73c-2-.13-4.67-.23-8.3-.31-6.66-.15-16.67-.22-29.76-.22l-1.52-.09-1,0a19.36,19.36,0,0,0-4.91.66,21.4,21.4,0,0,0-3-.62,19.33,19.33,0,0,0-2.4-.15H293.29a20.57,20.57,0,0,0-7.9,1.55,19.41,19.41,0,0,0-7.53-1.55H246.4a19,19,0,0,0-7.56,1.56l-.1,0a20.22,20.22,0,0,0-2,.81,19.09,19.09,0,0,0-4.09-.48,45.11,45.11,0,0,0-4.66.32c-7.66-1.55-13-2.24-17.08-2.24h-2.36c-.48,0-1,0-1.44,0a61.89,61.89,0,0,0-14.88,2.85c-.45.15-.89.31-1.32.5-16.16,6.75-25.43,20.25-25.43,37v2a40.23,40.23,0,0,0,2.64,14.58l-.08.07a19.16,19.16,0,0,0-5.13,18c.62,2.63,1.66,7.91,3.09,18.15a18.9,18.9,0,0,0,1.62,6.19l0,.06,0,.05,0,.06,0,.06,0,0,0,.06,0,.06,0,.05,0,.06,0,.06,0,.05,0,.06,0,.06,0,.06,0,.05,0,.06,0,.06,0,.05,0,.06,0,.06,0,.05,0,.06,0,.06,0,.05,0,.06,0,.06,0,0,0,.06,0,.06,0,.05-4.82-.08a19.06,19.06,0,0,0-5.24.74h-42a19.09,19.09,0,0,0-14.64,6.81,19.09,19.09,0,0,0-12.21-4.41h-.19a19.1,19.1,0,0,0-13.79,6.07,19.14,19.14,0,0,0-16-8.67c-.43,0-1.8,0-4.14.1-1.72.06-3.91.09-6.51.09H19.14A19.13,19.13,0,0,0,1.5,347.52a.14.14,0,0,0,0,.06l0,.06a.14.14,0,0,0,0,.06l0,.05a.14.14,0,0,1,0,.06l0,.06a.08.08,0,0,1,0,.05l0,.06,0,.06s0,0,0,0l0,.06a.14.14,0,0,0,0,.06l0,.05a.14.14,0,0,1,0,.06l0,.06s0,0,0,.05l0,.06,0,.06a.08.08,0,0,0,0,.05l0,.06s0,0,0,.06l0,0a.14.14,0,0,1,0,.06l0,.06,0,.06,0,.05,0,.06a.14.14,0,0,0,0,.06l0,.05s0,0,0,.06l0,.06a.08.08,0,0,1,0,0l0,.06a.14.14,0,0,1,0,.06l0,.05,0,.06a.14.14,0,0,0,0,.06l0,.05s0,0,0,.06l0,.06a.14.14,0,0,1,0,.06l0,.05,0,.06a.08.08,0,0,0,0,0l0,.06a.14.14,0,0,0,0,.06l0,.06a.08.08,0,0,1,0,.05l0,.06a.14.14,0,0,1,0,.06l0,.05,0,.06a.14.14,0,0,0,0,.06l0,0a.14.14,0,0,0,0,.06l0,.06s0,0,0,.05l0,.06a.14.14,0,0,1,0,.06l0,.05,0,.06a.14.14,0,0,0,0,.06l0,.05a.14.14,0,0,0,0,.06l0,.06,0,0,0,.06a.14.14,0,0,1,0,.06l0,.06,0,.05a.14.14,0,0,0,0,.06l0,.06,0,.05,0,.06a.14.14,0,0,1,0,.06l0,0a.14.14,0,0,1,0,.06l0,.06,0,.05a.14.14,0,0,0,0,.06l0,.06s0,0,0,.05l0,.06a.14.14,0,0,1,0,.06l0,.05a.14.14,0,0,1,0,.06l0,.06,0,0a.14.14,0,0,0,0,.06l0,.06a.08.08,0,0,0,0,.05l0,.06a.14.14,0,0,1,0,.06l0,.06a.08.08,0,0,1,0,.05L4,353,4,353s0,0,0,0l0,.06s0,0,0,.06l0,.05a.14.14,0,0,1,0,.06l0,.06s0,0,0,.05l0,.06,0,.06a.08.08,0,0,0,0,.05l0,.06,0,.06,0,0a.14.14,0,0,1,0,.06l0,.06,0,.06,0,.05,0,.06a.14.14,0,0,0,0,.06l0,.05s0,0,0,.06l0,.06s0,0,0,0l0,.06,0,.06s0,0,0,.05l0,.06a.14.14,0,0,0,0,.06l0,.05s0,0,0,.06l0,.06a.17.17,0,0,1,0,.05l0,.06,0,.06a.08.08,0,0,0,0,0l0,.06a.14.14,0,0,0,0,.06l0,.05s0,0,0,.06l0,.06a.14.14,0,0,1,0,.06l0,.05,0,.06a.14.14,0,0,0,0,.06l0,0a.14.14,0,0,0,0,.06l0,.06s0,0,0,.05l0,.06a.14.14,0,0,1,0,.06l0,.05,0,.06a.14.14,0,0,0,0,.06l0,.05a.14.14,0,0,0,0,.06l0,.06,0,0,0,.06a.14.14,0,0,1,0,.06l0,.06,0,.05a.14.14,0,0,0,0,.06l0,.06s0,0,0,.05l0,.06a.14.14,0,0,1,0,.06l0,0a.14.14,0,0,1,0,.06l0,.06,0,.05a.14.14,0,0,0,0,.06l0,.06s0,0,0,.05l0,.06a.14.14,0,0,1,0,.06l0,.05a.14.14,0,0,1,0,.06l0,.06,0,.06a.17.17,0,0,0,0,.05l0,.06s0,0,0,.06l0,.05a.14.14,0,0,1,0,.06l0,.06a.08.08,0,0,1,0,.05l0,.06,0,.06s0,0,0,0l0,.06s0,0,0,.06l0,.05a.14.14,0,0,1,0,.06l0,.06,0,.05a.14.14,0,0,0,0,.06l0,.06a.08.08,0,0,0,0,.05l0,.06,0,.06,0,0a.14.14,0,0,1,0,.06l0,.06,0,.06,0,.05,0,.06a.14.14,0,0,0,0,.06l0,.05s0,0,0,.06l0,.06s0,0,0,0l0,.06,0,.06s0,0,0,.05l0,.06a.14.14,0,0,0,0,.06l0,.05s0,0,0,.06l0,.06a.17.17,0,0,1,0,.05l0,.06,0,.06a.14.14,0,0,0,0,.06l0,.05a.14.14,0,0,0,0,.06l0,.06a.08.08,0,0,1,0,.05l0,.06a.14.14,0,0,1,0,.06l0,.05,0,.06a.14.14,0,0,0,0,.06l0,0a.14.14,0,0,0,0,.06l0,.06s0,0,0,.05l0,.06a.14.14,0,0,1,0,.06l0,.05,0,.06a.14.14,0,0,0,0,.06l0,.05a.14.14,0,0,0,0,.06l0,.06,0,0,0,.06a.14.14,0,0,1,0,.06l0,.06,0,.05a.14.14,0,0,0,0,.06l0,.06s0,0,0,.05l0,.06a.14.14,0,0,1,0,.06l0,0a.14.14,0,0,1,0,.06L8,362,8,362a.14.14,0,0,0,0,.06l0,.06s0,0,0,.05l0,.06a.14.14,0,0,1,0,.06l0,.05a.14.14,0,0,1,0,.06l0,.06,0,.06a.17.17,0,0,0,0,.05l0,.06a.14.14,0,0,0,0,.06l0,.05a.14.14,0,0,1,0,.06l0,.06s0,0,0,.05l0,.06,0,.06s0,0,0,0l0,.06s0,0,0,.06l0,.05a.14.14,0,0,1,0,.06l0,.06,0,.05a.14.14,0,0,0,0,.06l0,.06a.14.14,0,0,0,0,.06l0,.05s0,0,0,.06l0,0a.14.14,0,0,1,0,.06l0,.06,0,.06,0,.05,0,.06a.14.14,0,0,0,0,.06l0,.05s0,0,0,.06l0,.06s0,0,0,0l0,.06,0,.06a.08.08,0,0,0,0,.05l0,.06a.14.14,0,0,0,0,.06l0,.05a.14.14,0,0,1,0,.06l0,.06a.17.17,0,0,1,0,.05l0,.06,0,.06a.14.14,0,0,0,0,.06l0,.05a.14.14,0,0,0,0,.06l0,.06s0,0,0,.05l0,.06a.14.14,0,0,1,0,.06l0,.05,0,.06a.14.14,0,0,0,0,.06l0,0a.14.14,0,0,0,0,.06l0,.06s0,0,0,.05l0,.06a.14.14,0,0,1,0,.06l0,.05,0,.06a.14.14,0,0,0,0,.06l0,.06,0,.05,0,.06a.14.14,0,0,1,0,.06l0,.05a.14.14,0,0,1,0,.06l0,.06,0,.05a.14.14,0,0,0,0,.06l0,.06s0,0,0,.05l0,.06a.14.14,0,0,1,0,.06l0,0a.14.14,0,0,1,0,.06l0,.06,0,.05a.14.14,0,0,0,0,.06l0,.06s0,0,0,.05l0,.06a.14.14,0,0,1,0,.06l0,.05a.14.14,0,0,1,0,.06l0,.06,0,0a.14.14,0,0,0,0,.06l0,.06s0,0,0,.06l0,.05a.14.14,0,0,1,0,.06l0,.06,0,.05a.14.14,0,0,0,0,.06l0,.06s0,0,0,0l0,.06s0,0,0,.06l0,.05a.14.14,0,0,1,0,.06l0,.06,0,.05a.14.14,0,0,0,0,.06l0,.06a.14.14,0,0,0,0,.06l0,.05s0,0,0,.06l0,.06a.08.08,0,0,1,0,.05l0,.06,0,.06,0,.05,0,.06a.14.14,0,0,0,0,.06.08.08,0,0,1,0,0c1.35,5.42,2.91,11.59,4.65,18.38,1.92,7.5,3.89,15.45,5.86,23.62q3.06,12.73,5.76,23.7c1.75,7.14,3.17,13.26,4.21,18.2l.33,1.56a19.12,19.12,0,0,0-6.59,20.66,19.35,19.35,0,0,0,1.15,2.91s0,0,0,.06l0,.05s0,0,0,.06l0,.06a.08.08,0,0,1,0,.05l0,.06,0,.06a.17.17,0,0,0,0,.05l0,.06,0,.06,0,.05s0,0,0,.06l0,.06s0,0,0,.05l0,.06,0,.06a.08.08,0,0,0,0,0l0,.06,0,.06,0,.05s0,0,0,.06l0,.06,0,.05,0,.06,0,.06a.14.14,0,0,0,0,.06l0,.05,0,.06,0,.06,0,.05,0,.06a.14.14,0,0,1,0,.06l0,.05,0,.06a.14.14,0,0,0,0,.06l0,.05s0,0,0,.06l0,.06s0,0,0,0l0,.06a.14.14,0,0,1,0,.06l0,.05,0,.06a.14.14,0,0,0,0,.06l0,.06s0,0,0,.05l0,.06,0,.06,0,.05a.14.14,0,0,1,0,.06l0,.06,0,.05a.14.14,0,0,0,0,.06l0,.06s0,0,0,.05l0,.06s0,0,0,.06l0,.05a.14.14,0,0,1,0,.06l0,.06,0,0,0,.06,0,.06s0,0,0,.05l0,.06s0,0,0,.06l0,.05a.14.14,0,0,1,0,.06l0,.06,0,.06,0,.05,0,.06s0,0,0,.06l0,.05s0,0,0,.06l0,.06,0,.05a.14.14,0,0,0,0,.06l0,.06s0,0,0,.05l0,.06,0,.06,0,0,0,.06,0,.06,0,.05a.14.14,0,0,0,0,.06l0,.06s0,0,0,.06l0,.05s0,0,0,.06l0,.06a.08.08,0,0,1,0,.05l0,.06,0,.06a.17.17,0,0,0,0,.05l0,.06,0,.06,0,.05s0,0,0,.06l0,.06,0,.05,0,.06,0,.06a.08.08,0,0,0,0,0l0,.06,0,.06,0,.05s0,0,0,.06l0,.06,0,.05,0,.06,0,.06a.14.14,0,0,0,0,.06l0,.05,0,.06,0,.06s0,0,0,.05l0,.06a.14.14,0,0,1,0,.06l0,.05,0,.06a.14.14,0,0,0,0,.06l0,.05s0,0,0,.06l0,.06s0,0,0,0l0,.06a.14.14,0,0,1,0,.06l0,.05,0,.06a.14.14,0,0,0,0,.06l0,.06s0,0,0,.05l0,.06,0,.06,0,.05a.14.14,0,0,1,0,.06l0,.06,0,.05,0,.06,0,.06,0,.05,0,.06s0,0,0,.06l0,.05a.14.14,0,0,1,0,.06l0,.06,0,0,0,.06,0,.06s0,0,0,.06l0,.05s0,0,0,.06l0,.06,0,.05a.14.14,0,0,0,0,.06l0,.06s0,0,0,.05l0,.06s0,0,0,.06l0,.05s0,0,0,.06l0,.06s0,0,0,.05l0,.06,0,.06s0,0,0,.05l0,.06,0,.06,0,0a.14.14,0,0,1,0,.06l0,.06,0,.05a.14.14,0,0,0,0,.06l0,.06s0,0,0,.05l0,.06s0,0,0,.06l0,.06a.08.08,0,0,1,0,.05l0,.06,0,.06a.17.17,0,0,0,0,.05l0,.06,0,.06,0,.05s0,0,0,.06l0,.06,0,.05,0,.06,0,.06a.08.08,0,0,0,0,0l0,.06,0,.06,0,.06s0,0,0,.05l0,.06a.14.14,0,0,1,0,.06l0,.05,0,.06a.14.14,0,0,0,0,.06l0,.05,0,.06,0,.06s0,0,0,.05l0,.06a.14.14,0,0,1,0,.06l0,.05,0,.06a.14.14,0,0,0,0,.06l0,.05,0,.06,0,.06s0,0,0,0l0,.06a.14.14,0,0,1,0,.06l0,.05,0,.06s0,0,0,.06l0,.05,0,.06,0,.06s0,0,0,.06l0,.05a.14.14,0,0,1,0,.06l0,.06,0,.05s0,0,0,.06l0,.06s0,0,0,.05l0,.06s0,0,0,.06l0,.05a.14.14,0,0,1,0,.06l0,.06,0,0,0,.06,0,.06s0,0,0,.06l0,.05s0,0,0,.06l0,.06,0,.05a.14.14,0,0,0,0,.06l0,.06s0,0,0,.05l0,.06,0,.06,0,.05s0,0,0,.06l0,.06,0,.05a.14.14,0,0,0,0,.06l0,.06s0,0,0,.05l0,.06s0,0,0,.06l0,0a.14.14,0,0,1,0,.06l0,.06,0,.05a.14.14,0,0,0,0,.06l0,.06s0,0,0,.06l0,.05,0,.06,0,.06a.08.08,0,0,1,0,.05l0,.06,0,.06s0,0,0,.05l0,.06,0,.06,0,.05s0,0,0,.06l0,.06,0,.05,0,.06,0,.06a.08.08,0,0,0,0,0l0,.06,0,.06,0,.05s0,0,0,.06l0,.06a.14.14,0,0,1,0,.06l0,.05,0,.06a.14.14,0,0,0,0,.06l0,.05,0,.06,0,.06s0,0,0,.05l0,.06a.14.14,0,0,1,0,.06l0,.05,0,.06a.14.14,0,0,0,0,.06l0,.05,0,.06,0,.06,0,.06,0,0a.14.14,0,0,1,0,.06l0,.06,0,.05s0,0,0,.06l0,.06s0,0,0,.05l0,.06s0,0,0,.06l0,.05a.14.14,0,0,1,0,.06l0,.06,0,.05a.14.14,0,0,0,0,.06l0,.06s0,0,0,.05l0,.06s0,0,0,.06l0,.05,0,.06a.14.14,0,0,0,0,.06l0,0,0,.06,0,.06s0,0,0,.05l0,.06s0,0,0,.06l0,.06,0,.05a.14.14,0,0,0,0,.06l0,.06s0,0,0,.05l0,.06,0,.06,0,.05a.14.14,0,0,1,0,.06l0,.06,0,.05a.14.14,0,0,0,0,.06l0,.06s0,0,0,.05l0,.06s0,0,0,.06l0,.06a.08.08,0,0,1,0,0l0,.06,0,.06,0,.05,0,.06s0,0,0,.06l0,.05,0,.06,0,.06a.08.08,0,0,1,0,.05l0,.06,0,.06s0,0,0,.05l0,.06,0,.06,0,.05s0,0,0,.06l0,.06,0,.05,0,.06,0,.06a.08.08,0,0,0,0,0l0,.06,0,.06,0,.05s0,0,0,.06l0,.06a.14.14,0,0,1,0,.06l0,.05,0,.06a.14.14,0,0,0,0,.06l0,.05,0,.06,0,.06s0,0,0,.05l0,.06a.14.14,0,0,1,0,.06l0,.05,0,.06a.14.14,0,0,0,0,.06l0,.05,0,.06,0,.06,0,.06,0,0a.14.14,0,0,1,0,.06l0,.06,0,.05s0,0,0,.06l0,.06s0,0,0,.05l0,.06s0,0,0,.06l0,.05a.14.14,0,0,1,0,.06l0,.06,0,.05s0,0,0,.06l0,.06s0,0,0,.05l0,.06s0,0,0,.06l0,.05,0,.06a.14.14,0,0,0,0,.06l0,0,0,.06,0,.06s0,0,0,.06l0,.05s0,0,0,.06l0,.06,0,.05A19.13,19.13,0,0,0,54.53,512.8h43a19.69,19.69,0,0,0,3.71-.36,19.67,19.67,0,0,0,3.7.36h42.59a19.31,19.31,0,0,0,4-.43,19.58,19.58,0,0,0,4,.43h16.92v0l0,0a.14.14,0,0,1,0,.06l0,.06s0,0,0,0l0,.06,0,.06s0,0,0,.05l0,.06,0,.06,0,0a.14.14,0,0,1,0,.06l0,.06s0,0,0,0l0,.06,0,.06a.08.08,0,0,0,0,.05l0,.06s0,0,0,.06l0,.06a.08.08,0,0,1,0,.05l0,.06,0,0a.14.14,0,0,0,0,.06l0,.06a.14.14,0,0,0,0,.06l0,0a.14.14,0,0,1,0,.06l0,.06a.08.08,0,0,1,0,.05l0,.06,0,.06s0,0,0,0l0,.06a.14.14,0,0,0,0,.06l0,0a.14.14,0,0,1,0,.06l0,.06,0,.05,0,.06,0,.06a.08.08,0,0,0,0,0l0,.06a.14.14,0,0,0,0,.06l0,.06a.08.08,0,0,1,0,0l0,.06a.14.14,0,0,1,0,.06l0,0,0,.06a.14.14,0,0,0,0,.06l0,.05a.14.14,0,0,0,0,.06l0,.06s0,0,0,0l0,.06a.14.14,0,0,1,0,.06l0,0,0,.06a.14.14,0,0,0,0,.06l0,.05a.14.14,0,0,0,0,.06l0,.06a.14.14,0,0,1,0,.06l0,.05a.14.14,0,0,1,0,.06l0,0,0,.06a.14.14,0,0,0,0,.06l0,.06,0,0,0,.06a.14.14,0,0,1,0,.06l0,.05a.14.14,0,0,1,0,.06l0,.06,0,0a.14.14,0,0,0,0,.06l0,.06s0,0,0,0l0,.06a.14.14,0,0,1,0,.06l0,.05,0,.06a.14.14,0,0,0,0,.06l0,0a.14.14,0,0,0,0,.06l0,.06,0,.06,0,0a.14.14,0,0,1,0,.06l0,.06,0,0a.14.14,0,0,0,0,.06l0,.06s0,0,0,.05l0,.06,0,.06,0,0a.14.14,0,0,1,0,.06l0,.06,0,0a.14.14,0,0,0,0,.06l0,.06a.08.08,0,0,0,0,.05l0,.06s0,0,0,.06l0,.06a.08.08,0,0,1,0,.05l0,.06,0,.06,0,0,0,.06a.14.14,0,0,0,0,.06l0,0a.14.14,0,0,1,0,.06l0,.06a.08.08,0,0,1,0,.05l0,.06,0,.06s0,0,0,0l0,.06a.14.14,0,0,0,0,.06l0,0a.14.14,0,0,1,0,.06l0,.06,0,.05,0,.06,0,.06a.08.08,0,0,0,0,0l0,.06a.14.14,0,0,0,0,.06l0,0a.14.14,0,0,1,0,.06l0,.06a.14.14,0,0,1,0,.06l0,0,0,.06a.14.14,0,0,0,0,.06l0,.05,0,.06,0,.06s0,0,0,0l0,.06a.14.14,0,0,1,0,.06l0,0,0,.06a.14.14,0,0,0,0,.06l0,.05a.14.14,0,0,0,0,.06l0,.06,0,0,0,.06a.14.14,0,0,1,0,.06l0,.06,0,0v47.34a20.1,20.1,0,0,0-8.85,16.7c0,.33,0,.66,0,1a21.61,21.61,0,0,0,2.08,8.34l0,.06s0,0,0,.05l0,.06a.14.14,0,0,1,0,.06l0,0,0,.06a.14.14,0,0,0,0,.06l0,0,0,.06,0,.06s0,0,0,.05l0,.06,0,.06a.14.14,0,0,0,0,.06l0,.05a.14.14,0,0,0,0,.06l0,.06s0,0,0,0l0,.06s0,0,0,.06l0,0a.14.14,0,0,1,0,.06l0,.06,0,.05,0,.06,0,.06s0,0,0,0l0,.06a.14.14,0,0,1,0,.06l0,0a.14.14,0,0,1,0,.06l0,.06,0,.06s0,0,0,0l0,.06,0,.06,0,.05a.14.14,0,0,1,0,.06l0,.06,0,0a.14.14,0,0,0,0,.06l0,.06,0,0,0,.06,0,.06,0,.05a.14.14,0,0,1,0,.06l0,.06,0,0a.14.14,0,0,0,0,.06l0,.06s0,0,0,0l0,.06,0,.06,0,.05a.14.14,0,0,1,0,.06l0,.06,0,.06,0,.05,0,.06,0,.06,0,0,0,.06,0,.06,0,0,0,.06,0,.06a.08.08,0,0,0,0,.05l0,.06s0,0,0,.06l0,0,0,.06,0,.06,0,0,0,.06,0,.06a.14.14,0,0,0,0,.06l0,0s0,0,0,.06l0,.06s0,0,0,.05l0,.06a.14.14,0,0,1,0,.06l0,0,0,.06a.14.14,0,0,0,0,.06l0,0s0,0,0,.06l0,.06s0,0,0,.05l0,.06a.14.14,0,0,1,0,.06l0,0,0,.06a.14.14,0,0,0,0,.06l0,0,0,.06,0,.06s0,0,0,.06l0,0,0,.06a.14.14,0,0,0,0,.06l0,.05a.14.14,0,0,0,0,.06l0,.06,0,0,0,.06s0,0,0,.06l0,0,0,.06a.14.14,0,0,0,0,.06l0,.05,0,.06,0,.06s0,0,0,0l0,.06a.14.14,0,0,1,0,.06l0,0,0,.06a.14.14,0,0,0,0,.06l0,.06s0,0,0,0l0,.06,0,.06,0,.05a.14.14,0,0,1,0,.06l0,.06,0,0a.14.14,0,0,0,0,.06l0,.06s0,0,0,0l0,.06,0,.06,0,.05a.14.14,0,0,1,0,.06l0,.06,0,.06,0,0,0,.06,0,.06,0,.05,0,.06,0,.06a.08.08,0,0,1,0,0l0,.06,0,.06,0,.05,0,.06,0,.06,0,0,0,.06,0,.06,0,0,0,.06,0,.06a.08.08,0,0,0,0,.05l0,.06s0,0,0,.06l0,0,0,.06,0,.06,0,0,0,.06,0,.06a.14.14,0,0,0,0,.06l0,0s0,0,0,.06l0,.06s0,0,0,.05l0,.06a.14.14,0,0,1,0,.06l0,0,0,.06a.14.14,0,0,0,0,.06l0,0s0,0,0,.06l0,.06s0,0,0,.05l0,.06a.14.14,0,0,1,0,.06l0,0,0,.06a.14.14,0,0,0,0,.06l0,.06s0,0,0,.05l0,.06s0,0,0,.06l0,0a.14.14,0,0,1,0,.06l0,.06,0,.05,0,.06,0,.06s0,0,0,0l0,.06a.14.14,0,0,1,0,.06l0,0,0,.06a.14.14,0,0,0,0,.06l0,.05,0,.06,0,.06s0,0,0,0l0,.06a.14.14,0,0,1,0,.06l0,0,0,.06a.14.14,0,0,0,0,.06l0,.06s0,0,0,0l0,.06,0,.06,0,.05a.14.14,0,0,1,0,.06l0,.06,0,0a.14.14,0,0,0,0,.06l0,.06s0,0,0,0l0,.06,0,.06,0,.05a.14.14,0,0,1,0,.06l0,.06,0,0a.14.14,0,0,0,0,.06l0,.06,0,.06,0,.05,0,.06,0,.06a.08.08,0,0,1,0,0l0,.06,0,.06,0,.05,0,.06,0,.06,0,0,0,.06,0,.06,0,0,0,.06,0,.06a.08.08,0,0,0,0,.05l0,.06s0,0,0,.06l0,0,0,.06,0,.06a.14.14,0,0,1,0,.06l0,.05,0,.06a.14.14,0,0,0,0,.06l0,0s0,0,0,.06l0,.06s0,0,0,.05l0,.06a.14.14,0,0,1,0,.06l0,0,0,.06a.14.14,0,0,0,0,.06l0,0s0,0,0,.06l0,.06s0,0,0,.05l0,.06,0,.06a.08.08,0,0,0,0,0l0,.06s0,0,0,.06l0,.06s0,0,0,.05l0,.06s0,0,0,.06l0,0a.14.14,0,0,1,0,.06l0,.06,0,.05,0,.06,0,.06,0,0,0,.06a.14.14,0,0,1,0,.06l0,0,0,.06a.14.14,0,0,0,0,.06l0,.05,0,.06,0,.06,0,.06,0,0a.14.14,0,0,1,0,.06l0,.06,0,.05a.14.14,0,0,0,0,.06l0,.06s0,0,0,0l0,.06,0,.06,0,.05a.14.14,0,0,1,0,.06l0,.06,0,0a.14.14,0,0,0,0,.06l0,.06s0,0,0,0l0,.06,0,.06,0,.05a.14.14,0,0,1,0,.06l0,.06,0,0a.14.14,0,0,0,0,.06l0,.06,0,.06,0,.05,0,.06,0,.06a.08.08,0,0,1,0,0l0,.06,0,.06,0,.05,0,.06,0,.06,0,0,0,.06,0,.06,0,0,0,.06,0,.06a.08.08,0,0,0,0,.05l0,.06s0,0,0,.06l0,.06s0,0,0,0l0,.06a.14.14,0,0,1,0,.06l0,.05,0,.06a.14.14,0,0,0,0,.06l0,0s0,0,0,.06l0,.06s0,0,0,.05l0,.06,0,.06a.08.08,0,0,0,0,0l0,.06a.14.14,0,0,0,0,.06l0,0s0,0,0,.06l0,.06s0,0,0,.05l0,.06,0,.06a.08.08,0,0,0,0,0l0,.06s0,0,0,.06l0,.06s0,0,0,.05l0,.06a.14.14,0,0,1,0,.06l0,0,0,.06a.14.14,0,0,0,0,.06l0,.05,0,.06,0,.06,0,0,0,.06a.14.14,0,0,1,0,.06l0,0,0,.06a.14.14,0,0,0,0,.06l0,.05,0,.06,0,.06,0,.06,0,0a.14.14,0,0,1,0,.06l0,.06,0,.05a.14.14,0,0,0,0,.06l0,.06s0,0,0,0l0,.06,0,.06,0,.05a.14.14,0,0,1,0,.06l0,.06,0,0a.14.14,0,0,0,0,.06l0,.06s0,0,0,0l0,.06,0,.06,0,.05a.14.14,0,0,1,0,.06l0,.06,0,0a.14.14,0,0,0,0,.06l0,.06,0,.06,0,.05,0,.06,0,.06a.08.08,0,0,1,0,0l0,.06,0,.06s0,0,0,.05l0,.06,0,.06,0,0,0,.06,0,.06,0,0,0,.06,0,.06a.08.08,0,0,0,0,.05,19.71,19.71,0,0,0,17.57,11.08h42.59c7.61,0,13.34-.59,18-1.85a50.16,50.16,0,0,0,8.2-2.92,20.39,20.39,0,0,0,13.22,4.77h40.8a19.11,19.11,0,0,0,10.28-3,23,23,0,0,0,3.36-2.59,61.89,61.89,0,0,0,25.2,5.59h4.77c2.81,0,7-.18,12.91-.55a19.24,19.24,0,0,0,7.36-2,20.26,20.26,0,0,0,7.46-6.35,18,18,0,0,0,2.83.22,19,19,0,0,0,5.49-.81,19.13,19.13,0,0,0,14.28,8.64c2,.18,4,.28,5.95.28a64.07,64.07,0,0,0,43.39-17c3.92,7.29,12,10.57,16,12.21.43.17.87.33,1.31.47,10.32,3.32,18.25,4.87,24.95,4.87h3.89c1.63,0,3.89-.07,6.89-.22a19.21,19.21,0,0,0,5.6-1.11c4.76-.44,9.9-2.1,16.25-5.22l.17-.08A41.07,41.07,0,0,0,560,599.6a61.28,61.28,0,0,0,1.29-7c.26-3.17.43-4.51.5-4.95a19.45,19.45,0,0,0,.46-4.17A45.52,45.52,0,0,0,557.89,564l0-.06,0-.06,0,0s0,0,0-.06l0-.06,0,0,0-.06,0-.06a.14.14,0,0,0,0-.06l0,0s0,0,0-.06l0,0s0,0,0-.06l0-.06,0,0,0-.06,0-.06s0,0,0-.06l0,0s0,0,0-.06l0-.06,0-.05,0-.06a.14.14,0,0,1,0-.06l0-.06,0-.05a.14.14,0,0,0,0-.06l0,0s0,0,0-.06l0-.06s0,0,0-.05l0-.06,0-.06a.14.14,0,0,0,0-.06l0-.05a.14.14,0,0,0,0-.06l0-.06,0,0,0-.06,0-.06,0,0a.14.14,0,0,1,0-.06l0-.06,0-.05,0-.06,0-.06,0,0,0-.06a.14.14,0,0,1,0-.06l0,0a.14.14,0,0,1,0-.06l0-.06,0-.06s0,0,0,0l0-.06,0-.06,0-.05a.14.14,0,0,1,0-.06l0-.06a.08.08,0,0,1,0,0l0-.06,0-.06s0,0,0,0l0-.06,0-.06,0-.05a.14.14,0,0,1,0-.06l0-.06,0-.06,0-.05,0-.06s0,0,0,0l0-.06,0-.06,0-.05a.14.14,0,0,1,0-.06l0-.06,0-.06,0-.05,0-.06,0-.06,0,0,0-.06,0-.06,0,0a.14.14,0,0,0,0-.06l0-.06s0,0,0-.05l0-.06,0-.06,0,0s0,0,0-.06l0-.06,0,0,0-.06,0-.06a.14.14,0,0,0,0-.06h0l.31-.4a19.14,19.14,0,0,0,3.76-11.39v-.83a19.71,19.71,0,0,0-.31-3.43c-1.5-8.22-1.95-10.75-2.08-11.53-.45-4.14-.87-7.28-1.27-9.58a30.29,30.29,0,0,0-2-6.78.14.14,0,0,1,0-.06l0,0a.14.14,0,0,1,0-.06l0-.06,0-.05a.14.14,0,0,0,0-.06l0-.06,0,0,0-.06a.14.14,0,0,1,0-.06l0,0a.14.14,0,0,1,0-.06l0-.06,0-.05a.14.14,0,0,0,0-.06l0-.06s0,0,0-.06l0-.05a.14.14,0,0,1,0-.06l0-.06,0-.05,0-.06,0-.06,0,0,0-.06,0-.06,0-.05a.14.14,0,0,1,0-.06l0-.06,0,0a.14.14,0,0,0,0-.06v0h65.51a19.16,19.16,0,0,0,15.56-8,19.13,19.13,0,0,0,15.55,8l55,.54c8.3,0,15.28-5.88,17.84-13.77A19.08,19.08,0,0,0,722,486.3a.14.14,0,0,1,0-.06l0-.06s0,0,0-.05l0-.06,0-.06s0,0,0-.05l0-.06,0-.06,0,0a.14.14,0,0,1,0-.06l0-.06,0-.05a.14.14,0,0,0,0-.06l0-.06a.08.08,0,0,0,0-.05l0-.06a.14.14,0,0,1,0-.06l0-.06a.08.08,0,0,1,0,0l0-.06,0-.06s0,0,0-.05l0-.06a.14.14,0,0,0,0-.06l0-.05a.14.14,0,0,1,0-.06l0-.06s0,0,0-.05l0-.06,0-.06s0,0,0,0l0-.06a.14.14,0,0,0,0-.06l0-.05a.14.14,0,0,1,0-.06l0-.06a.14.14,0,0,1,0-.06l0-.05,0-.06a.14.14,0,0,0,0-.06l0,0a.14.14,0,0,0,0-.06l0-.06s0,0,0-.05l0-.06a.14.14,0,0,1,0-.06l0-.05,0-.06a.14.14,0,0,0,0-.06l0-.05a.14.14,0,0,0,0-.06l0-.06,0,0,0-.06a.14.14,0,0,1,0-.06l0-.05,0-.06a.14.14,0,0,0,0-.06l0-.05a.14.14,0,0,0,0-.06l0-.06a.14.14,0,0,1,0-.06l0,0a.14.14,0,0,1,0-.06l0-.06,0-.05a.14.14,0,0,0,0-.06l0-.06,0-.05,0-.06a.14.14,0,0,1,0-.06l0-.05,0-.06a.14.14,0,0,0,0-.06l0,0a.14.14,0,0,0,0-.06l0-.06,0-.05,0-.06a.14.14,0,0,1,0-.06l0-.06,0-.05a.14.14,0,0,0,0-.06l0-.06,0,0,0-.06,0-.06,0-.05a.14.14,0,0,1,0-.06l0-.06,0-.05a.14.14,0,0,0,0-.06l0-.06s0,0,0-.05l0-.06,0-.06,0,0a.14.14,0,0,1,0-.06l0-.06,0-.05a.14.14,0,0,0,0-.06l0-.06a.14.14,0,0,0,0-.06l0-.05a.14.14,0,0,1,0-.06l0-.06a.08.08,0,0,1,0,0l0-.06,0-.06s0,0,0-.05l0-.06a.14.14,0,0,0,0-.06l0-.05a.14.14,0,0,1,0-.06l0-.06s0,0,0-.05l0-.06,0-.06s0,0,0,0l0-.06a.14.14,0,0,0,0-.06l0-.05a.14.14,0,0,1,0-.06l0-.06a.14.14,0,0,1,0-.06l0-.05,0-.06a.14.14,0,0,0,0-.06l0,0s0,0,0-.06l0-.06a.08.08,0,0,1,0-.05l0-.06a.14.14,0,0,1,0-.06l0-.05,0-.06a.14.14,0,0,0,0-.06l0-.05a.14.14,0,0,0,0-.06l0-.06,0,0,0-.06a.14.14,0,0,1,0-.06l0-.06,0-.05a.14.14,0,0,0,0-.06l0-.06s0,0,0-.05l0-.06a.14.14,0,0,1,0-.06l0,0,0-.06a.14.14,0,0,0,0-.06l0-.05a.14.14,0,0,0,0-.06l0-.06,0-.05,0-.06a.14.14,0,0,1,0-.06l0-.05,0-.06a.14.14,0,0,0,0-.06l0,0a.14.14,0,0,0,0-.06l0-.06s0,0,0-.05l0-.06a.14.14,0,0,1,0-.06l0-.05,0-.06a.14.14,0,0,0,0-.06l0-.06s0,0,0,0l0-.06a.14.14,0,0,1,0-.06l0-.05a.14.14,0,0,1,0-.06l0-.06,0-.05a.14.14,0,0,0,0-.06l0-.06s0,0,0-.05l0-.06a.14.14,0,0,1,0-.06l0,0a.14.14,0,0,1,0-.06l0-.06,0-.06,0-.05,0-.06a.14.14,0,0,0,0-.06l0-.05a.14.14,0,0,1,0-.06l0-.06a.08.08,0,0,1,0,0l0-.06,0-.06s0,0,0-.05l0-.06a.14.14,0,0,0,0-.06l0-.05a.14.14,0,0,1,0-.06l0-.06a.17.17,0,0,1,0-.05l0-.06,0-.06a.08.08,0,0,0,0,0l0-.06a.14.14,0,0,0,0-.06l0-.05a.14.14,0,0,1,0-.06l0-.06a.14.14,0,0,1,0-.06l0-.05,0-.06a.14.14,0,0,0,0-.06l0,0a.14.14,0,0,0,0-.06l0-.06s0,0,0-.05l0-.06a.14.14,0,0,1,0-.06l0-.05,0-.06a.14.14,0,0,0,0-.06l0-.05a.14.14,0,0,0,0-.06l0-.06,0,0,0-.06a.14.14,0,0,1,0-.06l0-.06,0-.05a.14.14,0,0,0,0-.06l0-.06s0,0,0-.05l0-.06a.14.14,0,0,1,0-.06l0,0,0-.06a.14.14,0,0,0,0-.06l0-.05a.14.14,0,0,0,0-.06l0-.06s0,0,0-.05l0-.06a.14.14,0,0,1,0-.06l0-.05,0-.06a.14.14,0,0,0,0-.06l0,0a.14.14,0,0,0,0-.06l0-.06s0,0,0-.05l0-.06a.14.14,0,0,1,0-.06l0-.06,0-.05a.14.14,0,0,0,0-.06l0-.06s0,0,0,0l0-.06a.14.14,0,0,1,0-.06l0-.05a.14.14,0,0,1,0-.06l0-.06,0-.05a.14.14,0,0,0,0-.06l0-.06s0,0,0-.05l0-.06a.14.14,0,0,1,0-.06l0,0a.14.14,0,0,1,0-.06l0-.06,0-.06,0-.05,0-.06a.14.14,0,0,0,0-.06l0-.05a.14.14,0,0,1,0-.06l0-.06s0,0,0,0l0-.06,0-.06s0,0,0-.05l0-.06a.14.14,0,0,0,0-.06l0-.05a.14.14,0,0,1,0-.06l0-.06a.17.17,0,0,1,0-.05l0-.06,0-.06a.14.14,0,0,0,0-.06l0,0a.14.14,0,0,0,0-.06l0-.05a.14.14,0,0,1,0-.06l0-.06a.14.14,0,0,1,0-.06l0-.05,0-.06a.14.14,0,0,0,0-.06l0,0a.14.14,0,0,0,0-.06l0-.06s0,0,0-.05l0-.06a.14.14,0,0,1,0-.06l0-.05,0-.06a.14.14,0,0,0,0-.06l0-.05s0,0,0-.06l0-.06,0,0,0-.06,0-.06a.08.08,0,0,0,0-.05l0-.06a.14.14,0,0,0,0-.06l0-.06,0-.05,0-.06a.14.14,0,0,1,0-.06l0,0,0-.06a.14.14,0,0,0,0-.06l0-.05a.14.14,0,0,0,0-.06l0-.06,0-.05,0-.06a.14.14,0,0,1,0-.06l0-.05,0-.06a.14.14,0,0,0,0-.06l0-.06,0,0,0-.06a.14.14,0,0,1,0-.06l0-.05a.14.14,0,0,1,0-.06l0-.06,0-.05a.14.14,0,0,0,0-.06l0-.06s0,0,0,0l0-.06a.14.14,0,0,1,0-.06l0-.05a.14.14,0,0,1,0-.06l0-.06,0-.05a.14.14,0,0,0,0-.06l0-.06a.08.08,0,0,0,0-.05l0-.06a.14.14,0,0,1,0-.06l0,0a.14.14,0,0,1,0-.06l0-.06,0-.06,0-.05,0-.06a.14.14,0,0,0,0-.06l0-.05a.14.14,0,0,1,0-.06l0-.06s0,0,0,0l0-.06,0-.06s0,0,0-.05l0-.06s0,0,0-.06l0-.05a.14.14,0,0,1,0-.06l0-.06a.17.17,0,0,1,0-.05l0-.06,0-.06a.14.14,0,0,0,0-.06l0,0a.14.14,0,0,0,0-.06l0-.05a.14.14,0,0,1,0-.06l0-.06a.14.14,0,0,1,0-.06l0-.05,0-.06a.14.14,0,0,0,0-.06l0,0a.14.14,0,0,0,0-.06l0-.06s0,0,0-.05l0-.06a.14.14,0,0,1,0-.06l0-.05,0-.06a.14.14,0,0,0,0-.06l0-.05s0,0,0-.06l0-.06,0,0,0-.06,0-.06a.14.14,0,0,0,0-.06l0-.05a.14.14,0,0,0,0-.06l0-.06s0,0,0-.05l0-.06a.14.14,0,0,1,0-.06l0,0,0-.06a.14.14,0,0,0,0-.06l0-.05a.14.14,0,0,0,0-.06l0-.06a18.89,18.89,0,0,0-2.41-4.2V419.77a19.12,19.12,0,0,0,6.6,1.18,18.9,18.9,0,0,0,4.92-.65,19.12,19.12,0,0,0,14.22-18.49v-38A19.06,19.06,0,0,0,733,356.36Zm-255.14,6.29-1.51-2.53h2C478.23,361,478.06,361.81,477.89,362.65Z"/></g><g id="Outline"><path class="cls-4" d="M704.66,320.79H637.81c-5.22,0-7-.05-7.62-.08a19.32,19.32,0,0,0-2-.1,18.78,18.78,0,0,0-3.75.37H563.52a19.12,19.12,0,0,0,.61-4.79v-.72a19.12,19.12,0,0,0-2.89-10.11l-.27-.44a19,19,0,0,0-16.18-9,6.56,6.56,0,0,1-1.38-.33,15.42,15.42,0,0,1-.83-1.31c-.23-.41-.48-.81-.74-1.2q-1.68-2.51-3-4.48c5-7,7.37-16.19,7.37-28,0-7-2-17.44-11.55-27.79a19,19,0,0,0-1.64-1.59c-9.28-7.92-19.33-11.94-29.89-11.94H461.34a19.18,19.18,0,0,0-6.72,1.23,19.67,19.67,0,0,0-6.87-1.28H392.53a19.21,19.21,0,0,0-8.52,2,21.5,21.5,0,0,0-2.7,1.63,54.93,54.93,0,0,0-7.72-2.15h0a29.9,29.9,0,0,0-5-.73c-2-.13-4.67-.23-8.3-.31-6.66-.15-16.67-.22-29.76-.22l-1.52-.09-1,0a19.36,19.36,0,0,0-4.91.66,21.4,21.4,0,0,0-3-.62,19.33,19.33,0,0,0-2.4-.15H293.29a20.57,20.57,0,0,0-7.9,1.55,19.41,19.41,0,0,0-7.53-1.55H246.4a19,19,0,0,0-7.56,1.56l-.1,0a20.22,20.22,0,0,0-2,.81,19.09,19.09,0,0,0-4.09-.48,45.11,45.11,0,0,0-4.66.32c-7.66-1.55-13-2.24-17.08-2.24h-2.36c-.48,0-1,0-1.44,0a61.89,61.89,0,0,0-14.88,2.85c-.45.15-.89.31-1.32.5-16.16,6.75-25.43,20.25-25.43,37v2a40.23,40.23,0,0,0,2.64,14.58l-.08.07a19.16,19.16,0,0,0-5.13,18c.62,2.63,1.66,7.91,3.09,18.15a18.73,18.73,0,0,0,2.51,7.9l-4.94-.09a19.06,19.06,0,0,0-5.24.74h-42a19.09,19.09,0,0,0-14.64,6.81,19.09,19.09,0,0,0-12.21-4.41h-.19a19.1,19.1,0,0,0-13.79,6.07,19.14,19.14,0,0,0-16-8.67c-.43,0-1.8,0-4.14.1-1.72.06-3.91.09-6.51.09H19.14A19.13,19.13,0,0,0,6.52,354.5a6.11,6.11,0,0,1,.67.76l.23.27c0,.09.15.26.27.5a11.87,11.87,0,0,1,.77,2c.28,1.11,2.47,10,2.47,10,1.41,5.69,3.07,12.29,5,19.59,1.92,7.5,3.89,15.45,5.86,23.62q3.06,12.73,5.76,23.7c1.75,7.14,3.17,13.26,4.21,18.2l.33,1.56a19.13,19.13,0,0,0,11.73,34.25h43a18.87,18.87,0,0,0,3.7-.36,19,19,0,0,0,3.71.36h42.59a18.55,18.55,0,0,0,4-.43,19,19,0,0,0,4,.44h24.15a20.74,20.74,0,0,0-1.54,7.89v.64a19.57,19.57,0,0,0,9,16.42v55.11a20.1,20.1,0,0,0-8.85,16.7c0,.33,0,.66,0,1,.66,12.57,10.6,19.36,19.63,19.36h42.58c7.62,0,13.35-.59,18-1.85a49.37,49.37,0,0,0,8.21-2.93A20.3,20.3,0,0,0,269.15,606H310a19.14,19.14,0,0,0,10.28-3,22.41,22.41,0,0,0,3.35-2.59,61.93,61.93,0,0,0,25.2,5.59h4.77c2.82,0,7-.18,12.92-.55a19.29,19.29,0,0,0,7.36-2,20.32,20.32,0,0,0,7.45-6.35,19.3,19.3,0,0,0,2.84.22,19.06,19.06,0,0,0,5.49-.81,19.09,19.09,0,0,0,14.27,8.64c2,.18,4,.28,5.95.28a64.12,64.12,0,0,0,43.4-17c3.91,7.29,12,10.57,16,12.21.43.17.86.33,1.3.47,10.33,3.32,18.26,4.87,25,4.87h3.88c1.64,0,3.89-.07,6.9-.22a19.21,19.21,0,0,0,5.6-1.11c4.76-.44,9.89-2.1,16.25-5.22l.17-.08a41.14,41.14,0,0,0,20.89-23.68,19.59,19.59,0,0,0,1-4.81,19.17,19.17,0,0,0,.3-2.15c.27-3.17.44-4.51.5-5a18.83,18.83,0,0,0,.46-4.17A45.27,45.27,0,0,0,544.3,535c.22-.26.44-.54.65-.83a19.14,19.14,0,0,0,3.76-11.39V522a18.78,18.78,0,0,0-.31-3.43c-1.5-8.23-1.94-10.75-2.07-11.53-.46-4.14-.87-7.28-1.27-9.58a28.57,28.57,0,0,0-2.81-8.56h65.56a19.13,19.13,0,0,0,15.55-8,19.15,19.15,0,0,0,15.56,8h54.63a19.14,19.14,0,0,0,11.23-34.63,24.43,24.43,0,0,1-4-3.73,19.37,19.37,0,0,1-2.23-3.8,7.35,7.35,0,0,1-.46-2.91v-48a19.14,19.14,0,0,0,25.74-18v-38A19.13,19.13,0,0,0,704.66,320.79Zm-329.61,103a19.19,19.19,0,0,0-3.64.35V393.51a19,19,0,0,0,5-1.8v32.12C376,423.79,375.52,423.75,375.05,423.75Zm98.49-76.88,5.1,12c-.25,1.28-.5,2.53-.75,3.79L462.1,336.2h10.18A19.23,19.23,0,0,0,473.54,346.87Zm-96.93-42.65.17,0-.1.14S376.64,304.25,376.61,304.22Zm-66.12,21.43a20.67,20.67,0,0,0,12.71,9.82L312.46,347l-9.7-16.26A40.67,40.67,0,0,0,310.49,325.65ZM446.26,488.88H464a39.83,39.83,0,0,0-7.42,8.88A64.47,64.47,0,0,0,446.26,488.88Zm185.37-41a29.8,29.8,0,0,1-2.3,3.95,30.36,30.36,0,0,1-3.54,4,18.7,18.7,0,0,0-2.43,2.77,18.46,18.46,0,0,0-3.21-3.47,31.08,31.08,0,0,1-5.06-5.42V431.85a19.57,19.57,0,0,0,4.57.55,19.18,19.18,0,0,0,12-4.21Z"/></g><g id="Super_Warcraft_Bros" data-name="Super Warcraft Bros"><g id="Bros"><path class="cls-5" d="M260.15,560.43v-.51a25.29,25.29,0,0,0-2.35-9.67q-7.06-12.11-18.59-12.1h-2v-.38a20.38,20.38,0,0,0,2.93-.51q5-1.21,9.55-6.3,4.77-6.81,5.28-13.12a24.51,24.51,0,0,0-1.21-8.34q-5.67-13.94-26.1-13.94h-40a1.07,1.07,0,0,0-1.21,1.21v.64q0,.82,6,1.59,3,.83,3.05,3.56v78.18c0,1.65-1.69,2.78-5.09,3.37q-3.75,0-3.75,1.53c0,.81.21,1.21.5,1.21h42.59q8.73,0,13.12-1.21,17.31-4.46,17.31-22.79v-1l.19-.89C260.21,560.94,260.15,560.77,260.15,560.43Zm-43.73-59.9.19-.39c1.19,0,3,0,5.41-.12a11.89,11.89,0,0,1,6.3,2,19.49,19.49,0,0,1,7.2,15.28,31.49,31.49,0,0,1-2.42,12.1q-3.45,6.5-8,6.49h-8.65Zm20.75,74.54q-3.24,6.69-12.1,6.69-8.65-1.47-8.65-5V541.21h2.23a50.91,50.91,0,0,1,6.11.31q15,3.63,15,20.44Q239.72,570.17,237.17,575.07Z"/><path class="cls-5" d="M354.9,582.27q-6.24-2.17-11.2-10.89-13-19.35-13-22.28a40,40,0,0,0,8-6q6.3-6.06,6.3-21.78,0-9-7.51-17.18-10-8.54-20.24-8.53H268.77c-.42.29-.63.53-.63.7v.82c0,.51,1.23,1,3.69,1.4q6.17,1.35,6.17,4.78v76.2q0,3.24-5.66,4.26-4.39.26-4.4,1.85a1.07,1.07,0,0,0,1.21,1.21H310c.46-.3.7-.53.7-.7v-.64l-.19-.89a38.34,38.34,0,0,0-6.43-1.34,3.88,3.88,0,0,1-2.74-4.07v-1.53a2.73,2.73,0,0,1,.19-1.4,11.41,11.41,0,0,1-.19-1.84v-6.82q0-6,.19-11.07-.19-1.41-.19-9.36v-.51h.83a12.5,12.5,0,0,1,6.17,3.57l9.17,17.06q6.11,12,12.1,14.76a43.58,43.58,0,0,0,19.22,4.78h4.77q3.57,0,11.72-.51.51-.26.51-.51V585l-.32-.51A30.22,30.22,0,0,1,354.9,582.27Zm-33-52.59q-3.12,11.6-10.18,11.59h-2.74q-7.44-1.14-7.45-5.29V500.72h2.17l.89-.13c0,.09,0,.13.12.13l.9-.13.31.13a6.78,6.78,0,0,0,.7-.13,1.35,1.35,0,0,1,.51.13,1.38,1.38,0,0,1,.64-.13l1.08.13.32-.13q1.78,0,5.6,2a23,23,0,0,1,8.15,18.2A36.31,36.31,0,0,1,321.86,529.68Z"/><path class="cls-5" d="M506.41,529.81q-23.18-7.2-23.18-16.68v-1.21a10.57,10.57,0,0,1,3.06-7.19q4.2-3.18,6.81-3.18l.38.12,4.78-.63a27.85,27.85,0,0,1,8.34,1.14A37.68,37.68,0,0,1,526,519.94c.89,2.47,1.57,3.7,2,3.7a5.35,5.35,0,0,0,1.53-.83V522q-2.24-12.22-2.23-12.48-1.27-11.72-2-11.71t-5.6.51h-1.4q-12.93-2.73-18.21-2.74a3.18,3.18,0,0,1-.7.19c0-.12-.17-.19-.51-.19h-.12l-.39.19c0-.12,0-.19-.12-.19h-.89a49.41,49.41,0,0,0-11.91,2.23q-15.85,6.61-15.85,22.47v2.36q0,12.21,10.57,20.3a77.36,77.36,0,0,0,8.53,5.29,126.85,126.85,0,0,1,15.66,7.45q9.36,7,9.36,13.11a11.61,11.61,0,0,1-2.23,7.32q-2.67,3.38-9.17,4.78v-.13l-3.76.51q-8.4,0-18.07-8.34-7.51-7.57-10.38-13.63a30.09,30.09,0,0,0-2.23-4.64h-.51a2,2,0,0,0-1.34.7q1.84,7.83,4.08,23.87c0,.76,2.1,2,6.3,3.69q12.29,3.95,19.1,4h3.88c1.32,0,3.31-.07,6-.19,0-.09.06-.13.19-.13,0-.17,1.25-.47,3.75-.89q3.51,0,10.38-3.37a21.94,21.94,0,0,0,11.39-12.8l-.19-.32c.17-1.36.34-2,.51-2a64.33,64.33,0,0,1,.89-7.52Q532.31,539.62,506.41,529.81Z"/><g id="Smash_Ball" data-name="Smash Ball"><path id="Bottom_Right_Y_" data-name="Bottom Right (Y)" class="cls-6" d="M405.66,586.1c1.38.13,2.77.2,4.18.2A44.83,44.83,0,0,0,450.68,560h-45Z"/><path id="Bottom_Left_G_" data-name="Bottom Left (G)" class="cls-7" d="M369,560a45,45,0,0,0,15.13,18.2V560Z"/><path id="Top_Left_B_" data-name="Top Left (B)" class="cls-8" d="M384.13,504.71A44.79,44.79,0,0,0,365,541.45a45.43,45.43,0,0,0,1.17,10.17h18Z"/><path id="Top_Right_R_" data-name="Top Right (R)" class="cls-9" d="M453.52,551.62a44.8,44.8,0,0,0-43.68-55c-1.41,0-2.8.07-4.18.2v54.82Z"/></g></g><g id="Warcraft"><path class="cls-10" d="M148.12,358.45a29.27,29.27,0,0,1,2.31-6.48q2-3,3.7-5.19a35.86,35.86,0,0,1,3.15-3.7,22,22,0,0,1,3.15-3H116.36a5.9,5.9,0,0,1,2.22,1.66,7.5,7.5,0,0,1,1.57,2.5,10.39,10.39,0,0,1,.65,4,13.09,13.09,0,0,1-.18,2.41q-.37,1.66-.93,5.37t-1.29,8.89q-.75,5.19-1.67,11.11t-1.85,12q-2,14.25-4.63,31.29L89.51,342.52,69.88,421.41q-4.08-18.53-7.22-33.89-1.48-6.48-2.78-12.87T57.56,363c-.68-3.51-1.23-6.54-1.66-9.07s-.71-4.17-.84-4.91v-1.11a8.78,8.78,0,0,1,.65-3.52,7.76,7.76,0,0,1,1.58-2.4,11.51,11.51,0,0,1,2.22-2L56,340c-2,.07-4.35.1-7.13.1H19.14a24.45,24.45,0,0,1,3,3.14,20.47,20.47,0,0,1,2.6,4,32.3,32.3,0,0,1,2.22,5.65q.55,2.22,2.59,10.46t4.91,19.45q2.86,11.2,5.92,23.89t5.74,23.61q2.69,10.92,4.36,18.79a76.37,76.37,0,0,1,1.66,9.35,7.71,7.71,0,0,1-1.39,4.45,23.88,23.88,0,0,1-2.87,3.52,26.86,26.86,0,0,1-4.07,3.33h43a6.27,6.27,0,0,1-1.67-1.48,7.56,7.56,0,0,1-1.2-2.32,11.61,11.61,0,0,1-.46-3.61v-.92q.18-2.42,1.29-9T87.29,439q1.67-8,3.51-17.41,1.86,10,3.52,18.33c.49,2.35,1,4.7,1.39,7s.83,4.54,1.2,6.58.65,3.76.84,5.18.28,2.38.28,2.87a10,10,0,0,1-.65,3.8,10.75,10.75,0,0,1-1.39,2.5,6.65,6.65,0,0,1-1.85,1.85h42.59a12.56,12.56,0,0,1-3.34-3,13.67,13.67,0,0,1-2.22-3.71,12.81,12.81,0,0,1-.92-5q0-1.29.64-6.29t1.76-12.32q1.11-7.31,2.6-16.2t3.14-18.15q1.68-9.25,3.43-18.15t3.33-16.2Q146.72,363.46,148.12,358.45Z"/><path class="cls-11" d="M307.55,463.17a40,40,0,0,1-3.33-8.43,55.31,55.31,0,0,1-1.67-9.07q-.46-4.64-.46-8.89c0-2,0-3.8.09-5.47s.16-3.11.28-4.35a38.35,38.35,0,0,1,.55-3.89l-17.22-10.18,28.89-24.81-29.07-48.71H223.2L239.5,356v93a20.42,20.42,0,0,1-1.48,7.59,42.76,42.76,0,0,1-3.33,6.67l-.8,1.24a72.73,72.73,0,0,1-2.82-6.89q-2.87-8.06-5.09-16.39-2.59-9.63-5-20.37l15-5.92-3.14-14.08-16.12,5q-3-10.92-5.55-20.18c-.74-2.59-1.48-5.25-2.22-8s-1.46-5.25-2.13-7.6-1.27-4.47-1.76-6.39-.87-3.36-1.11-4.35a19.31,19.31,0,0,1-.74-3.61A34.43,34.43,0,0,1,203,352c0-1.49.06-2.93.19-4.36a28.42,28.42,0,0,1,.55-3.79c.25-1.36.49-2.59.74-3.7l-40.92-.75L171,356.78q-5.19,26.3-9.26,47.41-1.66,9.07-3.43,17.87t-3.15,16.11q-1.38,7.31-2.22,12.22t-1,6.2a18.9,18.9,0,0,1-3,7.87,28.52,28.52,0,0,1-4.17,5.28h40.18a20.63,20.63,0,0,0-2.77-2.5,62.14,62.14,0,0,1-8.15-9.35,13.36,13.36,0,0,1-.19-2.59,17.54,17.54,0,0,1,4.08-11.58,39.84,39.84,0,0,1,8.89-8.05,68.75,68.75,0,0,1,13.14-6.49q1.11,6.12,2,11.49c.49,3.08,1,6.14,1.39,9.16a53.34,53.34,0,0,1,.65,6.76,10.22,10.22,0,0,1-1.11,4.63q-1.12,2.22-2.41,4.26a37.1,37.1,0,0,1-3.33,4.26h74.62a28.36,28.36,0,0,1-4.26-4.45,23.28,23.28,0,0,1-3-4.72,13.11,13.11,0,0,1-1.3-5.83q0-3.15-.09-8.15c-.06-3.33-.16-6.6-.28-9.81q-.18-5.75-.18-11.85l13.88,10.74c0,2,.07,3.95.19,5.92.12,1.73.21,3.61.28,5.65s.09,4.11.09,6.2a13.45,13.45,0,0,0,1.48,6.11,22.43,22.43,0,0,0,3.52,5.19,23.93,23.93,0,0,0,5,5H313.2A19.42,19.42,0,0,1,307.55,463.17ZM179.87,422.33l7.23-37.4,9.07,26.85Zm82.78-21.85V365.67h8.7L284.5,384Z"/><polygon class="cls-12" points="358.38 361.6 367.64 374.74 385.23 362.89 354.12 330.3 325.05 361.6 325.05 460.3 355.6 493.26 382.82 468.81 375.05 442.89 357.83 461.59 352.27 454.37 352.27 369.74 358.38 361.6"/><path class="cls-13" d="M441.71,339.37H379.3L395.6,356v93a20.42,20.42,0,0,1-1.48,7.59,42.76,42.76,0,0,1-3.33,6.67,47.67,47.67,0,0,1-4.82,6.48h41.85a28.36,28.36,0,0,1-4.26-4.45,23.28,23.28,0,0,1-3-4.72,13.11,13.11,0,0,1-1.3-5.83q0-3.15-.09-8.15c-.06-3.33-.16-6.6-.28-9.81q-.18-5.75-.18-11.85l13.88,10.74c0,2,.07,3.95.19,5.92.12,1.73.21,3.61.28,5.65s.09,4.11.09,6.2a13.45,13.45,0,0,0,1.48,6.11,22.43,22.43,0,0,0,3.52,5.19,23.93,23.93,0,0,0,5,5H469.3a19.42,19.42,0,0,1-5.65-6.57,40,40,0,0,1-3.33-8.43,55.31,55.31,0,0,1-1.67-9.07q-.47-4.64-.46-8.89c0-2,0-3.8.09-5.47s.16-3.11.28-4.35a35.68,35.68,0,0,1,.56-3.89l-17.23-10.18,28.89-24.81Zm-23,61.11V365.67h8.7L440.6,384Z"/><path class="cls-14" d="M637.81,339.93q-8.52,0-9.63-.19c0,.13,0,.25,0,.38H555.59q3.33,5,6.76,9.35t7.13,9.72q.18,23.52.55,43,0,8.33.1,16.39t.18,14.81q.09,6.76.19,11.58t.09,6.29a11.34,11.34,0,0,1-2.32,6.48,43.19,43.19,0,0,1-4.9,5.93c-.52.52-1,1-1.59,1.52a69.73,69.73,0,0,1-3.13-7.54q-2.88-8.06-5.1-16.39-2.59-9.63-5-20.37l15-5.92-3.14-14.08-16.12,5q-3-10.92-5.55-20.18c-.74-2.59-1.48-5.25-2.22-8s-1.46-5.25-2.13-7.6-1.27-4.47-1.76-6.39-.87-3.36-1.11-4.35a19.31,19.31,0,0,1-.74-3.61,34.43,34.43,0,0,1-.19-3.79c0-1.49.06-2.93.19-4.36a28.42,28.42,0,0,1,.55-3.79c.25-1.36.49-2.59.74-3.7l-40.92-.75,7.41,17.41q-5.19,26.3-9.26,47.41-1.67,9.07-3.43,17.87t-3.15,16.11q-1.38,7.31-2.22,12.22c-.55,3.27-.9,5.34-1,6.2a18.9,18.9,0,0,1-3.05,7.87,28.52,28.52,0,0,1-4.17,5.28h40.18a19.77,19.77,0,0,0-2.77-2.5,62.14,62.14,0,0,1-8.15-9.35,13.36,13.36,0,0,1-.19-2.59,17.54,17.54,0,0,1,4.08-11.58,39.84,39.84,0,0,1,8.89-8.05,68.75,68.75,0,0,1,13.14-6.49q1.11,6.12,2,11.49c.49,3.08.95,6.14,1.39,9.16a53.34,53.34,0,0,1,.65,6.76,10.22,10.22,0,0,1-1.11,4.63,48.86,48.86,0,0,1-2.41,4.26,37.1,37.1,0,0,1-3.33,4.26h83.14a49.61,49.61,0,0,1-8.33-9A16.62,16.62,0,0,1,596,451v-42.6h18.88l4.82,4.82v-23.7H596V359.19h26.29l5.74,16.1v2.6c.18-.37.37-.7.56-1l1.29,3.63,0-5.68a15.32,15.32,0,0,1,2.8-3,20.57,20.57,0,0,1,5.84-3.33,23.88,23.88,0,0,1,5.92-1.39c1.91-.19,3.43-.28,4.54-.28h1.85v81.66a17.42,17.42,0,0,1-1.85,7.69,49.32,49.32,0,0,1-4.08,6.94,49.89,49.89,0,0,1-5.92,6.67h54.63a42.86,42.86,0,0,1-7.41-6.85,36.64,36.64,0,0,1-5-8.15,25.81,25.81,0,0,1-2.22-10.93v-77h2.77a26.71,26.71,0,0,1,5.56.74,40.26,40.26,0,0,1,6.67,2.13,31.61,31.61,0,0,1,6.29,3.52,15.17,15.17,0,0,1,4.45,4.72v-38Zm-130.37,82.4,7.23-37.4,9.07,26.85Z"/></g><g id="Super"><path class="cls-5" d="M190.5,313.66q10.59,3.4,16.47,3.41h3.35c1.13,0,2.85-.06,5.16-.17,0-.07.05-.11.16-.11,0-.15,1.08-.4,3.24-.77,2,0,5-1,9-2.91a18.9,18.9,0,0,0,9.82-11l-.16-.28c.14-1.17.29-1.75.44-1.75a53.35,53.35,0,0,1,.77-6.48q0-17.24-22.35-25.69-20-6.21-20-14.38v-1.05a9.11,9.11,0,0,1,2.64-6.2q3.62-2.75,5.87-2.75l.33.11,4.12-.55a23.9,23.9,0,0,1,7.19,1,32.48,32.48,0,0,1,16.74,15.32c.77,2.12,1.36,3.18,1.76,3.18a4.35,4.35,0,0,0,1.32-.71v-.71c-1.29-7-1.92-10.62-1.92-10.76-.74-6.74-1.32-10.11-1.76-10.11s-2,.15-4.83.44h-1.21q-11.15-2.35-15.7-2.36a3.3,3.3,0,0,1-.6.17c0-.11-.15-.17-.44-.17h-.11l-.33.17c0-.11,0-.17-.11-.17h-.77a43.57,43.57,0,0,0-10.27,1.92q-13.66,5.72-13.67,19.38v2q0,10.54,9.12,17.52a67.12,67.12,0,0,0,7.35,4.55,110.37,110.37,0,0,1,13.51,6.43q8.07,6,8.07,11.3a10,10,0,0,1-1.92,6.32q-2.31,2.91-7.91,4.11v-.1l-3.24.43q-7.24,0-15.59-7.19-6.48-6.53-8.95-11.75a25.18,25.18,0,0,0-1.92-4h-.44a1.71,1.71,0,0,0-1.15.6q1.59,6.75,3.51,20.59Q185.06,311.47,190.5,313.66Z"/><path class="cls-5" d="M247.89,241.14l.33-.16c2.92.62,4.39,1.79,4.39,3.51v18.94q0,9.94.11,27.06a48.22,48.22,0,0,0,.77,5.28q1.69,8.84,6.47,13.94a24.65,24.65,0,0,0,12.74,6.92l.33-.17c0,.18,1.22.39,3.68.61l.27-.17a.15.15,0,0,0,.17.17h3.62l.77-.17c0,.11,0,.17.16.17a36.37,36.37,0,0,0,5.55-.88A25.84,25.84,0,0,0,299,310.31q10.26-8.24,10.26-27.89V248.61q0-5.22,6.81-7.8c1.64-.14,2.47-.62,2.47-1.42v-.61c0-.22-.3-.36-.88-.44H293.29a.93.93,0,0,0-1.05,1v.27l.44.6A27.69,27.69,0,0,1,298,242q4.46,3.07,4.45,6,.11,20.64.11,32.28v1.48q0,8.73-1.59,13.23-4.62,13.79-16,13.78-8.56,0-11.86-9.55-2.2-3.4-2.2-22.62V244.93l.11-1.43c.44-1.13,1.58-2,3.41-2.52,2.63,0,3.95-.53,3.95-1.59-.11-.7-.26-1-.44-1H246.4l-.27.17-1.32.44v1.15C244.92,240.47,246,240.81,247.89,241.14Z"/><path class="cls-5" d="M328.88,317.07H360a.93.93,0,0,0,1-.61v-1c0-.4-.38-.6-1.15-.6-4.39-.48-6.59-1.7-6.59-3.68V284.62q7.31,1.92,10.11,1.92,26,0,26-25.63,0-12.47-11-18.67a37.56,37.56,0,0,0-8.51-2.8q0-.87-39.8-.88l-2-.11c-.58.3-.88.53-.88.72v1c0,.18.09.27.28.27q.21.28,5.16,1.32c1.64.48,2.47,2,2.47,4.56v64.12c0,2-1.32,3.36-3.95,3.95-2.64,0-4,.49-4,1.48v.28A1.86,1.86,0,0,0,328.88,317.07Zm24.37-74.5c.44,0,1.91,0,4.4.11q6,0,8.61,3.51a24.52,24.52,0,0,1,4.89,15v1.92q0,9.45-4.28,15.37-3.18,3-5.88,3h-1.15a22.88,22.88,0,0,1-4.39-.77,3.14,3.14,0,0,1-2.2-3.35Z"/><path class="cls-5" d="M394.89,314.7c-2,0-3,.5-3,1.49,0,.58.35.88,1.05.88h56.54a1.52,1.52,0,0,0,1-.44q1.37-10.61,4.11-24.1c-.21-.37-.4-.55-.54-.55h-.88l-.33.11c-2.16,4.13-4.12,7.56-5.88,10.26a25.26,25.26,0,0,1-5,5.44q-4.39,4.72-12.74,4.72h-1a6.35,6.35,0,0,0-1.32.16l-5.32-.44q-3.52-1.1-3.52-3.4V278.14c0-.29.94-.49,2.8-.6a22.36,22.36,0,0,0,2.36.16q6.38,0,8.68,3.24a40,40,0,0,1,5,8.35c.7,2.56,1.32,3.84,1.87,3.84.77,0,1.26-.49,1.48-1.48V258.16c0-.25-.49-.46-1.48-.6h-.11c-.4,0-.9,1.08-1.48,3.24a33,33,0,0,1-4.72,8.83q-2.87,5-12.3,5h-1.48c-.4-.26-.61-.46-.61-.6V243.61c0-.66,1.08-1,3.24-1a1.74,1.74,0,0,0,.61.11l1-.11a10,10,0,0,0,1.32.11,1.74,1.74,0,0,0,.71-.11l.88.11h2.8l.27-.11v.11l3.52.16,3.13,1q7.41,3.51,11.74,12.74,2,5.32,2.31,5.43a2.14,2.14,0,0,0,1.48-.54q0-3.07-1.92-16.31-.27-6.91-1.43-6.92H392.53c-.3.15-.44.3-.44.44v1.05a.81.81,0,0,0,.71.54l3.24.77q3.79.83,3.79,3.52v66.7Q399.83,313.78,394.89,314.7Z"/><path class="cls-5" d="M464.41,314.43c-2.53.15-3.79.68-3.79,1.59a.93.93,0,0,0,1,1.05h35.19c.4-.26.61-.46.61-.61v-.55l-.17-.77a32.2,32.2,0,0,0-5.54-1.15,3.35,3.35,0,0,1-2.36-3.51v-1.32a2.38,2.38,0,0,1,.16-1.21,10.06,10.06,0,0,1-.16-1.59v-5.87c0-3.48.05-6.66.16-9.56q-.17-1.2-.16-8.07v-.44h.71a10.93,10.93,0,0,1,5.33,3.08l7.9,14.71q5.26,10.38,10.43,12.74a37.77,37.77,0,0,0,16.58,4.12h4.12c2,0,5.41-.15,10.1-.44.29-.15.44-.3.44-.44v-.72l-.28-.44a26,26,0,0,1-9.11-1.92q-5.39-1.86-9.66-9.38-11.21-16.69-11.2-19.22a34.44,34.44,0,0,0,6.92-5.16q5.43-5.22,5.43-18.77,0-7.8-6.48-14.83-8.61-7.35-17.45-7.35H461.33c-.36.25-.54.46-.54.6v.72q0,.66,3.18,1.2,5.32,1.16,5.32,4.12v65.71C469.29,312.62,467.66,313.84,464.41,314.43Zm25.14-71.64h1.87l.77-.11a.1.1,0,0,0,.11.11l.76-.11.28.11.6-.11a1.33,1.33,0,0,1,.44.11,1.28,1.28,0,0,1,.55-.11l.93.11.28-.11a12.2,12.2,0,0,1,4.83,1.76,19.83,19.83,0,0,1,7,15.7,31.7,31.7,0,0,1-.88,7.63q-2.7,10-8.78,10H496q-6.42-1-6.42-4.56Z"/></g></g></symbol></defs><title>Desktop</title><rect class="cls-15" width="1920" height="1080"/><use width="734.56" height="758.05" transform="translate(591.44 139.41)" xlink:href="#SWB_Logo"/></svg>