<svg xmlns="http://www.w3.org/2000/svg" xmlns:xlink="http://www.w3.org/1999/xlink" viewBox="0 0 818 707.03"><defs><style>.cls-1{fill:url(#linear-gradient);}.cls-2{fill:#2a2a2a;}.cls-3{fill:#fcfcfc;}.cls-4{fill:url(#linear-gradient-2);}.cls-5{fill:url(#linear-gradient-3);}.cls-6{fill:url(#linear-gradient-4);}.cls-7{fill:url(#linear-gradient-5);}.cls-8{fill:url(#linear-gradient-6);}.cls-9{fill:url(#linear-gradient-7);}.cls-10{fill:url(#linear-gradient-8);}.cls-11{fill:url(#linear-gradient-9);}.cls-12{fill:url(#linear-gradient-10);}</style><linearGradient id="linear-gradient" x1="358.25" y1="714.67" x2="385.63" y2="462.76" gradientUnits="userSpaceOnUse"><stop offset="0" stop-color="#623aa2"/><stop offset="1" stop-color="#f97794"/></linearGradient><linearGradient id="linear-gradient-2" x1="480.24" y1="655.97" x2="476.98" y2="639.05" gradientUnits="userSpaceOnUse"><stop offset="0" stop-color="#f8d800"/><stop offset="0.98" stop-color="#fdeb71"/></linearGradient><linearGradient id="linear-gradient-3" x1="403.12" y1="648.51" x2="432.4" y2="621.83" gradientUnits="userSpaceOnUse"><stop offset="0" stop-color="#3cd500"/><stop offset="0.98" stop-color="#fff720"/></linearGradient><linearGradient id="linear-gradient-4" x1="429.94" y1="562.71" x2="413.7" y2="616.09" gradientUnits="userSpaceOnUse"><stop offset="0" stop-color="#0396ff"/><stop offset="0.98" stop-color="#abdcff"/></linearGradient><linearGradient id="linear-gradient-5" x1="488.14" y1="551.72" x2="465.36" y2="626.56" gradientUnits="userSpaceOnUse"><stop offset="0" stop-color="#ea5455"/><stop offset="0.98" stop-color="#feb692"/></linearGradient><linearGradient id="linear-gradient-6" x1="116.02" y1="665.72" x2="96.49" y2="316.25" gradientUnits="userSpaceOnUse"><stop offset="0" stop-color="#fcff00"/><stop offset="0.98" stop-color="#ffa8a8"/></linearGradient><linearGradient id="linear-gradient-7" x1="265.82" y1="657.35" x2="246.29" y2="307.88" xlink:href="#linear-gradient-6"/><linearGradient id="linear-gradient-8" x1="406.16" y1="649.51" x2="386.64" y2="300.04" xlink:href="#linear-gradient-6"/><linearGradient id="linear-gradient-9" x1="486.39" y1="645.03" x2="466.87" y2="295.56" xlink:href="#linear-gradient-6"/><linearGradient id="linear-gradient-10" x1="665.59" y1="635.02" x2="646.07" y2="285.55" xlink:href="#linear-gradient-6"/></defs><title>Guild Only</title><g id="Layer_2" data-name="Layer 2"><g id="Layer_1-2" data-name="Layer 1"><path class="cls-1" d="M689.92,325.25l-.51,16.42c-1.81,18.38-8.43,50.36-31.3,86.38A256.33,256.33,0,0,0,663,297.52C629.46,147.75,464,29.35,254.27,4.74,229.25.45,214.48,0,214.48,0c.53.44,1,.89,1.55,1.33,87.58,74.46,97.88,152.54,83.77,208.09a156.76,156.76,0,0,1-22.17,49.88s7.45-22,6.73-46.91c-.65-22.46-7.92-47.35-33.26-60.84,7.76,29-1.67,52.87-20.24,75.33C176,293.24,41.25,343.08,30.16,466.21v6.06C30.16,557,87,628.48,182.68,669.56c-15.21-19.48-33.22-55.56-19.39-94.93,8.88,37.36,22.09,56.89,46.34,81.68,18.1,18.5,42.4,30.41,73.46,39.35S347.53,707,385,707C508.89,707,618.57,662,682.08,593.48l.6.1v0C718.19,553.71,740.6,506,740.6,454.65,740.6,407.35,721.73,363.1,689.92,325.25Z"/><g id="Shadow"><path class="cls-2" d="M816.3,396.84l0-.06a.25.25,0,0,0,0-.07l0-.06,0-.06,0-.07,0-.06,0-.06a.14.14,0,0,1,0-.06l0-.07,0-.06,0-.06,0-.07,0-.06,0-.06a.14.14,0,0,0,0-.07l0-.06,0-.07,0-.06,0-.06,0-.06,0-.07a.14.14,0,0,0,0-.06l0-.06,0-.07,0-.06,0-.06,0-.07s0,0,0-.06l0-.06,0-.07,0-.06,0-.06,0-.07,0-.06a.14.14,0,0,0,0-.06l0-.07,0-.06,0-.06,0-.07,0-.06s0,0,0-.06l0-.07,0-.06,0-.06,0-.07,0-.06,0-.06a.25.25,0,0,0,0-.07l0-.06,0-.06,0-.07,0-.06,0-.06a.14.14,0,0,1,0-.07l0-.06,0-.06,0-.07,0-.06,0-.06,0-.06a.14.14,0,0,0,0-.07l0-.06,0-.06,0-.07,0-.06,0-.06a.25.25,0,0,1,0-.07l0-.06,0-.07,0-.06,0-.06,0-.06,0-.07a.14.14,0,0,0,0-.06l0-.06,0-.07,0-.06,0-.06,0-.07a.14.14,0,0,1,0-.06l0-.06,0-.07,0-.06,0-.06,0-.07,0-.06s0,0,0-.06l0-.07,0-.06,0-.06,0-.07,0-.06,0-.06a.14.14,0,0,0,0-.07l0-.06,0-.06,0-.07,0-.06,0-.06s0,0,0-.07l0-.06,0-.06,0-.07,0-.06,0-.06,0-.07a.14.14,0,0,0,0-.06l0-.06,0-.07,0-.06,0-.06,0-.07a.14.14,0,0,1,0-.06l0-.06,0-.07,0-.06,0-.06,0-.07,0-.06a.14.14,0,0,0,0-.06l0-.07,0-.06,0-.06,0-.06,0-.07a.14.14,0,0,1,0-.06l0-.06,0-.07,0-.06,0-.06,0-.07,0-.06s0,0,0-.06l0-.07,0-.06,0-.06,0-.07,0-.06a.14.14,0,0,1,0-.06l0-.07,0-.06,0-.06,0-.07,0-.06,0-.06a.19.19,0,0,0,0-.07l0-.06,0-.06,0-.07,0-.06,0-.06,0-.07a.14.14,0,0,0,0-.06l0-.06,0-.07,0-.06,0-.06,0-.07s0,0,0-.06l0-.06,0-.07,0-.06,0-.06,0-.07,0-.06a.14.14,0,0,0,0-.06l0-.07,0-.06,0-.06,0-.07,0-.06a.14.14,0,0,1,0-.06l0-.07,0-.06,0-.06,0-.07,0-.06a.14.14,0,0,1,0-.06l0-.06,0-.07,0-.06,0-.06,0-.07,0-.06a.14.14,0,0,1,0-.06l0-.07,0-.06,0-.06,0-.07,0-.06,0-.06a.14.14,0,0,0,0-.07l0-.06,0-.06,0-.07,0-.06,0-.06a.25.25,0,0,1,0-.07l0-.06,0-.06,0-.07,0-.06,0-.06,0-.07a.14.14,0,0,0,0-.06l0-.06,0-.07,0-.06,0-.06,0-.07a.14.14,0,0,1,0-.06l0-.06,0-.07,0-.06,0-.06,0-.07,0-.06a.14.14,0,0,0,0-.06l0-.07,0-.06,0-.06,0-.07,0-.06,0-.06a.25.25,0,0,0,0-.07l0-.06,0-.06,0-.07,0-.06,0-.06s0,0,0-.06l0-.07,0-.06,0-.06,0-.07,0-.06,0-.06a.14.14,0,0,0,0-.07l0-.06,0-.06,0-.07,0-.06,0-.06a.25.25,0,0,1,0-.07l0-.06,0-.06,0-.07,0-.06,0-.06,0-.07a.14.14,0,0,0,0-.06l0-.06,0-.07,0-.06,0-.06,0-.07a.14.14,0,0,1,0-.06l0-.06,0-.07,0-.06,0-.06,0-.07,0-.06a.14.14,0,0,0,0-.06l0-.07,0-.06,0-.06,0-.07,0-.06a.14.14,0,0,1,0-.06l0-.07,0-.06,0-.06,0-.07,0-.06,0-.06s0,0,0-.07l0-.06,0-.06,0-.07,0-.06,0-.06,0-.07a.14.14,0,0,0,0-.06l0-.06,0-.07,0-.06,0-.06,0-.07s0,0,0-.06l0-.06,0-.06,0-.07,0-.06,0-.07,0-.06a.14.14,0,0,0,0-.06l0-.06,0-.07,0-.06,0-.06,0-.07a.14.14,0,0,1,0-.06l0-.06,0-.07,0-.06,0-.06,0-.07,0-.06a.14.14,0,0,0,0-.06l0-.07,0-.06,0-.06,0-.07,0-.06a.14.14,0,0,1,0-.06l0-.07,0-.06,0-.06,0-.07,0-.06,0-.06a.19.19,0,0,0,0-.07l0-.06,0-.06,0-.07,0-.06,0-.06a.14.14,0,0,1,0-.07l0-.06,0-.06,0-.07,0-.06,0-.06,0-.07s0,0,0-.06l0-.06,0-.07,0-.06,0-.06,0-.07a.14.14,0,0,1,0-.06l0-.06,0-.06,0-.07,0-.06,0-.07,0-.06s0,0,0-.06l0-.06,0-.07,0-.06,0-.06,0-.07,0-.06a.14.14,0,0,0,0-.06l0-.07,0-.06,0-.06,0-.07,0-.06s0,0,0-.06l0-.07,0-.06,0-.06,0-.07,0-.06a.14.14,0,0,1,0-.06l0-.07,0-.06,0-.06,0-.07,0-.06,0-.06a.19.19,0,0,1,0-.07l0-.06,0-.06,0-.07,0-.06,0-.06,0-.07a.14.14,0,0,0,0-.06l0-.06,0-.07,0-.06,0-.06,0-.07a.14.14,0,0,1,0-.06l0-.06,0-.07,0-.06,0-.06,0-.07,0-.06a.14.14,0,0,0,0-.06l0-.07,0-.06,0-.06,0-.07,0-.06a.14.14,0,0,1,0-.06l0-.07,0-.06,0-.06,0-.06,0-.07,0-.06s0,0,0-.06l0-.07,0-.06,0-.07,0-.06,0-.06a.14.14,0,0,1,0-.06l0-.07,0-.06,0-.06,0-.07,0-.06,0-.06a21.32,21.32,0,0,0-19.64-13H710.26c-5.81,0-7.85-.06-8.48-.08a21.2,21.2,0,0,0-2.25-.12,21.6,21.6,0,0,0-4.17.41H633l0-.06,0-.07,0-.06,0-.06,0-.07,0-.06,0-.06,0-.07,0-.06,0-.06,0-.07,0-.06,0-.06,0-.07,0-.06,0-.06,0-.07,0-.06,0-.06,0-.07,0-.06,0-.06,0-.07,0-.06,0-.06,0-.06,0-.07,0-.06,0-.07,0-.06,0-.06,0-.06,0-.07,0-.06,0-.06,0-.07,0-.06,0-.06,0-.07,0-.06,0-.07,0-.06,0-.06,0-.06,0-.07,0-.06,0-.06,0-.07,0-.06,0-.06,0-.07,0-.06,0-.06,0-.07,0-.06,0-.06,0-.07,0-.06,0-.06,0-.07,0-.06,0-.06,0-.07,0-.06,0-.06,0-.07,0-.06,0-.06,0-.07,0-.06,0-.06,0-.07,0-.06,0-.06,0-.07,0-.06,0-.06,0-.07,0-.06,0-.06,0-.07,0-.06,0-.06,0-.06,0-.07,0-.06,0-.06,0-.07,0-.06,0-.06,0-.07,0-.06,0-.07,0-.06,0-.06,0-.07,0-.06,0-.06,0-.06,0-.07,0-.06,0-.06,0-.07,0-.06,0-.06,0-.07,0-.06,0-.06,0-.07,0-.06,0-.06,0-.07,0-.06,0-.06,0-.07,0-.06,0-.06,0-.07,0-.06,0-.06,0-.07,0-.06,0-.06,0-.07,0-.06,0-.06,0-.07,0-.06,0-.06,0-.07,0-.06,0-.06,0-.06,0-.07,0-.06,0-.07,0-.06,0-.06,0-.06,0-.07,0-.06,0-.06,0-.07,0-.06,0-.06,0-.07,0-.06,0-.07,0-.06,0-.06,0-.06,0-.07,0-.06,0-.06,0-.07,0-.06,0-.06,0-.07,0-.06,0-.06,0-.07,0-.06,0-.06,0-.07,0-.06,0-.06,0-.07,0-.06,0-.06,0-.07,0-.06,0-.06,0-.07,0-.06,0-.06,0-.07,0-.06,0-.06,0-.07,0-.06,0-.06,0-.07,0-.06,0-.06,0-.07,0-.06,0-.06,0-.07,0-.06,0-.06,0-.07,0-.06,0-.06,0-.07,0-.06,0-.06,0-.06,0-.07,0-.06,0-.07,0-.06,0-.06,0-.06,0-.07,0-.06,0-.06,0-.07,0-.06,0-.06,0-.07,0-.06,0-.07,0-.06,0-.06,0-.06,0-.07,0-.06,0-.06,0-.07,0-.06,0-.06,0-.07,0-.06,0-.06,0-.07,0-.06,0-.06,0-.07,0-.06,0-.06,0-.07,0-.06,0-.06A21.16,21.16,0,0,0,625,340l-.3-.48a21.23,21.23,0,0,0-6.17-6.41,70.4,70.4,0,0,0,1.75-16.34,42.55,42.55,0,0,0-4.12-18.14l0-.06,0-.07,0-.06s0,0,0-.06l0-.07,0-.06,0-.06,0-.07,0-.06a.14.14,0,0,1,0-.06l0-.07,0-.06,0-.06,0-.07,0-.06,0-.06s0-.05,0-.07l0-.06,0-.06,0-.07,0-.06,0-.06a.14.14,0,0,1,0-.07l0-.06,0-.06,0-.07,0-.06,0-.06,0-.07s0,0,0-.06l0-.06,0-.06,0-.07,0-.06,0-.06a.64.64,0,0,0,0-.07s0,0,0-.06l0-.06,0-.07,0-.06,0-.07,0-.06s0,0,0-.06l0-.06,0-.07,0-.06,0-.06,0-.07,0-.06s0,0,0-.06l0-.07,0-.06,0-.06,0-.07,0-.06s0,0,0-.06l0-.07,0-.06,0-.06,0-.07,0-.06,0-.06a.64.64,0,0,1,0-.07l0-.06,0-.06,0-.07,0-.06,0-.06,0-.07,0-.06,0-.06,0-.07,0-.06,0-.06,0-.07,0-.06,0-.06,0-.07,0-.06,0-.06,0-.07a.14.14,0,0,1,0-.06l0-.06,0-.07,0-.06,0-.06,0-.06,0-.07s0,0,0-.06l0-.06,0-.07,0-.06,0-.07,0-.06s0,0,0-.06l0-.06,0-.07,0-.06,0-.06,0-.07,0-.06,0-.06,0-.07,0-.06,0-.07,0-.06,0-.06,0-.06a.64.64,0,0,0,0-.07l0-.06,0-.06,0-.07,0-.06,0-.06s0,0,0-.07l0-.06,0-.06,0-.07,0-.06,0-.06,0-.07s0,0,0-.06l0-.06,0-.07,0-.06,0-.06,0-.07s0,0,0-.06l0-.06,0-.07,0-.06,0-.06,0-.07,0-.06s0,0,0-.06l0-.07,0-.06,0-.06,0-.07,0-.06s0,0,0-.06l0-.07,0-.06,0-.06,0-.06,0-.07,0-.06a.64.64,0,0,1,0-.07l0-.06,0-.06,0-.06,0-.07,0-.06a.14.14,0,0,1,0-.06l0-.07,0-.06,0-.06,0-.07,0-.06,0-.06a.64.64,0,0,0,0-.07l0-.06,0-.06,0-.07,0-.06,0-.06,0-.07s0,0,0-.06l0-.06,0-.07,0-.06,0-.06,0-.07s0,0,0-.06l0-.06,0-.07,0-.06,0-.06,0-.07,0-.06,0-.06,0-.07,0-.06,0-.06,0-.07,0-.06,0-.06,0-.07,0-.06,0-.06,0-.07,0-.06,0-.06a.64.64,0,0,1,0-.07l0-.06,0-.06,0-.07,0-.06,0-.06,0-.07s0,0,0-.06l0-.06,0-.06,0-.07,0-.06,0-.06a.64.64,0,0,0,0-.07l0-.06,0-.06,0-.07,0-.06,0-.07a.14.14,0,0,1,0-.06l0-.06,0-.06,0-.07,0-.06,0-.06,0-.07s0,0,0-.06l0-.06,0-.07,0-.06,0-.06,0-.07s0,0,0-.06l0-.06,0-.07,0-.06,0-.06,0-.07,0-.06s0,0,0-.06l0-.07,0-.06,0-.06,0-.07,0-.06,0-.06s0-.05,0-.07l0-.06,0-.06,0-.07,0-.06,0-.06a.64.64,0,0,1,0-.07l0-.06,0-.06,0-.06,0-.07,0-.06,0-.07s0,0,0-.06l0-.06,0-.06,0-.07,0-.06,0-.06a.64.64,0,0,0,0-.07l0-.06,0-.06,0-.07,0-.06,0-.07,0-.06,0-.06,0-.06,0-.07,0-.06,0-.06,0-.07,0-.06s0,0,0-.06l0-.07,0-.06,0-.06,0-.07,0-.06s0,0,0-.06l0-.07,0-.06,0-.06,0-.07,0-.06s0,0,0-.06l0-.07,0-.06,0-.06,0-.07,0-.06,0-.06s0-.05,0-.07l0-.06,0-.06,0-.07,0-.06,0-.06,0-.07s0,0,0-.06l0-.06,0-.07,0-.06,0-.06,0-.07s0,0,0-.06l0-.06,0-.07,0-.06,0-.06,0-.07,0-.06s0,0,0-.06l0-.06,0-.07,0-.06,0-.06,0-.07s0,0,0-.06l0-.07,0-.06,0-.06,0-.06,0-.07,0-.06,0-.06,0-.07,0-.06,0-.06,0-.07,0-.06,0-.07s0,0,0-.06l0-.06,0-.06,0-.07,0-.06,0-.06s0-.05,0-.07l0-.06,0-.06,0-.07,0-.06,0-.06a.25.25,0,0,1,0-.07l0-.06,0-.06,0-.07,0-.06,0-.06,0-.07s0,0,0-.06a.14.14,0,0,0,0-.06l0-.07,0-.06,0-.06,0-.07,0-.06s0,0,0-.06l0-.07,0-.06,0-.06,0-.06,0-.07s0,0,0-.06l0-.06,0-.07,0-.06,0-.06,0-.07,0-.06a.64.64,0,0,1,0-.07l0-.06,0-.06,0-.06,0-.07,0-.06s0,0,0-.06l0-.07,0-.06,0-.06,0-.07,0-.06,0-.06a.64.64,0,0,0,0-.07l0-.06,0-.06,0-.07,0-.06,0-.06s0-.05,0-.07l0-.06,0-.06,0-.07,0-.06,0-.06,0-.07s0,0,0-.06l0-.06,0-.07,0-.06,0-.06,0-.07,0-.06,0-.06,0-.07,0-.06,0-.06,0-.07,0-.06,0-.06,0-.07,0-.06,0-.06,0-.07,0-.06,0-.06a.64.64,0,0,1,0-.07l0-.06,0-.06,0-.07a50.77,50.77,0,0,0-8.76-12.86,19,19,0,0,0-1.83-1.76c-10.33-8.83-21.53-13.3-33.28-13.3H513.74a21.36,21.36,0,0,0-7.48,1.37,21.79,21.79,0,0,0-7.65-1.43H437.12a21.33,21.33,0,0,0-9.48,2.22,22.77,22.77,0,0,0-3,1.81,64.41,64.41,0,0,0-8.59-2.4v0a33,33,0,0,0-5.55-.81c-2.18-.15-5.2-.26-9.25-.35-7.41-.16-18.55-.25-33.13-.25l-1.69-.09-1.15,0a21.46,21.46,0,0,0-5.47.74,23.13,23.13,0,0,0-3.37-.69,20,20,0,0,0-2.68-.17H326.6a22.83,22.83,0,0,0-8.8,1.73,21.54,21.54,0,0,0-8.38-1.73h-35a21.32,21.32,0,0,0-8.42,1.73l-.11,0a24,24,0,0,0-2.22.9,21.65,21.65,0,0,0-4.55-.53,49.69,49.69,0,0,0-5.19.35c-8.53-1.72-14.47-2.49-19-2.49h-2.63c-.54,0-1.07,0-1.61.06a68.64,68.64,0,0,0-16.57,3.17c-.49.17-1,.35-1.46.55-18,7.52-28.33,22.55-28.33,41.25v2.26a44.79,44.79,0,0,0,2.95,16.23l-.09.08a21.3,21.3,0,0,0-5.71,20c.69,2.93,1.84,8.8,3.44,20.21a21,21,0,0,0,1.8,6.89l0,.07,0,.06,0,.06,0,.07,0,.06,0,.06,0,.07,0,.06,0,.06,0,.07,0,.06,0,.06,0,.07,0,.06,0,.06,0,.07,0,.06,0,.06,0,.07,0,.06,0,.06,0,.07,0,.06,0,.06,0,.07,0,.06,0,.06,0,.06,0,.07,0,.06-5.37-.1a21.13,21.13,0,0,0-5.84.83H129.58A21.31,21.31,0,0,0,113.27,365a21.26,21.26,0,0,0-13.59-4.9h-.22a21.29,21.29,0,0,0-15.35,6.76,21.34,21.34,0,0,0-17.84-9.65c-.48,0-2,0-4.61.12-1.91.06-4.35.09-7.25.09H21.31A21.3,21.3,0,0,0,1.67,387s0,0,0,.07l0,.06,0,.06,0,.06,0,.07,0,.06a.14.14,0,0,1,0,.06l0,.07,0,.06,0,.06,0,.07,0,.06,0,.06s0,.05,0,.07l0,.06,0,.06,0,.07,0,.06,0,.06a.19.19,0,0,1,0,.07l0,.06,0,.06,0,.07,0,.06,0,.06,0,.07s0,0,0,.06l0,.06,0,.07,0,.06,0,.06,0,.07,0,.06a.14.14,0,0,0,0,.06l0,.07,0,.06,0,.06,0,.07,0,.06s0,0,0,.06l0,.07,0,.06,0,.06,0,.07,0,.06,0,.06A.25.25,0,0,0,3,390L3,390l0,.06,0,.07,0,.06,0,.06,0,.07a.14.14,0,0,0,0,.06l0,.06,0,.06,0,.07,0,.06,0,.06s0,0,0,.07l0,.06,0,.06,0,.07,0,.06,0,.07a.14.14,0,0,1,0,.06l0,.06,0,.06,0,.07,0,.06,0,.06,0,.07s0,0,0,.06l0,.06,0,.07,0,.06,0,.06,0,.07a.14.14,0,0,1,0,.06l0,.06,0,.07,0,.06,0,.06,0,.07,0,.06s0,0,0,.06l0,.07,0,.06,0,.06,0,.07,0,.06,0,.06a.19.19,0,0,0,0,.07l0,.06,0,.06,0,.07,0,.06,0,.06a.14.14,0,0,1,0,.07l0,.06,0,.06,0,.07,0,.06,0,.06,0,.07a.14.14,0,0,0,0,.06l0,.06,0,.06,0,.07,0,.06,0,.06s0,.05,0,.07l0,.06,0,.06,0,.07,0,.06,0,.06,0,.07s0,0,0,.06l0,.06,0,.07,0,.06,0,.06,0,.07,0,.06a.14.14,0,0,0,0,.06l0,.07,0,.06,0,.06,0,.07,0,.06s0,0,0,.06l0,.07,0,.06,0,.06,0,.07,0,.06a.14.14,0,0,1,0,.06l0,.07,0,.06,0,.06,0,.07,0,.06,0,.06s0,.05,0,.07l0,.06,0,.06,0,.07,0,.06,0,.06,0,.07a.14.14,0,0,0,0,.06l0,.06,0,.07,0,.06,0,.06,0,.07s0,0,0,.06l0,.06,0,.07,0,.06,0,.06,0,.07,0,.06a.14.14,0,0,0,0,.06l0,.06,0,.07,0,.06,0,.06,0,.07a.14.14,0,0,1,0,.06l0,.07,0,.06,0,.06,0,.06,0,.07,0,.06a.14.14,0,0,0,0,.06l0,.07,0,.06,0,.06,0,.07,0,.06,0,.06a.14.14,0,0,0,0,.07l0,.06,0,.06,0,.07,0,.06,0,.06a.19.19,0,0,0,0,.07l0,.06,0,.06,0,.07,0,.06,0,.06a.25.25,0,0,1,0,.07l0,.06,0,.06,0,.07,0,.06,0,.06,0,.07s0,0,0,.06l0,.06,0,.07,0,.06,0,.06,0,.07,0,.06a.14.14,0,0,0,0,.06l0,.07,0,.06,0,.06,0,.06,0,.07s0,0,0,.06l0,.06,0,.07,0,.06L8,401l0,.07,0,.06a.25.25,0,0,0,0,.07l0,.06,0,.06,0,.06,0,.07,0,.06s0,0,0,.06l0,.07,0,.06,0,.06,0,.07,0,.06,0,.06s0,.05,0,.07l0,.06,0,.06,0,.07,0,.06,0,.06a.19.19,0,0,1,0,.07l0,.06,0,.06,0,.07,0,.06,0,.06,0,.07s0,0,0,.06l0,.06,0,.07,0,.06,0,.06,0,.07,0,.06a.14.14,0,0,0,0,.06l0,.07,0,.06,0,.06,0,.07,0,.06s0,0,0,.06l0,.07,0,.06,0,.06,0,.07,0,.06a.14.14,0,0,1,0,.06l0,.07,0,.06,0,.06,0,.07,0,.06,0,.06s0,0,0,.07l0,.06,0,.06,0,.06,0,.07,0,.06,0,.06a.14.14,0,0,0,0,.07l0,.06,0,.06,0,.07,0,.06,0,.06s0,0,0,.07l0,.06,0,.07,0,.06,0,.06,0,.06,0,.07a.14.14,0,0,0,0,.06l0,.06,0,.07,0,.06,0,.06,0,.07s0,0,0,.06l0,.06,0,.07,0,.06,0,.06,0,.07,0,.06s0,0,0,.06l0,.07,0,.06,0,.06,0,.07,0,.06,0,.06a.25.25,0,0,0,0,.07l0,.06,0,.06,0,.07,0,.06,0,.06a.25.25,0,0,0,0,.07l0,.06,0,.06,0,.07,0,.06,0,.06a.14.14,0,0,1,0,.07l0,.06,0,.06,0,.07,0,.06,0,.06,0,.06s0,.05,0,.07l0,.06,0,.06,0,.07,0,.06,0,.06,0,.07a.14.14,0,0,0,0,.06l0,.07,0,.06,0,.06,0,.06,0,.07a.14.14,0,0,1,0,.06l0,.06,0,.07,0,.06,0,.06,0,.07,0,.06a.14.14,0,0,0,0,.06l0,.07,0,.06,0,.06,0,.07,0,.06s0,0,0,.06l0,.07,0,.06,0,.06,0,.07,0,.06,0,.06s0,0,0,.07l0,.06,0,.06,0,.07,0,.06,0,.06a.14.14,0,0,1,0,.07l0,.06,0,.06,0,.07,0,.06,0,.06,0,.07,0,.05c1.5,6,3.23,12.9,5.17,20.47,2.14,8.34,4.33,17.19,6.53,26.3q3.41,14.17,6.41,26.38c1.95,8,3.53,14.78,4.7,20.27l.36,1.74a21.32,21.32,0,0,0-7.34,23,20.8,20.8,0,0,0,1.28,3.24l0,.06,0,.06,0,.07,0,.06,0,.06,0,.07,0,.06,0,.06s0,0,0,.07l0,.06,0,.06,0,.07,0,.06,0,.06s0,.05,0,.07l0,.06,0,.06,0,.07,0,.06,0,.06,0,.07,0,.06,0,.06,0,.07,0,.06,0,.06,0,.07,0,.06,0,.06,0,.07,0,.06,0,.06,0,.07,0,.06s0,0,0,.06l0,.07,0,.06,0,.06,0,.07,0,.06s0,0,0,.06l0,.06,0,.07,0,.06,0,.07,0,.06,0,.06,0,.06,0,.07,0,.06,0,.06,0,.07,0,.06s0,0,0,.06,0,.05,0,.07l0,.06,0,.06,0,.07,0,.06,0,.06s0,.05,0,.07l0,.06,0,.06,0,.07,0,.06,0,.06s0,.05,0,.07,0,0,0,.06l0,.06,0,.07,0,.06,0,.06,0,.07s0,0,0,.06l0,.06,0,.07,0,.06,0,.06,0,.07,0,.06,0,.06,0,.07,0,.06,0,.06,0,.07,0,.06,0,.06,0,.07,0,.06,0,.06,0,.06,0,.07,0,.06s0,0,0,.06l0,.07,0,.06,0,.07,0,.06,0,.06s0,0,0,.06l0,.07,0,.06,0,.06,0,.07,0,.06,0,.06a.64.64,0,0,0,0,.07l0,.06,0,.07,0,.06,0,.06,0,.06s0,0,0,.07,0,0,0,.06l0,.06,0,.07,0,.06,0,.06,0,.07s0,0,0,.06l0,.06,0,.07,0,.06,0,.06,0,.07s0,0,0,.06,0,0,0,.06l0,.07,0,.06,0,.06,0,.07,0,.06,0,.06,0,.07,0,.06,0,.06,0,.07,0,.06s0,0,0,.06,0,.05,0,.07l0,.06,0,.06,0,.07,0,.06,0,.06a.64.64,0,0,1,0,.07l0,.06,0,.06,0,.07,0,.06,0,.06,0,.07s0,0,0,.06l0,.06,0,.06,0,.07,0,.06,0,.06a.64.64,0,0,0,0,.07l0,.06,0,.06,0,.07,0,.06,0,.07,0,.06,0,.06,0,.06,0,.07,0,.06,0,.06,0,.07s0,0,0,.06,0,0,0,.06l0,.07,0,.06,0,.06,0,.07,0,.06s0,0,0,.06l0,.07,0,.06,0,.06,0,.07,0,.06s0,0,0,.06,0,0,0,.07l0,.06,0,.06,0,.07,0,.06,0,.06s0,0,0,.07l0,.06,0,.06,0,.07,0,.06,0,.06a.36.36,0,0,0,0,.07s0,0,0,.06l0,.06,0,.07,0,.06,0,.06,0,.07s0,0,0,.06l0,.06,0,.07,0,.06,0,.06,0,.07,0,.06,0,.06,0,.06,0,.07,0,.06,0,.07,0,.06,0,.06,0,.06,0,.07,0,.06,0,.06,0,.07,0,.06s0,0,0,.06l0,.07,0,.06,0,.06,0,.07,0,.06s0,0,0,.06,0,0,0,.07l0,.06,0,.06,0,.07,0,.06,0,.06s0,0,0,.07l0,.06,0,.06,0,.07,0,.06,0,.06s0,0,0,.07l0,.06,0,.06,0,.07,0,.06,0,.06,0,.07,0,.06,0,.06,0,.07,0,.06,0,.06,0,.07,0,.06s0,0,0,.06l0,.07,0,.06,0,.06,0,.07,0,.06s0,0,0,.06l0,.07,0,.06,0,.06,0,.07,0,.06,0,.06,0,.06,0,.07,0,.06,0,.06,0,.07,0,.06,0,.06,0,.07,0,.06,0,.06,0,.07,0,.06,0,.06a.64.64,0,0,0,0,.07l0,.06,0,.06,0,.07,0,.06,0,.06s0,.05,0,.07l0,.06,0,.06,0,.07,0,.06,0,.06,0,.07,0,.06,0,.06,0,.07,0,.06,0,.06,0,.07s0,0,0,.06,0,0,0,.06l0,.07,0,.06,0,.06,0,.07,0,.06s0,0,0,.06l0,.07,0,.06,0,.06,0,.07,0,.06,0,.06,0,.07,0,.06,0,.06,0,.07,0,.06,0,.06a.64.64,0,0,1,0,.07l0,.06,0,.06,0,.06,0,.07,0,.06s0,0,0,.06a.64.64,0,0,0,0,.07l0,.06,0,.06,0,.07,0,.06,0,.07,0,.06,0,.06,0,.06,0,.07,0,.06,0,.06,0,.07s0,0,0,.06l0,.06,0,.07,0,.06,0,.06,0,.07s0,0,0,.06l0,.06,0,.07,0,.06,0,.06,0,.07,0,.06,0,.06,0,.07,0,.06,0,.06,0,.07,0,.06,0,.06,0,.07,0,.06,0,.06,0,.07,0,.06,0,.06a.64.64,0,0,1,0,.07l0,.06,0,.06,0,.07,0,.06,0,.06a.36.36,0,0,0,0,.07l0,.06,0,.06,0,.06,0,.07,0,.06,0,.06a.64.64,0,0,0,0,.07l0,.06,0,.06,0,.07,0,.06,0,.07s0,0,0,.06,0,0,0,.06l0,.06,0,.07,0,.06,0,.06,0,.07,0,.06,0,.06,0,.07,0,.06,0,.06,0,.07,0,.06,0,.06,0,.07,0,.06,0,.06,0,.07,0,.06,0,.06,0,.07,0,.06,0,.06,0,.07,0,.06,0,.06s0,0,0,.07l0,.06,0,.06,0,.07,0,.06,0,.06a21.31,21.31,0,0,0,19.15,12h47.84a21.64,21.64,0,0,0,4.12-.4,21.66,21.66,0,0,0,4.13.4h47.43a21.43,21.43,0,0,0,4.41-.48,21.21,21.21,0,0,0,4.45.48H192v0l0,.06,0,.06,0,.07,0,.06,0,.06,0,.07a.14.14,0,0,0,0,.06l0,.06,0,.07,0,.06,0,.06,0,.07s0,0,0,.06l0,.06,0,.07,0,.06,0,.06,0,.07,0,.06a.14.14,0,0,0,0,.06l0,.07,0,.06,0,.06,0,.07,0,.06a.14.14,0,0,1,0,.06l0,.07,0,.06,0,.06,0,.07,0,.06,0,.06a.25.25,0,0,0,0,.07l0,.06,0,.06,0,.07,0,.06,0,.06,0,.07a.14.14,0,0,0,0,.06l0,.06,0,.07,0,.06,0,.06,0,.07a.14.14,0,0,0,0,.06l0,.06,0,.06,0,.07,0,.06,0,.07a.14.14,0,0,1,0,.06l0,.06,0,.06,0,.07,0,.06,0,.06,0,.07s0,0,0,.06l0,.06,0,.07,0,.06,0,.06,0,.07,0,.06a.14.14,0,0,0,0,.06l0,.07,0,.06,0,.06,0,.07,0,.06a.14.14,0,0,1,0,.06l0,.07,0,.06,0,.06,0,.07,0,.06,0,.06a.19.19,0,0,0,0,.07l0,.06,0,.06,0,.07,0,.06,0,.06s0,0,0,.07l0,.06,0,.06,0,.07,0,.06,0,.06,0,.07s0,0,0,.06l0,.06,0,.07,0,.06,0,.06,0,.07a.14.14,0,0,1,0,.06l0,.06,0,.07,0,.06,0,.06,0,.07,0,.06a.14.14,0,0,0,0,.06l0,.06,0,.07,0,.06,0,.06,0,.07,0,.06a.14.14,0,0,0,0,.06l0,.07,0,.06,0,.07,0,.06,0,.06s0,0,0,.06l0,.07,0,.06,0,.06,0,.07,0,.06,0,.06a.19.19,0,0,0,0,.07l0,.06,0,.06,0,.07,0,.06,0,.06s0,.05,0,.07l0,.06,0,.06,0,.07,0,.06,0,.06,0,.07a.14.14,0,0,0,0,.06l0,.06,0,.07,0,.06,0,.06,0,.07a.14.14,0,0,1,0,.06l0,.06,0,.07,0,.06,0,.06,0,.07,0,.06a.14.14,0,0,0,0,.06l0,.07,0,.06,0,.06,0,0v52.71a22.42,22.42,0,0,0-9.86,18.6q0,.55,0,1.11a24,24,0,0,0,2.32,9.29l0,.06,0,.06,0,.07,0,.06,0,.06,0,.06,0,.07,0,.06,0,.07,0,.06,0,.06,0,.06,0,.07,0,.06,0,.06,0,.07,0,.06,0,.06,0,.07,0,.06,0,.06a.64.64,0,0,0,0,.07l0,.06,0,.06,0,.07,0,.06,0,.06s0,0,0,.07l0,.06,0,.06,0,.07,0,.06,0,.06,0,.07,0,.06,0,.06,0,.07,0,.06,0,.06,0,.07,0,.06,0,.06,0,.07,0,.06,0,.06,0,.07,0,.06s0,0,0,.06l0,.07,0,.06,0,.06,0,.07,0,.06s0,0,0,.06l0,.07,0,.06,0,.06,0,.06,0,.07,0,.06a.64.64,0,0,1,0,.07l0,.06,0,.06,0,.06,0,.07,0,.06,0,.06,0,.07,0,.06,0,.06,0,.07,0,.06,0,.06a.64.64,0,0,0,0,.07l0,.06,0,.06,0,.07,0,.06,0,.06s0,.05,0,.07,0,0,0,.06l0,.06,0,.07,0,.06,0,.06,0,.07,0,.06,0,.06,0,.07,0,.06,0,.06,0,.07,0,.06,0,.06,0,.07,0,.06,0,.06,0,.07,0,.06,0,.06,0,.07,0,.06,0,.06,0,.07,0,.06,0,.06a.64.64,0,0,1,0,.07l0,.06,0,.06,0,.07,0,.06,0,.06a.64.64,0,0,1,0,.07l0,.06,0,.06,0,.07,0,.06,0,.06,0,.06a.64.64,0,0,0,0,.07l0,.06,0,.06,0,.07,0,.06,0,.07,0,.06,0,.06,0,.06,0,.07,0,.06,0,.06,0,.07s0,0,0,.06l0,.06,0,.07,0,.06,0,.06,0,.07s0,0,0,.06,0,0,0,.06l0,.07,0,.06,0,.06,0,.07,0,.06,0,.06,0,.07,0,.06,0,.06,0,.07,0,.06,0,.06s0,.05,0,.07l0,.06,0,.06,0,.07,0,.06,0,.06a.64.64,0,0,1,0,.07l0,.06,0,.06,0,.07,0,.06,0,.06,0,.07,0,.06,0,.06,0,.07,0,.06,0,.06,0,.06a.64.64,0,0,0,0,.07l0,.06,0,.06,0,.07,0,.06,0,.06,0,.07,0,.06,0,.06,0,.07,0,.06,0,.06,0,.07,0,.06,0,.06,0,.07,0,.06,0,.06,0,.07,0,.06s0,0,0,.06l0,.07,0,.06,0,.06,0,.07,0,.06,0,.06,0,.07,0,.06,0,.06,0,.07,0,.06,0,.06s0,0,0,.07l0,.06,0,.06,0,.07,0,.06,0,.06,0,.07s0,0,0,.06l0,.06,0,.07,0,.06,0,.06,0,.07s0,0,0,.06l0,.06,0,.07,0,.06,0,.06,0,.07,0,.06,0,.06,0,.07,0,.06,0,.06,0,.07,0,.06,0,.06,0,.07,0,.06,0,.06,0,.06,0,.07,0,.06s0,0,0,.06l0,.07,0,.06,0,.06,0,.07,0,.06s0,0,0,.06l0,.07,0,.06,0,.06,0,.07,0,.06,0,.06s0,0,0,.07l0,.06,0,.06,0,.07,0,.06,0,.06s0,0,0,.07l0,.06,0,.06,0,.07,0,.06,0,.06,0,.07,0,.06,0,.06,0,.07,0,.06,0,.06,0,.07,0,.06,0,.06,0,.07,0,.06,0,.06,0,.07,0,.06,0,.06,0,.07,0,.06,0,.06,0,.07,0,.06,0,.06a.64.64,0,0,1,0,.07l0,.06,0,.06,0,.07,0,.06,0,.06,0,.06,0,.07,0,.06,0,.06,0,.07,0,.06,0,.06a.64.64,0,0,0,0,.07l0,.06,0,.06,0,.07,0,.06,0,.06a.64.64,0,0,0,0,.07l0,.06,0,.06,0,.07,0,.06,0,.06,0,.07,0,.06,0,.06,0,.07,0,.06,0,.06,0,.07,0,.06,0,.06,0,.07,0,.06,0,.06,0,.07,0,.06s0,0,0,.06l0,.07,0,.06,0,.06,0,.07,0,.06,0,.06,0,.07,0,.06,0,.06,0,.07,0,.06,0,.06a.64.64,0,0,1,0,.07l0,.06,0,.06,0,.07,0,.06,0,.06,0,.07,0,.06,0,.06,0,.06,0,.07,0,.06,0,.06a.64.64,0,0,0,0,.07l0,.06,0,.07,0,.06,0,.06,0,.06,0,.07,0,.06,0,.06,0,.07,0,.06,0,.06,0,.07s0,0,0,.06l0,.06,0,.07,0,.06,0,.06,0,.07,0,.06,0,.06,0,.07,0,.06,0,.06,0,.07,0,.06,0,.06,0,.07,0,.06,0,.06,0,.07,0,.06,0,.06s0,.05,0,.07l0,.06,0,.06,0,.07,0,.06,0,.06s0,.05,0,.07l0,.06,0,.06,0,.07,0,.06,0,.06,0,.07,0,.06,0,.06,0,.07,0,.06,0,.06,0,.07,0,.06a.14.14,0,0,0,0,.06l0,.07,0,.06,0,.06,0,.06,0,.07,0,.06,0,.06,0,.07,0,.06,0,.06,0,.07a.14.14,0,0,1,0,.06s0,0,0,.06l0,.07,0,.06,0,.06,0,.07,0,.06a21.93,21.93,0,0,0,19.56,12.33h47.43c8.48,0,14.86-.65,20.05-2.06a54.72,54.72,0,0,0,9.14-3.25,22.66,22.66,0,0,0,14.72,5.31h45.44a21.37,21.37,0,0,0,11.44-3.33,25.43,25.43,0,0,0,3.74-2.89,68.94,68.94,0,0,0,28.06,6.22h5.31c3.14,0,7.84-.2,14.38-.61a21.3,21.3,0,0,0,8.2-2.21,22.51,22.51,0,0,0,8.3-7.06,20.91,20.91,0,0,0,3.16.24,21.17,21.17,0,0,0,6.11-.9,21.29,21.29,0,0,0,15.9,9.62c2.26.21,4.49.31,6.63.31a71.35,71.35,0,0,0,48.32-18.93c4.36,8.12,13.33,11.77,17.84,13.6.48.19,1,.36,1.45.52,11.5,3.7,20.33,5.42,27.8,5.42h4.32c1.82,0,4.33-.08,7.68-.24A21.09,21.09,0,0,0,582,700c5.3-.48,11-2.33,18.1-5.81l.19-.09a45.75,45.75,0,0,0,23.26-26.37,21.66,21.66,0,0,0,1.1-5.36A23.29,23.29,0,0,0,625,660c.3-3.53.49-5,.56-5.51a21.28,21.28,0,0,0,.51-4.64,50.76,50.76,0,0,0-4.82-21.7l0-.07,0-.06a.14.14,0,0,0,0-.06l0-.07,0-.06,0-.06,0-.07,0-.06s0,0,0-.06l0-.06,0-.07,0-.06,0-.07,0-.06a.14.14,0,0,1,0-.06s0,0,0-.06l0-.07,0-.06,0-.06,0-.07,0-.06,0-.06,0-.07,0-.06,0-.07,0-.06,0-.06,0-.06a.64.64,0,0,0,0-.07l0-.06,0-.06,0-.07,0-.06,0-.06s0-.05,0-.07l0-.06,0-.06,0-.07,0-.06,0-.06,0-.07,0-.06,0-.06,0-.07,0-.06,0-.06,0-.07,0-.06,0-.06,0-.07,0-.06,0-.06,0-.07,0-.06s0,0,0-.06l0-.07,0-.06,0-.06,0-.07,0-.06,0-.06a.64.64,0,0,1,0-.07l0-.06,0-.06,0-.07,0-.06,0-.06s0,0,0-.06l0-.07,0-.06,0-.06,0-.07,0-.06a.14.14,0,0,1,0-.06l0-.07,0-.06,0-.07,0-.06,0-.06,0-.06s0,0,0-.07a.14.14,0,0,0,0-.06l0-.06,0-.07,0-.06,0-.06,0-.07s0,0,0-.06l0-.06,0-.07,0-.06,0-.06,0-.07s0,0,0-.06l0-.06,0-.07,0-.06h0l.34-.44A21.32,21.32,0,0,0,623,608.83v-.92a20.41,20.41,0,0,0-.35-3.82c-1.66-9.16-2.16-12-2.3-12.83-.51-4.62-1-8.12-1.42-10.67a34,34,0,0,0-2.18-7.55l0-.07,0-.06,0-.06,0-.07,0-.06a.14.14,0,0,0,0-.06l0-.07,0-.06,0-.07,0-.06,0-.06a.14.14,0,0,1,0-.06l0-.07,0-.06,0-.06,0-.07,0-.06,0-.06a.14.14,0,0,0,0-.07l0-.06,0-.06,0-.07,0-.06,0-.06a.25.25,0,0,1,0-.07l0-.06,0-.06,0-.07,0-.06,0-.06,0-.07v0h73a21.31,21.31,0,0,0,17.32-8.9,21.31,21.31,0,0,0,17.32,8.9l61.24.61c9.23,0,17-6.56,19.86-15.34a21.31,21.31,0,0,0-.6-14.78l0-.07a.14.14,0,0,0,0-.06l0-.06,0-.07,0-.06,0-.06,0-.07s0,0,0-.06l0-.06,0-.06,0-.07,0-.06,0-.07,0-.06a.14.14,0,0,0,0-.06l0-.06,0-.07,0-.06,0-.06,0-.07s0,0,0-.06l0-.06,0-.07,0-.06,0-.06,0-.07,0-.06s0,0,0-.06l0-.07,0-.06,0-.06,0-.07,0-.06a.14.14,0,0,1,0-.06l0-.07,0-.06,0-.06,0-.07,0-.06,0-.06s0,0,0-.07l0-.06,0-.06,0-.07,0-.06,0-.06a.14.14,0,0,1,0-.07l0-.06,0-.06,0-.07,0-.06,0-.06,0-.07s0,0,0-.06l0-.06,0-.07,0-.06,0-.06,0-.07a.14.14,0,0,1,0-.06l0-.06,0-.07,0-.06,0-.06,0-.07,0-.06s0,0,0-.06l0-.06,0-.07,0-.06,0-.06,0-.07,0-.06a.14.14,0,0,0,0-.06l0-.07,0-.06,0-.06,0-.07,0-.06s0,0,0-.06l0-.07,0-.06,0-.06,0-.07,0-.06,0-.06a.19.19,0,0,0,0-.07l0-.06,0-.06,0-.07,0-.06,0-.06,0-.07a.14.14,0,0,0,0-.06l0-.06,0-.07,0-.06,0-.06,0-.07s0,0,0-.06l0-.06,0-.07,0-.06,0-.06,0-.07a.14.14,0,0,1,0-.06l0-.06,0-.07,0-.06,0-.06,0-.07,0-.06s0,0,0-.06l0-.07,0-.06,0-.06,0-.07,0-.06a.14.14,0,0,1,0-.06l0-.07,0-.06,0-.06,0-.06,0-.07,0-.06s0,0,0-.06l0-.07,0-.06,0-.07,0-.06,0-.06,0-.06s0-.05,0-.07l0-.06,0-.06,0-.07,0-.06,0-.06s0,0,0-.07l0-.06,0-.06,0-.07,0-.06,0-.06,0-.07s0,0,0-.06l0-.06,0-.07,0-.06,0-.06,0-.07,0-.06a.14.14,0,0,0,0-.06l0-.07,0-.06,0-.06,0-.07,0-.06s0,0,0-.06l0-.07,0-.06,0-.06,0-.07,0-.06a.14.14,0,0,1,0-.06l0-.07,0-.06,0-.06,0-.07,0-.06,0-.06s0,0,0-.07l0-.06,0-.06,0-.06,0-.07,0-.06a.14.14,0,0,1,0-.06l0-.07,0-.06,0-.06,0-.07,0-.06,0-.07s0,0,0-.06l0-.06,0-.06,0-.07,0-.06,0-.06,0-.07s0,0,0-.06l0-.06,0-.07,0-.06,0-.06,0-.07s0,0,0-.06l0-.06,0-.07,0-.06,0-.06,0-.07,0-.06a.14.14,0,0,0,0-.06l0-.07,0-.06,0-.06,0-.07,0-.06s0,0,0-.06l0-.07,0-.06,0-.06,0-.07,0-.06,0-.06a.25.25,0,0,0,0-.07l0-.06,0-.06,0-.07,0-.06,0-.06,0-.07a.14.14,0,0,0,0-.06l0-.06,0-.07,0-.06,0-.06,0-.07s0,0,0-.06l0-.06,0-.07,0-.06,0-.06,0-.07a.14.14,0,0,1,0-.06l0-.06,0-.06,0-.07,0-.06,0-.06,0-.07s0,0,0-.06l0-.06,0-.07,0-.06,0-.07,0-.06,0-.06a.14.14,0,0,0,0-.06l0-.07,0-.06,0-.06,0-.07,0-.06a.14.14,0,0,1,0-.06l0-.07,0-.06,0-.06,0-.07,0-.06,0-.06s0,0,0-.07l0-.06,0-.06,0-.07,0-.06,0-.06s0,0,0-.07l0-.06,0-.06,0-.07,0-.06,0-.06,0-.07s0,0,0-.06l0-.06,0-.07,0-.06,0-.06,0-.07,0-.06a.14.14,0,0,0,0-.06l0-.06,0-.07,0-.06,0-.06,0-.07s0,0,0-.06l0-.07,0-.06,0-.06,0-.06,0-.07a.14.14,0,0,1,0-.06l0-.06,0-.07,0-.06,0-.06,0-.07,0-.06s0,0,0-.06l0-.07,0-.06,0-.06,0-.07,0-.06a.14.14,0,0,1,0-.06l0-.07,0-.06,0-.06,0-.07,0-.06,0-.06s0-.05,0-.07l0-.06,0-.06,0-.07,0-.06,0-.06,0-.07a.14.14,0,0,0,0-.06l0-.06,0-.07,0-.06,0-.06,0-.07s0,0,0-.06l0-.06,0-.07,0-.06,0-.06,0-.07,0-.06s0,0,0-.06l0-.07,0-.06,0-.06,0-.07,0-.06a.14.14,0,0,1,0-.06l0-.07,0-.06,0-.06,0-.07,0-.06,0-.06s0,0,0-.06l0-.07,0-.06,0-.06,0-.07,0-.06,0-.07a.14.14,0,0,0,0-.06l0-.06,0-.06,0-.07,0-.06,0-.06s0-.05,0-.07l0-.06,0-.06,0-.07,0-.06,0-.06a.25.25,0,0,1,0-.07l0-.06,0-.06,0-.07,0-.06,0-.06,0-.07s0,0,0-.06l0-.06,0-.07,0-.06,0-.06,0-.07,0-.06a.14.14,0,0,0,0-.06l0-.07,0-.06,0-.06,0-.07,0-.06a.14.14,0,0,1,0-.06l0-.07,0-.06,0-.06,0-.07,0-.06,0-.06s0,0,0-.07l0-.06,0-.06,0-.06,0-.07,0-.06s0,0,0-.07l0-.06,0-.06,0-.07,0-.06,0-.06,0-.07s0,0,0-.06l0-.06,0-.06,0-.07,0-.06,0-.06s0,0,0-.07l0-.06,0-.06,0-.07,0-.06,0-.07,0-.06a21.16,21.16,0,0,0-2.68-4.68V467.46a21.24,21.24,0,0,0,7.35,1.31A21.32,21.32,0,0,0,818,447.46V405.18A21.25,21.25,0,0,0,816.3,396.84Zm-284.12,7L530.5,401h2.23C532.55,402,532.36,402.91,532.18,403.85Z"/></g><g id="Outline"><path class="cls-2" d="M784.7,357.23H710.26c-5.81,0-7.85-.06-8.48-.08a21.2,21.2,0,0,0-2.25-.12,21.6,21.6,0,0,0-4.17.41H627.53a21.53,21.53,0,0,0,.68-5.34v-.79A21.29,21.29,0,0,0,625,340l-.3-.48a21.18,21.18,0,0,0-18-10.05,7.27,7.27,0,0,1-1.53-.36,15.52,15.52,0,0,1-.93-1.47c-.26-.45-.53-.9-.82-1.33q-1.87-2.79-3.31-5c5.51-7.76,8.21-18,8.21-31.18,0-7.76-2.23-19.42-12.86-30.95a19,19,0,0,0-1.83-1.76c-10.33-8.83-21.53-13.3-33.28-13.3H513.74a21.36,21.36,0,0,0-7.48,1.37,21.79,21.79,0,0,0-7.65-1.43H437.12a21.33,21.33,0,0,0-9.48,2.22,22.77,22.77,0,0,0-3,1.81,64.41,64.41,0,0,0-8.59-2.4v0a33,33,0,0,0-5.55-.81c-2.18-.15-5.2-.26-9.25-.35-7.41-.16-18.55-.25-33.13-.25l-1.69-.09-1.15,0a21.46,21.46,0,0,0-5.47.74,23.13,23.13,0,0,0-3.37-.69,20,20,0,0,0-2.68-.17H326.6a22.83,22.83,0,0,0-8.8,1.73,21.54,21.54,0,0,0-8.38-1.73h-35a21.32,21.32,0,0,0-8.42,1.73l-.11,0a24,24,0,0,0-2.22.9,21.65,21.65,0,0,0-4.55-.53,49.69,49.69,0,0,0-5.19.35c-8.53-1.72-14.47-2.49-19-2.49h-2.63c-.54,0-1.07,0-1.61.06a68.64,68.64,0,0,0-16.57,3.17c-.49.17-1,.35-1.46.55-18,7.52-28.33,22.55-28.33,41.25v2.26a44.79,44.79,0,0,0,2.95,16.23l-.09.08a21.3,21.3,0,0,0-5.71,20c.69,2.93,1.84,8.8,3.44,20.21a20.62,20.62,0,0,0,2.8,8.79l-5.51-.1a21.13,21.13,0,0,0-5.84.83H129.58A21.31,21.31,0,0,0,113.27,365a21.26,21.26,0,0,0-13.59-4.9h-.22a21.29,21.29,0,0,0-15.35,6.76,21.34,21.34,0,0,0-17.84-9.65c-.48,0-2,0-4.61.12-1.91.06-4.35.09-7.25.09H21.31a21.31,21.31,0,0,0-14,37.33,9.11,9.11,0,0,1,.75.84l.25.3c.06.11.17.29.31.56a14,14,0,0,1,.86,2.18c.3,1.23,2.74,11.09,2.74,11.09,1.57,6.35,3.43,13.69,5.51,21.83,2.14,8.34,4.33,17.19,6.53,26.3q3.41,14.17,6.41,26.38c1.95,8,3.53,14.78,4.7,20.27l.36,1.74a21.31,21.31,0,0,0,13.06,38.15H96.58a21.66,21.66,0,0,0,4.13-.4,21.64,21.64,0,0,0,4.12.4h47.43a21.6,21.6,0,0,0,4.42-.48,21.14,21.14,0,0,0,4.45.48H188a23,23,0,0,0-1.72,8.79v.71a21.82,21.82,0,0,0,10.07,18.29v61.36a22.42,22.42,0,0,0-9.86,18.6q0,.55,0,1.11c.73,14,11.8,21.55,21.85,21.55h47.43c8.48,0,14.86-.65,20.05-2.05a55.32,55.32,0,0,0,9.14-3.26,22.68,22.68,0,0,0,14.72,5.31h45.44a21.28,21.28,0,0,0,11.44-3.33,24.91,24.91,0,0,0,3.74-2.89,68.94,68.94,0,0,0,28.06,6.22h5.32c3.13,0,7.83-.2,14.38-.61a21.42,21.42,0,0,0,8.19-2.2,22.74,22.74,0,0,0,8.31-7.07,20.78,20.78,0,0,0,3.15.24,21.29,21.29,0,0,0,6.12-.9,21.25,21.25,0,0,0,15.89,9.62c2.26.21,4.49.31,6.63.31a71.35,71.35,0,0,0,48.32-18.93c4.36,8.12,13.33,11.78,17.84,13.6.48.19,1,.36,1.46.52,11.49,3.7,20.32,5.42,27.79,5.42h4.32c1.82,0,4.33-.08,7.68-.24a21,21,0,0,0,6.23-1.24c5.31-.48,11-2.33,18.1-5.8l.19-.1a45.73,45.73,0,0,0,23.26-26.36,60,60,0,0,0,1.43-7.76c.3-3.53.49-5,.56-5.51a21.28,21.28,0,0,0,.51-4.64,50.39,50.39,0,0,0-8-27.36c.24-.3.49-.61.72-.93A21.29,21.29,0,0,0,611,582.19v-.92a21.28,21.28,0,0,0-.34-3.82c-1.67-9.16-2.17-12-2.31-12.83-.51-4.62-1-8.12-1.42-10.67a32,32,0,0,0-3.13-9.54h73a21.3,21.3,0,0,0,17.32-8.9,21.33,21.33,0,0,0,17.33,8.9h60.83a21.31,21.31,0,0,0,12.51-38.56,27.1,27.1,0,0,1-4.5-4.16,20.79,20.79,0,0,1-2.48-4.22,8.29,8.29,0,0,1-.51-3.24V440.82a21.31,21.31,0,0,0,28.66-20V378.54A21.31,21.31,0,0,0,784.7,357.23ZM417.65,471.89a21.06,21.06,0,0,0-4,.39V438.21a21.54,21.54,0,0,0,5.63-2V472C418.7,471.94,418.18,471.89,417.65,471.89Zm109.68-85.62L533,399.62c-.28,1.43-.55,2.83-.83,4.23L514.6,374.39h11.33A21.33,21.33,0,0,0,527.33,386.27ZM419.39,338.78l.19,0-.11.16A1,1,0,0,0,419.39,338.78Zm-73.63,23.87a23,23,0,0,0,14.16,10.92l-12,12.88-10.81-18.11A45.57,45.57,0,0,0,345.76,362.65ZM497,544.41h19.72a44.67,44.67,0,0,0-8.28,9.89A72,72,0,0,0,497,544.41Zm206.43-45.62a27.1,27.1,0,0,1-6.51,8.81,21.21,21.21,0,0,0-2.7,3.08,21.37,21.37,0,0,0-3.57-3.87,33.61,33.61,0,0,1-5.63-6V480.9a21.31,21.31,0,0,0,18.41-4.07Z"/></g><g id="Super_Warcraft_Bros" data-name="Super Warcraft Bros"><g id="Bros"><path class="cls-3" d="M289.7,624.09v-.57a28.17,28.17,0,0,0-2.62-10.77q-7.87-13.47-20.7-13.47h-2.27v-.43a21.87,21.87,0,0,0,3.26-.56q5.6-1.35,10.64-7,5.31-7.59,5.88-14.6a27.31,27.31,0,0,0-1.35-9.29q-6.3-15.52-29.06-15.53H209a1.19,1.19,0,0,0-1.35,1.35v.71c0,.61,2.22,1.21,6.67,1.77,2.26.62,3.4,1.94,3.4,4v87.06q0,2.76-5.67,3.75c-2.79,0-4.18.57-4.18,1.7,0,.9.23,1.35.56,1.35h47.43q9.71,0,14.6-1.35,19.29-4.95,19.28-25.37v-1.14l.22-1C289.77,624.66,289.7,624.47,289.7,624.09ZM241,557.38l.21-.42q2,0,6-.14a13.15,13.15,0,0,1,7,2.27,21.68,21.68,0,0,1,8,17,34.91,34.91,0,0,1-2.7,13.47q-3.83,7.23-8.93,7.23H241Zm23.11,83q-3.62,7.44-13.47,7.44Q241,646.2,241,642.31V602.68h2.48a55.09,55.09,0,0,1,6.81.36q16.65,4,16.66,22.75Q267,634.94,264.11,640.4Z"/><path class="cls-3" d="M395.22,648.41q-7-2.42-12.48-12.13-14.46-21.54-14.46-24.81a44,44,0,0,0,8.93-6.66q7-6.73,7-24.24,0-10.08-8.37-19.14-11.13-9.51-22.54-9.5h-54c-.47.33-.71.59-.71.78v.92c0,.56,1.37,1.08,4.12,1.56q6.87,1.48,6.87,5.31v84.86q0,3.61-6.31,4.75-4.89.28-4.89,2a1.19,1.19,0,0,0,1.35,1.35h45.44q.78-.5.78-.78V652l-.21-1c-.48-.28-2.86-.78-7.16-1.49a4.33,4.33,0,0,1-3.05-4.54v-1.7a3.13,3.13,0,0,1,.21-1.56,13.21,13.21,0,0,1-.21-2V632.1q0-6.74.21-12.33-.21-1.56-.21-10.42v-.57h.92a14,14,0,0,1,6.88,4l10.2,19q6.81,13.39,13.47,16.44a48.63,48.63,0,0,0,21.41,5.32h5.32q4,0,13-.57c.38-.18.57-.37.57-.56v-.92l-.36-.57A33.55,33.55,0,0,1,395.22,648.41Zm-36.79-58.56q-3.48,12.9-11.35,12.9H344q-8.29-1.28-8.29-5.88V557.6h2.41l1-.14a.13.13,0,0,0,.14.14l1-.14.35.14.78-.14a1.54,1.54,0,0,1,.57.14,1.5,1.5,0,0,1,.71-.14l1.2.14.36-.14q2,0,6.23,2.26A25.62,25.62,0,0,1,359.56,580,40.84,40.84,0,0,1,358.43,589.85Z"/><path class="cls-3" d="M563.93,590q-25.8-8-25.81-18.57v-1.35a11.8,11.8,0,0,1,3.41-8q4.68-3.54,7.58-3.54l.43.14,5.32-.71a30.84,30.84,0,0,1,9.28,1.28A42,42,0,0,1,585.76,579c1,2.74,1.75,4.11,2.27,4.11a6,6,0,0,0,1.7-.92v-.93q-2.47-13.6-2.48-13.89-1.41-13.05-2.27-13c-.56,0-2.64.18-6.23.56h-1.56q-14.4-3-20.28-3a3.42,3.42,0,0,1-.78.22c0-.14-.19-.22-.57-.22h-.14l-.42.22c0-.14,0-.22-.14-.22h-1a54.9,54.9,0,0,0-13.25,2.49Q523,561.7,523,579.36V582q0,13.62,11.77,22.62a87.14,87.14,0,0,0,9.5,5.88,143.08,143.08,0,0,1,17.44,8.29q10.43,7.82,10.42,14.61a12.91,12.91,0,0,1-2.48,8.15q-3,3.76-10.21,5.32v-.14l-4.18.56q-9.36,0-20.13-9.28-8.37-8.44-11.56-15.17a33.29,33.29,0,0,0-2.48-5.18h-.57a2.2,2.2,0,0,0-1.49.78q2.06,8.72,4.54,26.58,0,1.29,7,4.12,13.68,4.39,21.27,4.39h4.32q2.21,0,6.67-.21c0-.1.07-.14.21-.14,0-.19,1.39-.52,4.18-1q3.9,0,11.56-3.75a24.42,24.42,0,0,0,12.68-14.25l-.21-.36c.19-1.51.38-2.26.57-2.26a71.81,71.81,0,0,1,1-8.37Q592.78,600.91,563.93,590Z"/><g id="Smash_Ball" data-name="Smash Ball"><path id="Bottom_Right_Y_" data-name="Bottom Right (Y)" class="cls-4" d="M451.74,652.68c1.53.14,3.09.22,4.66.22a50,50,0,0,0,45.48-29.3H451.74Z"/><path id="Bottom_Left_G_" data-name="Bottom Left (G)" class="cls-5" d="M410.92,623.6a50.28,50.28,0,0,0,16.84,20.27V623.6Z"/><path id="Top_Left_B_" data-name="Top Left (B)" class="cls-6" d="M427.76,562a49.87,49.87,0,0,0-20,52.24h20Z"/><path id="Top_Right_R_" data-name="Top Right (R)" class="cls-7" d="M505,614.28A49.91,49.91,0,0,0,456.4,553c-1.57,0-3.13.08-4.66.22v61Z"/></g></g><g id="Warcraft"><path class="cls-8" d="M164.94,399.16a32.85,32.85,0,0,1,2.58-7.21c1.51-2.2,2.89-4.13,4.12-5.78a38.9,38.9,0,0,1,3.51-4.12,25.28,25.28,0,0,1,3.5-3.3H129.58a6.49,6.49,0,0,1,2.47,1.86,8.34,8.34,0,0,1,1.75,2.78,11.76,11.76,0,0,1,.72,4.43,14.72,14.72,0,0,1-.2,2.68c-.28,1.24-.62,3.24-1,6s-.9,6-1.45,9.9-1.17,8-1.85,12.37-1.38,8.87-2.06,13.41Q125.65,448,122.77,467l-23.1-85.58L77.82,469.28q-4.54-20.62-8-37.74-1.65-7.21-3.09-14.33c-1-4.74-1.82-9.08-2.58-13s-1.37-7.29-1.85-10.11-.79-4.64-.93-5.46v-1.24a9.76,9.76,0,0,1,.72-3.92,8.59,8.59,0,0,1,1.75-2.68,13.59,13.59,0,0,1,2.48-2.27c-.41,0-1.72,0-3.92.11s-4.84.1-7.94.1H21.31a26.89,26.89,0,0,1,3.3,3.51,22.35,22.35,0,0,1,2.89,4.43A35.39,35.39,0,0,1,30,393q.61,2.47,2.88,11.65t5.47,21.65q3.2,12.48,6.6,26.6t6.39,26.29q3,12.18,4.84,20.94A84.86,84.86,0,0,1,58,510.52a8.54,8.54,0,0,1-1.55,5,27.21,27.21,0,0,1-3.19,3.92,30.23,30.23,0,0,1-4.54,3.71H96.58a6.69,6.69,0,0,1-1.85-1.65,8,8,0,0,1-1.34-2.58,12.78,12.78,0,0,1-.52-4v-1q.21-2.69,1.44-10t2.89-14.95q1.86-8.87,3.92-19.39,2.05,11.14,3.92,20.42c.54,2.61,1.06,5.22,1.54,7.83s.93,5.06,1.34,7.32.73,4.2.93,5.78a29.68,29.68,0,0,1,.31,3.19,11.06,11.06,0,0,1-.72,4.23,11.5,11.5,0,0,1-1.55,2.79,7.35,7.35,0,0,1-2.06,2.06h47.43a14,14,0,0,1-3.71-3.3,14.93,14.93,0,0,1-2.48-4.12,14.36,14.36,0,0,1-1-5.57q0-1.44.72-7c.48-3.72,1.14-8.28,2-13.72s1.79-11.44,2.89-18,2.27-13.33,3.5-20.21,2.51-13.61,3.82-20.21,2.54-12.61,3.71-18S163.91,402.88,164.94,399.16Z"/><path class="cls-9" d="M342.49,515.78a44.46,44.46,0,0,1-3.71-9.39,60.94,60.94,0,0,1-1.86-10.1c-.34-3.43-.52-6.73-.52-9.9,0-2.19,0-4.23.11-6.08s.17-3.47.31-4.85a38.23,38.23,0,0,1,.62-4.33l-19.18-11.34,32.17-27.63-32.38-54.23H248.56l18.15,18.55V500a22.79,22.79,0,0,1-1.65,8.46,47.11,47.11,0,0,1-3.72,7.42c-.28.46-.58.92-.88,1.38a80.48,80.48,0,0,1-3.14-7.67q-3.19-9-5.67-18.25-2.88-10.71-5.57-22.68l16.71-6.6-3.51-15.67L241.34,452q-3.3-12.16-6.18-22.48c-.83-2.89-1.65-5.84-2.48-8.87s-1.62-5.84-2.37-8.45-1.41-5-2-7.12-1-3.74-1.24-4.84a22.53,22.53,0,0,1-.82-4,39.58,39.58,0,0,1-.21-4.22c0-1.65.07-3.27.21-4.85a32.37,32.37,0,0,1,.62-4.23c.27-1.51.55-2.88.82-4.12l-45.57-.82,8.25,19.38q-5.78,29.28-10.31,52.79-1.86,10.11-3.82,19.9t-3.5,17.94q-1.54,8.15-2.48,13.61c-.62,3.64-1,5.95-1.13,6.91a21,21,0,0,1-3.4,8.76,31.87,31.87,0,0,1-4.64,5.88h44.74a22,22,0,0,0-3.09-2.79q-3.3-2.77-9.07-10.41a15.32,15.32,0,0,1-.21-2.89A19.49,19.49,0,0,1,198,494.13a44.15,44.15,0,0,1,9.9-9,76.2,76.2,0,0,1,14.64-7.22c.82,4.53,1.58,8.8,2.27,12.78.54,3.44,1.06,6.84,1.54,10.21a58.94,58.94,0,0,1,.72,7.53,11.41,11.41,0,0,1-1.23,5.15,53.47,53.47,0,0,1-2.69,4.75,39.42,39.42,0,0,1-3.71,4.74h83.11a32.13,32.13,0,0,1-4.75-5,26.34,26.34,0,0,1-3.3-5.26,14.77,14.77,0,0,1-1.44-6.5c0-2.33,0-5.36-.1-9.07s-.18-7.35-.31-10.93q-.21-6.39-.21-13.2l15.47,12c0,2.2.06,4.4.2,6.59q.21,2.89.31,6.29c.07,2.27.11,4.58.11,6.91a14.93,14.93,0,0,0,1.65,6.81,24.79,24.79,0,0,0,3.91,5.77,26.73,26.73,0,0,0,5.57,5.57h29.08A21.54,21.54,0,0,1,342.49,515.78ZM200.31,470.31l8-41.66,10.1,29.9ZM292.48,446V407.21h9.69l14.64,20.41Z"/><polygon class="cls-10" points="399.09 402.67 409.4 417.31 428.99 404.11 394.35 367.82 361.97 402.67 361.97 512.58 396 549.29 426.31 522.07 417.65 493.2 398.47 514.02 392.29 505.98 392.29 411.74 399.09 402.67"/><path class="cls-11" d="M491.88,377.93H422.39l18.15,18.55V500a22.59,22.59,0,0,1-1.65,8.46,47.1,47.1,0,0,1-3.71,7.42,51.5,51.5,0,0,1-5.37,7.22h46.61a31.59,31.59,0,0,1-4.74-5,25.9,25.9,0,0,1-3.3-5.26,14.64,14.64,0,0,1-1.45-6.5c0-2.33,0-5.36-.1-9.07s-.18-7.35-.31-10.93q-.21-6.39-.21-13.2l15.47,12q0,3.3.21,6.59.19,2.89.31,6.29c.06,2.27.1,4.58.1,6.91a15.06,15.06,0,0,0,1.65,6.81,24.82,24.82,0,0,0,3.92,5.77,26.67,26.67,0,0,0,5.56,5.57h29.08a21.65,21.65,0,0,1-6.29-7.32,44.46,44.46,0,0,1-3.71-9.39,60.94,60.94,0,0,1-1.86-10.1q-.51-5.15-.51-9.9c0-2.19,0-4.23.1-6.08s.17-3.47.31-4.85a40.63,40.63,0,0,1,.62-4.33l-19.18-11.34,32.17-27.63Zm-25.57,68V407.21H476l14.64,20.41Z"/><path class="cls-12" d="M710.26,378.54c-6.33,0-9.9-.06-10.72-.2,0,.14,0,.27,0,.41H618.7c2.48,3.71,5,7.19,7.53,10.41s5.18,6.84,7.94,10.83q.2,26.19.61,47.84,0,9.29.11,18.25t.2,16.5q.1,7.53.21,12.89t.1,7a12.7,12.7,0,0,1-2.57,7.21,48,48,0,0,1-5.47,6.6c-.58.58-1.17,1.14-1.77,1.7a80.12,80.12,0,0,1-3.49-8.4q-3.2-9-5.67-18.25-2.88-10.71-5.56-22.68l16.7-6.6-3.51-15.67L606.12,452q-3.3-12.16-6.18-22.48c-.83-2.89-1.65-5.84-2.48-8.87s-1.61-5.84-2.37-8.45-1.41-5-2-7.12-1-3.74-1.24-4.84a22.53,22.53,0,0,1-.82-4,39.58,39.58,0,0,1-.21-4.22c0-1.65.07-3.27.21-4.85a32.37,32.37,0,0,1,.62-4.23c.27-1.51.55-2.88.82-4.12l-45.57-.82,8.25,19.38q-5.78,29.28-10.31,52.79Q543,460.21,541.06,470t-3.5,17.94q-1.54,8.15-2.48,13.61c-.62,3.64-1,5.95-1.13,6.91a21,21,0,0,1-3.4,8.76,31.87,31.87,0,0,1-4.64,5.88h44.74a22,22,0,0,0-3.09-2.79q-3.3-2.77-9.07-10.41a15.32,15.32,0,0,1-.21-2.89,19.49,19.49,0,0,1,4.54-12.88,44.15,44.15,0,0,1,9.9-9,76.2,76.2,0,0,1,14.64-7.22c.82,4.53,1.58,8.8,2.27,12.78.54,3.44,1.06,6.84,1.54,10.21a58.94,58.94,0,0,1,.72,7.53,11.41,11.41,0,0,1-1.23,5.15q-1.24,2.48-2.68,4.75a40.55,40.55,0,0,1-3.72,4.74h92.59a55.33,55.33,0,0,1-9.28-10,18.54,18.54,0,0,1-3.91-10.83V454.84h21l5.36,5.36V433.81H663.66V400h29.28l6.39,17.93v2.9c.19-.41.41-.78.62-1.16l1.44,4,0-6.32a16.85,16.85,0,0,1,3.12-3.37,22.91,22.91,0,0,1,6.5-3.71,27.35,27.35,0,0,1,6.6-1.55c2.13-.2,3.81-.31,5-.31h2.06v90.94a19.38,19.38,0,0,1-2.06,8.56A47.93,47.93,0,0,1,711.5,523.1h60.83a47.63,47.63,0,0,1-8.25-7.63,41,41,0,0,1-5.57-9.08A28.65,28.65,0,0,1,756,494.23V408.44h3.09a29.64,29.64,0,0,1,6.19.83,44.31,44.31,0,0,1,7.42,2.37,35,35,0,0,1,7,3.92,16.86,16.86,0,0,1,5,5.26V378.54ZM565.09,470.31l8-41.66,10.1,29.9Z"/></g><g id="Super"><path class="cls-3" d="M212.14,349.29q11.79,3.79,18.34,3.79h3.73c1.26,0,3.17-.06,5.74-.18,0-.08.06-.12.19-.12,0-.17,1.2-.45,3.6-.86q3.36,0,10-3.24a21.07,21.07,0,0,0,10.94-12.29l-.18-.3c.16-1.31.32-2,.48-2a61.74,61.74,0,0,1,.86-7.21q0-19.2-24.88-28.61-22.26-6.92-22.25-16v-1.16a10.17,10.17,0,0,1,2.93-6.91q4-3.06,6.54-3.06l.37.13,4.59-.61a26.36,26.36,0,0,1,8,1.1,36.18,36.18,0,0,1,18.65,17.05c.86,2.37,1.51,3.55,2,3.55a4.73,4.73,0,0,0,1.46-.8v-.79Q261,279,261,278.81q-1.21-11.25-2-11.25c-.49,0-2.29.16-5.38.49h-1.35q-12.41-2.64-17.48-2.63a3.51,3.51,0,0,1-.67.18c0-.12-.17-.18-.49-.18h-.13l-.36.18q0-.18-.12-.18h-.86a47.26,47.26,0,0,0-11.43,2.14q-15.23,6.36-15.22,21.58v2.26q0,11.73,10.14,19.5a74.67,74.67,0,0,0,8.2,5.07,122.3,122.3,0,0,1,15,7.16q9,6.72,9,12.59a11.09,11.09,0,0,1-2.14,7q-2.56,3.24-8.8,4.59v-.13l-3.61.49q-8.07,0-17.36-8-7.22-7.28-10-13.08a29.57,29.57,0,0,0-2.13-4.46h-.49a1.89,1.89,0,0,0-1.29.67q1.77,7.51,3.91,22.93Q206.08,346.85,212.14,349.29Z"/><path class="cls-3" d="M276,268.54l.37-.19q4.89,1,4.89,3.91v21.09q0,11.07.12,30.14a55.32,55.32,0,0,0,.86,5.87q1.89,9.84,7.21,15.53a27.38,27.38,0,0,0,14.19,7.7l.36-.18c0,.2,1.37.43,4.1.67l.31-.18a.16.16,0,0,0,.18.18h4l.86-.18a.16.16,0,0,0,.18.18,38.7,38.7,0,0,0,6.18-1q8.25-2,13.08-6.54,11.43-9.17,11.43-31.05V276.85q0-5.81,7.58-8.68c1.84-.16,2.75-.69,2.75-1.59v-.67c0-.25-.32-.41-1-.49H326.6a1,1,0,0,0-1.16,1.16v.31l.49.67a31,31,0,0,1,5.87,1.95q4.95,3.44,4.95,6.73.12,23,.12,35.94v1.65q0,9.72-1.77,14.74-5.13,15.35-17.85,15.34-9.54,0-13.21-10.64-2.44-3.78-2.44-25.18V272.75l.12-1.59q.73-1.89,3.79-2.81c2.94,0,4.4-.59,4.4-1.77-.12-.77-.28-1.16-.49-1.16h-35l-.3.18-1.47.49v1.28Q272.8,268,276,268.54Z"/><path class="cls-3" d="M366.24,353.08H400.9a1,1,0,0,0,1.1-.67v-1.1c0-.45-.43-.67-1.28-.67q-7.34-.79-7.34-4.1V317q8.13,2.15,11.25,2.14,28.92,0,28.92-28.55,0-13.87-12.23-20.78a41.47,41.47,0,0,0-9.48-3.12q0-1-44.32-1l-2.26-.12c-.65.33-1,.59-1,.79v1.17c0,.2.1.3.31.3.16.21,2.08.7,5.74,1.47q2.76.8,2.76,5.07v71.41q0,3.42-4.41,4.4-4.4,0-4.4,1.65v.3A2,2,0,0,0,366.24,353.08Zm27.14-82.95q.74,0,4.89.12,6.72,0,9.6,3.91a27.27,27.27,0,0,1,5.44,16.69V293q0,10.51-4.77,17.12-3.54,3.3-6.54,3.3h-1.28a25.27,25.27,0,0,1-4.89-.86,3.49,3.49,0,0,1-2.45-3.73Z"/><path class="cls-3" d="M439.74,350.45q-3.3,0-3.3,1.65c0,.66.39,1,1.16,1h63a1.65,1.65,0,0,0,1.1-.49q1.53-11.79,4.59-26.83c-.25-.41-.45-.62-.62-.62h-1l-.37.13q-3.62,6.9-6.54,11.43a28,28,0,0,1-5.56,6.05Q487.3,348,478,348h-1.16a7.13,7.13,0,0,0-1.46.18l-5.93-.49c-2.61-.81-3.92-2.08-3.92-3.79V309.74c0-.33,1-.55,3.12-.67a25.61,25.61,0,0,0,2.63.18q7.09,0,9.66,3.61a44.49,44.49,0,0,1,5.56,9.29c.77,2.85,1.47,4.28,2.08,4.28q1.29,0,1.65-1.65V287.49c0-.29-.55-.51-1.65-.68h-.12c-.45,0-1,1.21-1.65,3.61a37,37,0,0,1-5.26,9.84q-3.18,5.57-13.69,5.57h-1.65c-.45-.29-.68-.51-.68-.68V271.29c0-.74,1.2-1.1,3.61-1.1a1.81,1.81,0,0,0,.67.12l1.16-.12a10.8,10.8,0,0,0,1.47.12,2,2,0,0,0,.8-.12l1,.12h3.12l.31-.12v.12l3.91.18,3.48,1.16q8.26,3.92,13.09,14.19c1.46,4,2.32,6,2.56,6.05a2.4,2.4,0,0,0,1.65-.61q0-3.43-2.14-18.16-.3-7.69-1.59-7.7H437.12c-.33.16-.49.32-.49.49v1.16a.89.89,0,0,0,.79.61l3.61.86q4.22.91,4.22,3.91v74.27Q445.25,349.42,439.74,350.45Z"/><path class="cls-3" d="M517.16,350.15c-2.81.16-4.22.75-4.22,1.77a1,1,0,0,0,1.17,1.16h39.18c.45-.28.67-.51.67-.67v-.61l-.18-.86a36.39,36.39,0,0,0-6.17-1.28,3.73,3.73,0,0,1-2.63-3.91v-1.47a2.71,2.71,0,0,1,.18-1.35,11.43,11.43,0,0,1-.18-1.77v-6.54q0-5.81.18-10.64c-.12-.89-.18-3.89-.18-9v-.49h.79a12.06,12.06,0,0,1,5.93,3.42l8.81,16.38q5.87,11.56,11.61,14.19a42.06,42.06,0,0,0,18.46,4.58h4.59q3.42,0,11.25-.49c.32-.16.49-.32.49-.49v-.79l-.31-.49a28.81,28.81,0,0,1-10.15-2.14q-6-2.07-10.76-10.45-12.47-18.59-12.47-21.4a38.17,38.17,0,0,0,7.7-5.75q6.06-5.81,6.06-20.9,0-8.69-7.22-16.51-9.6-8.19-19.44-8.19H513.74c-.41.28-.61.51-.61.67v.8c0,.49,1.18.93,3.54,1.34,4,.86,5.93,2.39,5.93,4.59v73.17Q522.6,349.17,517.16,350.15Zm28-79.78h2.08l.86-.12a.11.11,0,0,0,.12.12l.85-.12.31.12.67-.12a1.43,1.43,0,0,1,.49.12,1.38,1.38,0,0,1,.61-.12l1,.12.31-.12q1.71,0,5.38,1.95a22.12,22.12,0,0,1,7.82,17.49,35,35,0,0,1-1,8.49q-3,11.13-9.78,11.13h-2.63q-7.14-1.1-7.15-5.07Z"/></g></g></g></g></svg>