<svg id="Layer_1" data-name="Layer 1" xmlns="http://www.w3.org/2000/svg" xmlns:xlink="http://www.w3.org/1999/xlink" viewBox="0 0 1920 1920"><defs><style>.cls-1{fill:url(#linear-gradient);}.cls-2{fill:#2b2b2b;}.cls-3{fill:#fdfdfd;}.cls-4{fill:url(#linear-gradient-2);}.cls-5{fill:url(#linear-gradient-3);}.cls-6{fill:url(#linear-gradient-4);}.cls-7{fill:url(#linear-gradient-5);}.cls-8{fill:url(#linear-gradient-6);}.cls-9{fill:url(#linear-gradient-7);}.cls-10{fill:url(#linear-gradient-8);}.cls-11{fill:url(#linear-gradient-9);}.cls-12{fill:url(#linear-gradient-10);}</style><linearGradient id="linear-gradient" x1="844.47" y1="1755.94" x2="905.72" y2="1192.37" gradientUnits="userSpaceOnUse"><stop offset="0" stop-color="#5c4092"/><stop offset="1" stop-color="#ee7794"/></linearGradient><linearGradient id="linear-gradient-2" x1="1117.37" y1="1624.61" x2="1110.09" y2="1586.75" gradientUnits="userSpaceOnUse"><stop offset="0" stop-color="#f8d806"/><stop offset="0.98" stop-color="#fdeb71"/></linearGradient><linearGradient id="linear-gradient-3" x1="944.84" y1="1607.94" x2="1010.36" y2="1548.24" gradientUnits="userSpaceOnUse"><stop offset="0" stop-color="#5fb130"/><stop offset="0.98" stop-color="#f7e930"/></linearGradient><linearGradient id="linear-gradient-4" x1="1004.85" y1="1415.97" x2="968.51" y2="1535.38" gradientUnits="userSpaceOnUse"><stop offset="0" stop-color="#458bca"/><stop offset="0.98" stop-color="#afdbf6"/></linearGradient><linearGradient id="linear-gradient-5" x1="1135.05" y1="1391.4" x2="1084.09" y2="1558.83" gradientUnits="userSpaceOnUse"><stop offset="0" stop-color="#ea5656"/><stop offset="0.98" stop-color="#f7b694"/></linearGradient><linearGradient id="linear-gradient-6" x1="302.55" y1="1646.43" x2="258.87" y2="864.6" gradientUnits="userSpaceOnUse"><stop offset="0" stop-color="#f0e500"/><stop offset="0.98" stop-color="#f4a6a9"/></linearGradient><linearGradient id="linear-gradient-7" x1="637.68" y1="1627.7" x2="594" y2="845.88" xlink:href="#linear-gradient-6"/><linearGradient id="linear-gradient-8" x1="951.65" y1="1610.16" x2="907.97" y2="828.34" xlink:href="#linear-gradient-6"/><linearGradient id="linear-gradient-9" x1="1131.13" y1="1600.14" x2="1087.45" y2="818.31" xlink:href="#linear-gradient-6"/><linearGradient id="linear-gradient-10" x1="1532.04" y1="1577.74" x2="1488.37" y2="795.92" xlink:href="#linear-gradient-6"/></defs><title>TShirt</title><path class="cls-1" d="M1586.47,884.73l-1.14,36.74c-4,41.13-18.86,112.67-70,193.25a573.6,573.6,0,0,0,10.82-292c-74.94-335.07-445-599.95-914.3-655-56-9.59-89-10.6-89-10.6,1.18,1,2.31,2,3.48,3,195.92,166.58,219,341.26,187.41,465.52C702.38,670.19,684,708.3,664.1,737.19c0,0,16.68-49.11,15.07-104.93-1.46-50.26-17.74-105.94-74.41-136.12C622.12,561,601,614.42,559.47,664.66c-122.83,148.47-424.18,260-449,535.44v13.54c0,189.57,127.23,349.46,341.2,441.38-34-43.58-74.3-124.31-43.36-212.38,19.85,83.57,49.41,127.27,103.67,182.74,40.48,41.38,94.86,68,164.33,88s144.16,25.44,228.05,25.44c277.1,0,522.48-100.86,664.57-254l1.33.22v0c79.44-89.16,129.59-196,129.59-310.77C1699.84,1068.42,1657.62,969.41,1586.47,884.73Z"/><g id="Shadow"><path class="cls-2" d="M1869.2,1044.9l-.06-.14-.06-.14-.07-.14-.06-.15-.07-.14-.06-.14-.06-.14c0-.05,0-.09-.07-.14l-.06-.14-.06-.15s0-.09-.07-.14l-.06-.14a.91.91,0,0,0-.07-.14.84.84,0,0,0-.06-.14l-.06-.14-.07-.14-.06-.15-.06-.14-.07-.14-.06-.14-.06-.14-.07-.14-.06-.15-.06-.14-.07-.14-.06-.14s0-.09-.07-.14l-.06-.14-.06-.15-.07-.14-.06-.14-.06-.14a.91.91,0,0,1-.07-.14l-.06-.14-.07-.14-.06-.15-.06-.14c0-.05,0-.09-.07-.14l-.06-.14-.06-.14-.07-.15-.06-.13-.07-.15-.06-.14-.06-.14-.07-.14-.06-.14-.06-.14-.07-.15-.06-.14-.06-.14-.07-.14-.06-.14c0-.05,0-.1-.07-.14l-.06-.15-.06-.14s-.05-.09-.07-.14l-.06-.14-.06-.14-.07-.14-.06-.15s0-.09-.07-.14l-.06-.14-.06-.14s-.05-.09-.07-.14l-.06-.14-.06-.14-.07-.15-.06-.14c0-.05,0-.09-.07-.14l-.06-.14-.06-.14-.07-.14-.06-.14-.06-.15-.07-.14-.06-.14-.06-.14-.07-.14-.06-.14-.07-.15-.06-.14-.06-.14c0-.05-.05-.09-.07-.14l-.06-.14-.06-.14-.07-.15-.06-.14-.07-.14-.06-.14-.06-.14s-.05-.09-.07-.14l-.06-.15-.06-.14-.07-.14-.06-.14-.07-.14-.06-.14-.06-.14-.07-.15-.06-.14-.06-.14-.07-.14-.06-.14a.61.61,0,0,0-.07-.14l-.06-.14-.06-.15s-.05-.09-.07-.14l-.06-.14-.06-.14-.07-.14-.06-.14-.06-.15-.07-.14-.06-.14-.06-.14a.91.91,0,0,1-.07-.14l-.06-.14-.07-.14-.06-.15-.06-.14-.07-.14-.06-.14-.06-.14a1,1,0,0,1-.07-.15l-.06-.14-.07-.14-.06-.14-.06-.14c0-.05,0-.09-.07-.14l-.06-.14-.06-.15a.61.61,0,0,1-.07-.14l-.06-.14-.07-.14-.06-.14-.06-.14-.07-.14-.06-.15-.06-.14-.07-.14-.06-.14s-.05-.09-.07-.14l-.06-.15-.06-.14-.07-.14-.06-.14-.06-.14-.07-.14-.06-.14-.06-.14a1,1,0,0,1-.07-.15l-.06-.14-.07-.14-.06-.14-.06-.14-.07-.14-.06-.15-.06-.14-.07-.14-.06-.14c0-.05,0-.09-.07-.14l-.06-.14-.06-.15s0-.09-.07-.14l-.06-.14-.06-.14-.07-.14-.06-.14a.61.61,0,0,0-.07-.14l-.06-.15-.06-.14s0-.09-.07-.14l-.06-.14-.06-.14-.07-.15-.06-.14-.06-.14-.07-.14-.06-.14s0-.09-.07-.14l-.06-.14-.06-.14-.07-.15-.06-.14-.06-.14-.07-.14-.06-.14-.07-.14-.06-.14-.06-.15c0-.05,0-.09-.07-.14l-.06-.14-.06-.14-.07-.14-.06-.15-.07-.14-.06-.14-.06-.14c0-.05,0-.09-.07-.14l-.06-.14-.06-.14-.07-.15-.06-.14-.06-.14s-.05-.09-.07-.14l-.06-.14c0-.05,0-.1-.07-.14l-.06-.15-.06-.14s0-.09-.07-.14l-.06-.14-.06-.14s-.05-.09-.07-.14l-.06-.14-.07-.15-.06-.14-.06-.14s0-.09-.07-.14l-.06-.14-.06-.14-.07-.15-.06-.14-.07-.14-.06-.14-.06-.14-.07-.14-.06-.15-.06-.14-.07-.14-.06-.14-.07-.14-.06-.14-.06-.14-.07-.15-.06-.14-.06-.14c0-.05,0-.09-.07-.14l-.06-.14-.06-.14s-.05-.1-.07-.14l-.06-.15-.07-.14-.06-.14-.06-.14c0-.05,0-.09-.07-.14l-.06-.14-.06-.15s-.05-.09-.07-.14l-.06-.14-.07-.14-.06-.14-.06-.14-.07-.15-.06-.14-.06-.14s-.05-.09-.07-.14l-.06-.14-.06-.14-.07-.15-.06-.14-.07-.14-.06-.14-.06-.14s-.05-.09-.07-.14l-.06-.14-.06-.14-.07-.15-.06-.14-.06-.14a.91.91,0,0,1-.07-.14l-.06-.14-.07-.14-.06-.15-.06-.14c0-.05,0-.09-.07-.14l-.06-.14-.06-.14-.07-.14-.06-.15-.07-.14-.06-.14-.06-.14c0-.05,0-.09-.07-.14l-.06-.14-.06-.14-.07-.15-.06-.14-.07-.14-.06-.14-.06-.14c0-.05-.05-.1-.07-.14l-.06-.15-.06-.14s0-.09-.07-.14l-.06-.14-.06-.14-.07-.14-.06-.15s-.05-.09-.07-.14l-.06-.14-.06-.14-.07-.14-.06-.14-.06-.14a1,1,0,0,1-.07-.15l-.06-.14c0-.05-.05-.09-.07-.14l-.06-.14-.06-.14-.07-.15-.06-.13-.06-.15-.07-.14-.06-.14s-.05-.09-.07-.14l-.06-.14-.06-.14-.07-.15-.06-.14-.06-.14c0-.05,0-.09-.07-.14l-.06-.14a.61.61,0,0,0-.07-.14l-.06-.15-.06-.14-.07-.14-.06-.14-.06-.14c0-.05,0-.1-.07-.14l-.06-.15-.06-.14-.07-.14-.06-.14s0-.09-.07-.14l-.06-.14-.06-.14-.07-.15-.06-.14-.06-.14-.07-.14-.06-.14s-.05-.1-.07-.14l-.06-.14-.06-.15s0-.09-.07-.14l-.06-.14-.06-.14-.07-.14-.06-.14-.07-.15-.06-.14-.06-.14s0-.09-.07-.14l-.06-.14-.06-.14-.07-.15-.06-.14-.06-.14-.07-.14-.06-.14s0-.09-.07-.14l-.06-.15-.06-.14-.07-.14-.06-.14-.06-.14-.07-.14-.06-.14-.07-.15-.06-.14-.06-.14-.07-.14-.06-.14-.06-.14-.07-.14-.06-.15-.06-.14a.91.91,0,0,1-.07-.14l-.06-.14c0-.05,0-.09-.07-.14l-.06-.14-.06-.15s0-.09-.07-.14l-.06-.14-.06-.14-.07-.14-.06-.14a.61.61,0,0,0-.07-.14l-.06-.15-.06-.14s0-.09-.07-.14l-.06-.14-.06-.14L1844,989l-.06-.14-.07-.14-.06-.14-.06-.14s0-.09-.07-.14l-.06-.14-.06-.15-.07-.14-.06-.14-.06-.14c0-.05-.05-.09-.07-.14l-.06-.14-.07-.14-.06-.15-.06-.14c0-.05,0-.09-.07-.14l-.06-.14-.06-.14c0-.05-.05-.1-.07-.14l-.06-.15-.07-.14-.06-.14-.06-.14c0-.05,0-.09-.07-.14l-.06-.14a47.68,47.68,0,0,0-43.94-29.16H1632c-13,0-17.56-.14-19-.2a49.79,49.79,0,0,0-5-.26,47.69,47.69,0,0,0-9.33.92H1459.19l-.06-.14-.06-.14-.07-.14-.06-.14-.07-.15-.06-.14-.06-.14-.07-.14-.06-.14-.06-.14-.07-.14-.06-.14a1,1,0,0,0-.07-.15l-.06-.14-.06-.14-.07-.14-.06-.15-.06-.13-.07-.15-.06-.14a.91.91,0,0,0-.07-.14l-.06-.14-.06-.14-.07-.14-.06-.15-.06-.14-.07-.14-.06-.14a.61.61,0,0,0-.07-.14l-.06-.14-.06-.14a1,1,0,0,0-.07-.15l-.06-.14-.06-.14-.07-.14-.06-.14-.06-.15a.61.61,0,0,1-.07-.14l-.06-.14-.06-.14a.91.91,0,0,1-.07-.14l-.06-.14a.61.61,0,0,0-.07-.14l-.06-.14-.06-.15-.07-.14-.06-.14-.06-.14a1,1,0,0,1-.07-.15l-.06-.13a1,1,0,0,0-.07-.15l-.06-.14-.06-.14-.07-.14-.06-.14-.06-.14-.07-.15-.06-.14-.07-.14-.06-.14-.06-.14-.07-.14-.06-.14-.06-.15-.07-.14-.06-.14-.07-.14-.06-.14-.06-.15-.07-.14-.06-.14-.06-.14s0-.09-.07-.14l-.06-.14-.06-.14-.07-.14-.06-.15-.07-.14-.06-.14-.06-.14-.07-.14-.06-.14-.06-.15s-.05-.09-.07-.14l-.06-.14-.06-.14-.07-.14-.06-.14-.07-.15-.06-.14-.06-.14s-.05-.09-.07-.14l-.06-.14-.06-.14-.07-.14-.06-.15s0-.09-.07-.14l-.06-.14-.06-.14-.07-.14-.06-.14-.06-.15a.61.61,0,0,1-.07-.14l-.06-.14-.07-.14-.06-.14-.06-.14-.07-.15-.06-.14-.06-.14-.07-.14-.06-.14-.06-.14-.07-.14-.06-.15-.07-.14-.06-.14-.06-.14s0-.09-.07-.14l-.06-.15-.06-.13a1,1,0,0,1-.07-.15l-.06-.14c0-.05,0-.09-.07-.14l-.06-.14-.06-.14s-.05-.1-.07-.14l-.06-.15-.06-.14a.61.61,0,0,1-.07-.14l-.06-.14c0-.05,0-.1-.07-.14l-.06-.14-.06-.15s-.05-.09-.07-.14l-.06-.14-.06-.14c0-.05,0-.09-.07-.14l-.06-.14a1,1,0,0,0-.07-.15l-.06-.14-.06-.14-.07-.14-.06-.14-.06-.14c0-.05,0-.1-.07-.14l-.06-.15-.07-.14-.06-.14-.06-.14-.07-.14-.06-.15-.06-.13-.07-.15-.06-.14-.07-.14-.06-.14-.06-.14a.61.61,0,0,0-.07-.14l-.06-.15-.06-.14-.07-.14-.06-.14a.61.61,0,0,0-.07-.14l-.06-.14-.06-.14-.06-.15a.61.61,0,0,1-.07-.14l-.06-.14a.91.91,0,0,0-.07-.14l-.06-.14-.06-.15-.07-.14-.06-.14-.06-.14-.07-.14-.06-.14a.61.61,0,0,0-.07-.14l-.06-.15-.06-.14-.07-.14-.06-.14-.06-.14-.07-.14-.06-.14a1,1,0,0,0-.07-.15l-.06-.14-.06-.14-.07-.14-.06-.14-.06-.14a1,1,0,0,1-.07-.15l-.06-.14-.06-.14a.91.91,0,0,1-.07-.14l-.06-.14-.07-.14-.06-.14-.06-.15-.07-.14-.06-.14-.06-.14-.07-.14-.06-.15a.83.83,0,0,0-.07-.13l-.06-.15-.06-.14-.07-.14-.06-.14-.06-.14-.07-.14-.06-.15-.06-.14a.91.91,0,0,1-.07-.14l-.06-.14-.07-.14-.06-.14-.06-.15-.07-.14-.06-.14-.06-.14-.07-.14-.06-.14-.07-.15-.06-.14-.06-.14-.07-.14-.06-.14-.06-.14-.07-.14-.06-.15-.07-.14-.06-.14a47.51,47.51,0,0,0-3.14-5.94l-.68-1.09a48,48,0,0,0-13.79-14.33,158.27,158.27,0,0,0,3.91-36.54,95.21,95.21,0,0,0-9.22-40.59,1,1,0,0,0-.07-.15l-.06-.14-.06-.14a.91.91,0,0,0-.07-.14l-.06-.15-.06-.13a1,1,0,0,1-.07-.15l-.06-.14a.91.91,0,0,0-.07-.14l-.06-.14-.06-.14a.61.61,0,0,0-.07-.14l-.06-.15-.06-.14s0-.09-.07-.14l-.06-.14a.61.61,0,0,0-.07-.14l-.06-.14-.06-.14a1,1,0,0,0-.07-.15l-.06-.14-.06-.14L1420,822l-.06-.14a1,1,0,0,0-.07-.15l-.06-.14-.06-.14-.07-.14-.06-.14-.06-.14a.61.61,0,0,0-.07-.14l-.06-.15-.06-.14-.07-.14-.06-.14-.06-.14a1,1,0,0,1-.07-.15l-.06-.13a.61.61,0,0,0-.07-.14l-.06-.15-.06-.14-.07-.14-.06-.14-.06-.14a1,1,0,0,1-.07-.15l-.06-.14-.07-.14-.06-.14-.06-.14c0-.05,0-.1-.07-.14l-.06-.14-.06-.15a.61.61,0,0,1-.07-.14l-.06-.14-.07-.14-.06-.14-.06-.15s0-.09-.07-.14l-.06-.14-.06-.14a.91.91,0,0,1-.07-.14l-.06-.14-.06-.14-.07-.14-.06-.15-.07-.14-.06-.14-.06-.14a1,1,0,0,1-.07-.15l-.06-.13-.06-.14a1,1,0,0,1-.07-.15l-.06-.14-.07-.14-.06-.14-.06-.14s0-.1-.07-.15l-.06-.14-.06-.14a.91.91,0,0,1-.07-.14l-.06-.14-.06-.14-.07-.14-.06-.15-.07-.14-.06-.14-.06-.14a.91.91,0,0,1-.07-.14l-.06-.15-.06-.14a.61.61,0,0,1-.07-.14l-.06-.14-.07-.14-.06-.14-.06-.14c0-.05,0-.1-.07-.14l-.06-.15-.06-.14a.61.61,0,0,1-.07-.14l-.06-.14a.61.61,0,0,0-.07-.14l-.06-.14-.06-.15-.07-.14-.06-.14-.06-.14s0-.09-.07-.14l-.06-.14a1,1,0,0,0-.07-.15l-.06-.14-.06-.14-.07-.14-.06-.14-.06-.14s0-.1-.07-.14l-.06-.14a1,1,0,0,0-.07-.15l-.06-.14-.06-.14-.07-.14-.06-.15-.06-.13s0-.1-.07-.15l-.06-.14a.91.91,0,0,0-.07-.14l-.06-.14-.06-.14-.06-.14a1,1,0,0,1-.07-.15l-.06-.14-.07-.14-.06-.14a1,1,0,0,0-.07-.15l-.06-.13-.06-.15-.06-.14a.61.61,0,0,1-.07-.14l-.06-.14-.07-.14-.06-.14-.06-.14c0-.05,0-.1-.07-.15l-.06-.14-.07-.14-.06-.14-.06-.14a.61.61,0,0,0-.07-.14l-.06-.15-.06-.14s0-.09-.07-.14l-.06-.14a.61.61,0,0,0-.07-.14l-.06-.14-.06-.14a1,1,0,0,0-.07-.15l-.06-.14-.06-.14a.91.91,0,0,0-.07-.14l-.06-.14-.06-.15a.61.61,0,0,1-.07-.14l-.06-.14-.06-.14-.07-.14-.06-.14a.61.61,0,0,0-.07-.14l-.06-.15-.07-.14-.06-.14-.06-.14-.06-.14-.07-.14-.06-.14a1,1,0,0,0-.07-.15l-.06-.14-.06-.14-.07-.14-.06-.14-.06-.14a1,1,0,0,1-.07-.15l-.06-.14-.07-.14-.06-.14-.06-.14c0-.05,0-.1-.07-.14l-.06-.14-.06-.14a1,1,0,0,1-.07-.15l-.06-.14-.06-.14-.07-.14-.06-.15s0-.09-.07-.13l-.06-.15-.06-.14a.91.91,0,0,1-.07-.14l-.06-.14-.06-.14-.07-.14-.06-.15a.91.91,0,0,0-.07-.14l-.06-.14-.06-.14a1,1,0,0,1-.07-.15l-.06-.13-.06-.15a.61.61,0,0,1-.07-.14l-.06-.14a.91.91,0,0,0-.07-.14l-.06-.14-.06-.14a1,1,0,0,0-.07-.15l-.06-.14-.06-.14s0-.09-.07-.14l-.06-.14-.06-.14-.07-.14-.06-.15-.07-.14-.06-.14-.06-.14a.91.91,0,0,0-.07-.14l-.06-.15-.06-.14a.61.61,0,0,1-.07-.14l-.06-.14-.07-.14-.06-.14-.06-.14a.61.61,0,0,0-.07-.14l-.06-.15-.06-.14a.61.61,0,0,1-.07-.14l-.06-.14a1,1,0,0,0-.07-.15l-.06-.13-.06-.15-.07-.14-.06-.14-.06-.14a.91.91,0,0,1-.07-.14l-.06-.14a1,1,0,0,0-.07-.15l-.06-.14-.06-.14-.07-.14-.06-.14-.06-.14s0-.1-.07-.14l-.06-.15-.06-.14a.91.91,0,0,1-.07-.14l-.06-.14-.06-.14a1,1,0,0,1-.07-.15l-.06-.14-.07-.14-.06-.14a.91.91,0,0,0-.07-.14l-.06-.14-.06-.14-.06-.14a1,1,0,0,1-.07-.15l-.06-.14-.07-.14-.06-.14-.06-.15a.83.83,0,0,1-.07-.13l-.06-.14-.06-.15a.91.91,0,0,1-.07-.14l-.06-.14-.07-.14-.06-.14-.06-.15s0-.09-.07-.14l-.06-.14-.06-.14-.07-.14-.06-.14-.06-.14a1,1,0,0,1-.07-.15l-.06-.14-.07-.14-.06-.14a.61.61,0,0,0-.07-.14l-.06-.14-.06-.14-.06-.15a.61.61,0,0,1-.07-.14l-.06-.14-.07-.14-.06-.14-.06-.15a.61.61,0,0,1-.07-.14l-.06-.14-.06-.14-.07-.14-.06-.14a.61.61,0,0,0-.07-.14l-.06-.15-.06-.14s0-.09-.07-.14l-.06-.14-.06-.14a1,1,0,0,1-.07-.15l-.06-.13-.06-.14a1,1,0,0,1-.07-.15l-.06-.14-.07-.14-.06-.14-.06-.14a1,1,0,0,1-.07-.15l-.06-.14-.06-.14a.61.61,0,0,1-.07-.14l-.06-.14a.61.61,0,0,0-.07-.14l-.06-.14-.06-.15a.61.61,0,0,1-.07-.14l-.06-.14-.06-.14-.07-.14-.06-.15-.07-.14-.06-.14-.06-.14a.91.91,0,0,1-.07-.14l-.06-.14-.06-.14-.07-.14-.06-.15-.06-.14-.07-.14-.06-.14a1,1,0,0,0-.07-.15l-.06-.13-.06-.14s0-.1-.07-.15l-.06-.14-.06-.14-.07-.14-.06-.14a1,1,0,0,0-.07-.15l-.06-.14-.06-.14-.07-.14-.06-.14-.06-.14-.07-.14-.06-.15-.07-.14-.06-.14-.06-.14a.91.91,0,0,0-.07-.14l-.06-.15-.06-.14a.61.61,0,0,1-.07-.14l-.06-.14-.07-.14-.06-.14-.06-.14a.61.61,0,0,0-.07-.14l-.06-.15-.06-.14s0-.09-.07-.14l-.06-.14a.61.61,0,0,0-.07-.14l-.06-.14-.06-.15s0-.09-.07-.14l-.06-.14-.06-.14-.07-.14-.06-.14a1,1,0,0,0-.07-.15l-.06-.14-.06-.14a.91.91,0,0,0-.07-.14l-.06-.14-.06-.14a.61.61,0,0,0-.07-.14l-.06-.14a1,1,0,0,0-.07-.15l-.06-.14-.06-.14-.06-.14a1,1,0,0,1-.07-.15l-.06-.13a1,1,0,0,0-.07-.15l-.06-.14-.06-.14-.07-.14-.06-.14-.06-.14a1,1,0,0,1-.07-.15l-.06-.14-.07-.14-.06-.14-.06-.14c0-.05,0-.1-.07-.14l-.06-.15-.06-.14a.61.61,0,0,1-.07-.14l-.06-.14-.06-.14s-.05-.1-.07-.14l-.06-.15s0-.09-.07-.13l-.06-.15-.06-.14a.91.91,0,0,1-.07-.14l-.06-.14-.06-.14-.07-.14-.06-.15-.07-.14A113.42,113.42,0,0,0,1375.08,737a47.8,47.8,0,0,0-4.1-3.95c-23.11-19.74-48.16-29.74-74.45-29.74H1192.32a47.54,47.54,0,0,0-16.73,3.06,48.66,48.66,0,0,0-17.11-3.2H1020.9a47.59,47.59,0,0,0-21.21,5,51.59,51.59,0,0,0-6.74,4,142.42,142.42,0,0,0-19.22-5.36v0a75.28,75.28,0,0,0-12.4-1.82c-4.88-.32-11.65-.58-20.69-.78-16.58-.36-41.52-.55-74.13-.56l-3.78-.2c-.86,0-1.72-.07-2.58-.07a47.63,47.63,0,0,0-12.23,1.66,54.28,54.28,0,0,0-7.55-1.55,46,46,0,0,0-6-.38H773.66A51.34,51.34,0,0,0,754,707.07a48.54,48.54,0,0,0-18.75-3.86H656.86A47.7,47.7,0,0,0,638,707.09l-.24.08a49,49,0,0,0-5,2,48.59,48.59,0,0,0-10.2-1.19,112.05,112.05,0,0,0-11.6.79c-19.08-3.85-32.37-5.58-42.56-5.58l-1.39,0-1.48,0h-3c-1.2,0-2.4,0-3.59.13a154.57,154.57,0,0,0-37.07,7.11c-1.11.37-2.2.78-3.28,1.23-40.27,16.81-63.37,50.44-63.37,92.27V809a100.24,100.24,0,0,0,6.59,36.31l-.19.19a47.62,47.62,0,0,0-12.78,44.72c1.54,6.56,4.12,19.71,7.69,45.22a46.9,46.9,0,0,0,4,15.43l.06.14.07.14.06.14.06.14.07.14.06.15.07.14.06.14.06.14.07.14.06.14.06.15a.61.61,0,0,1,.07.14l.06.14.07.14.06.14.06.14.07.14.06.15.06.14a.61.61,0,0,1,.07.14l.06.14a.61.61,0,0,0,.07.14l.06.14.06.15.07.14.06.14.06.14.07.14.06.14-12-.21a47.45,47.45,0,0,0-13.05,1.84H332.88a47.63,47.63,0,0,0-36.47,17,47.57,47.57,0,0,0-30.42-11h-.47a47.68,47.68,0,0,0-34.36,15.12,47.69,47.69,0,0,0-39.91-21.58c-1.07,0-4.48.07-10.3.25-4.29.14-9.74.21-16.22.21h-74a47.67,47.67,0,0,0-44,66.14l.06.14.06.14c0,.05,0,.09.07.14l.06.14.07.15a1.47,1.47,0,0,0,.06.14l.06.14.07.14.06.14.06.14.07.14.06.15.07.14a.84.84,0,0,0,.06.14l.06.14s0,.09.07.14l.06.14.06.14.07.15.06.14.06.14c0,.05,0,.09.07.14l.06.14.07.14.06.15.06.14.07.14.06.14.06.14.07.14.06.14.06.15.07.14.06.14.07.14.06.14.06.15.07.14.06.14.06.14.07.14.06.14c0,.05.05.1.07.14l.06.14.06.15s0,.09.07.14l.06.14.06.14.07.14.06.14.07.15a1.47,1.47,0,0,0,.06.14l.06.14.07.14.06.14.06.14.07.15.06.14.06.14s.05.09.07.14l.06.14.07.14.06.14.06.15.07.14.06.14.06.14c0,.05,0,.09.07.14l.06.15a.75.75,0,0,1,.06.13l.07.15.06.14c0,.05,0,.09.07.14l.06.14.06.14.07.14.06.15a.84.84,0,0,1,.06.14l.07.14.06.14.07.14.06.14.06.15.07.14.06.14.06.14.07.14.06.14.07.15.06.14.06.14s0,.09.07.14l.06.14.06.14.07.14.06.15.07.14.06.14.06.14.07.14.06.15.06.14.07.14.06.14c0,.05,0,.09.07.14a.84.84,0,0,0,.06.14l.06.14.07.14.06.15.06.14.07.14.06.14a.61.61,0,0,0,.07.14.59.59,0,0,0,.06.14l.06.15.07.14.06.14.06.14c0,.05,0,.09.07.14l.06.14.06.15s0,.09.07.14l.06.14.07.14.06.14.06.14.07.14.06.15.06.14.07.14.06.14.06.14.07.15.06.13.07.15.06.14.06.14s0,.09.07.14l.06.14a1,1,0,0,0,.07.15.75.75,0,0,0,.06.13l.06.15s0,.09.07.14l.06.14.06.14.07.14.06.14.06.15c0,.05.05.09.07.14l.06.14.06.14a1,1,0,0,1,.07.15l.06.13.07.15.06.14.06.14.07.14.06.14.06.14.07.15.06.14.07.14.06.14.06.14c0,.05,0,.1.07.14l.06.14.06.15s0,.09.07.14l.06.14.07.14.06.14.06.15s0,.09.07.14l.06.14.06.14.07.14.06.14.06.14c0,.05,0,.1.07.14l.06.15.07.14.06.14.06.14.07.14.06.14.06.14.07.15.06.14s0,.09.07.14l.06.14.06.14.07.15.06.14.06.14c0,.05.05.09.07.14l.06.14a1.47,1.47,0,0,1,.06.14l.07.14.06.15.07.14.06.14.06.14.07.14.06.15a.59.59,0,0,1,.06.14l.07.14.06.14.07.14.06.14.06.14c0,.05,0,.1.07.14l.06.15.06.14.07.14.06.14.07.14.06.14.06.14.07.15.06.14.06.14.07.14.06.14.07.15.06.14.06.14.07.14.06.14.06.14.07.14.06.15.07.14a.84.84,0,0,0,.06.14l.06.14s0,.09.07.14l.06.14.06.15.07.14.06.14.07.14a.84.84,0,0,0,.06.14l.06.14.07.14.06.15.06.14.07.14.06.14.06.14.07.14.06.15.06.14.07.14.06.14.07.14.06.14.06.15.07.14.06.14.06.14.07.14.06.14c0,.05,0,.1.07.14l.06.14.06.15s.05.09.07.14l.06.14.06.14.07.15.06.13.07.15.06.14.06.14.07.14.06.14.06.14.07.15.06.14.06.14s0,.09.07.14l.06.14.07.14.06.15.06.14.07.14.06.14.06.14.07.15.06.13.07.15.06.14.06.14c0,.05,0,.09.07.14l.06.14.06.14.07.15.06.14.07.14.06.14.06.14.07.14.06.14.06.15.07.14.06.14.06.14.07.14.06.15.07.14.06.14.06.14s0,.09.07.14l.06.14.06.14.07.14.06.15.07.14.06.14.06.14.07.14.06.14.06.15.07.14.06.14c0,.05,0,.09.07.14a.84.84,0,0,0,.06.14l.06.14.07.15.06.14.06.14.07.14.06.14.06.14.07.14.06.15.07.14.06.14.06.14c0,.05,0,.09.07.14l.06.15.06.13.07.15.06.14.07.14.06.14.06.14.07.14.06.15.06.14.07.14.06.14.07.14.06.14.06.15.07.14.06.14.06.14s0,.09.07.14l.06.14.07.15a1.47,1.47,0,0,0,.06.14l.06.14s0,.09.07.14l.06.14.06.14.07.14.06.14.06.15c0,.05.05.09.07.14l.06.14c0,.05,0,.09.07.14l.06.15.06.13.07.15.06.14.06.14.07.14.06.14.06.14.07.15.06.14.06.12c3.34,13.49,7.23,28.86,11.57,45.78,4.78,18.67,9.69,38.48,14.59,58.85q7.63,31.72,14.36,59c4.36,17.8,7.9,33,10.5,45.34.3,1.4.57,2.69.81,3.88a47.72,47.72,0,0,0-13.56,58.73l.06.14.07.14.06.14.06.14a1,1,0,0,1,.07.15l.06.14.06.14a.61.61,0,0,1,.07.14l.06.14s0,.1.07.14l.06.14.06.15s0,.09.07.14l.06.14.06.14.07.14.06.14a1,1,0,0,0,.07.15l.06.14.06.14s0,.09.07.14l.06.14.06.14.07.14.06.15.07.14.06.14.06.14a.61.61,0,0,0,.07.14l.06.14.06.14s0,.1.07.15l.06.14.06.14.07.14.06.14a1,1,0,0,0,.07.15l.06.14.06.14s0,.09.07.14l.06.14.06.14.07.14.06.15.07.14.06.14.06.14s0,.1.07.14l.06.14.06.15s0,.09.07.14l.06.14.07.14.06.14.06.14a.61.61,0,0,0,.07.14l.06.15.06.14s0,.09.07.14l.06.14a.61.61,0,0,0,.07.14l.06.14.06.15.07.14.06.14.06.14.07.14.06.14a1,1,0,0,0,.07.15l.06.14.06.14.07.14.06.14.06.14s0,.1.07.14l.06.14.06.15a.61.61,0,0,1,.07.14l.06.14.06.14a1,1,0,0,1,.07.15l.06.13a1,1,0,0,0,.07.15l.06.14.06.14s0,.1.07.14l.06.14.06.14a1,1,0,0,1,.07.15l.06.14.07.14.06.14.06.14s0,.1.07.14l.06.15.06.14a.61.61,0,0,1,.07.14l.06.14.07.14.06.14.06.15s0,.09.07.14l.06.14.06.14.07.14.06.14.06.14.07.14.06.15s0,.09.07.14l.06.14.06.14s0,.1.07.14l.06.14.06.15a.61.61,0,0,1,.07.14l.06.14.07.14.06.14.06.14s0,.1.07.15l.06.14.06.14s0,.09.07.14l.06.14.06.14.07.14.06.15s0,.09.07.14l.06.14.06.14s0,.1.07.14l.06.15.06.14a.61.61,0,0,1,.07.14l.06.14s0,.1.07.14l.06.14.06.14c0,.05,0,.1.07.15l.06.14.06.14a.61.61,0,0,1,.07.14l.06.14a.61.61,0,0,0,.07.14l.06.14.06.15s0,.09.07.14l.06.14.06.14s0,.1.07.14l.06.15.06.13a1,1,0,0,1,.07.15l.06.14.07.14.06.14.06.14s0,.1.07.14l.06.15.06.14a.61.61,0,0,1,.07.14l.06.14a.61.61,0,0,0,.07.14l.06.14.06.15s0,.09.07.14l.06.14.06.14.07.14.06.14a1,1,0,0,0,.07.15l.06.14.06.14s0,.09.07.14l.06.14.06.14s0,.1.07.14l.06.15.07.14.06.14.06.14a.61.61,0,0,0,.07.14l.06.15.06.14s0,.09.07.14l.06.14.07.14.06.14.06.14a.61.61,0,0,0,.07.14l.06.15.06.14s0,.09.07.14l.06.14a.61.61,0,0,0,.07.14l.06.14.06.15.07.14.06.14.06.14c0,.05,0,.1.07.14l.06.14.06.15s0,.09.07.14l.06.14.06.14.07.14.06.14a.61.61,0,0,0,.07.14l.06.15.06.14s0,.09.07.14l.06.14.06.14a1,1,0,0,1,.07.15l.06.13a1,1,0,0,0,.07.15l.06.14.06.14.07.14.06.14.06.14a1,1,0,0,1,.07.15l.06.14.07.14.06.14.06.14s0,.1.07.14l.06.14.06.15a.61.61,0,0,1,.07.14l.06.14.06.14.07.14.06.15s0,.09.07.14l.06.14.06.14s0,.1.07.14l.06.14.06.14a1,1,0,0,1,.07.15l.06.14.06.14a.61.61,0,0,1,.07.14l.06.14c0,.05,0,.1.07.14l.06.14.06.15s0,.09.07.14l.06.14a.61.61,0,0,0,.07.14l.06.14.06.14s0,.1.07.15l.06.14.06.14.07.14.06.14.06.14.07.14.06.15.07.14.06.14.06.14s0,.1.07.14l.06.15.06.13a1,1,0,0,1,.07.15l.06.14.07.14.06.14.06.14a1,1,0,0,0,.07.15l.06.14.06.14s0,.09.07.14l.06.14a.61.61,0,0,0,.07.14l.06.14.06.15s0,.09.07.14l.06.14.06.14s0,.1.07.14l.06.15.06.14a.61.61,0,0,1,.07.14l.06.14.07.14.06.14.06.14s0,.1.07.14l.06.15.06.14a.61.61,0,0,1,.07.14l.06.14a.61.61,0,0,0,.07.14l.06.14.06.14a1,1,0,0,0,.07.15l.06.14.06.14s0,.1.07.14l.06.14a1,1,0,0,0,.07.15l.06.14.06.14.07.14.06.14.06.14s0,.1.07.14l.06.15.07.14.06.14.06.14a.61.61,0,0,0,.07.14l.06.14.06.15s0,.09.07.14l.06.14.06.14.07.14.06.14a.61.61,0,0,0,.07.14l.06.15.06.14.07.14.06.14.06.14s0,.1.07.14l.06.15.06.14a.61.61,0,0,1,.07.14l.06.14.07.14.06.14.06.15s0,.09.07.14l.06.14.06.14.07.14.06.14a.61.61,0,0,0,.07.14l.06.14.06.15s0,.09.07.14l.06.14.06.14a1,1,0,0,1,.07.15l.06.13a1,1,0,0,0,.07.15l.06.14.06.14s0,.1.07.14l.06.14.06.14a1,1,0,0,1,.07.15l.06.14.06.14a.91.91,0,0,1,.07.14l.06.14a.61.61,0,0,0,.07.14l.06.15.06.14s0,.09.07.14l.06.14.06.14.07.14.06.15.06.14a.61.61,0,0,1,.07.14l.06.14.07.14.06.14.06.14s0,.1.07.14l.06.15.07.14.06.14.06.14s0,.1.07.14l.06.14.06.15s0,.09.07.14l.06.14.06.14.07.14.06.14a1,1,0,0,0,.07.15l.06.14.06.14s0,.09.07.14l.06.14.06.14s0,.1.07.14l.06.15.07.14.06.14.06.14s0,.1.07.14l.06.15.06.14s0,.09.07.14l.06.14a.61.61,0,0,0,.07.14l.06.14.06.14a1,1,0,0,0,.07.15l.06.14.06.14s0,.09.07.14l.06.14a.61.61,0,0,0,.07.14l.06.14.06.14a1,1,0,0,0,.07.15l.06.14.06.14a47.68,47.68,0,0,0,42.85,26.77h107a47.65,47.65,0,0,0,9.22-.9,47.83,47.83,0,0,0,9.23.9H410.45a47.54,47.54,0,0,0,9.88-1.08,47.61,47.61,0,0,0,9.95,1.08h42.15l0,0,.06.13.06.15.07.14.06.14.06.14.07.14.06.15.07.14.06.14.06.14.07.14.06.14.06.14.07.15.06.14.06.14.07.14.06.14.07.14.06.14.06.15.07.14.06.14.06.14.07.14.06.14.07.15.06.14.06.14s.05.09.07.14l.06.14.06.14.07.14.06.14.07.15.06.14.06.14.07.14.06.15.06.13.07.15.06.14c0,.05.05.09.07.14l.06.14.06.14.07.14.06.15.06.14.07.14.06.14a1,1,0,0,0,.07.15.75.75,0,0,0,.06.13l.06.15.07.14.06.14.06.14.07.14.06.14a1,1,0,0,0,.07.15,1.47,1.47,0,0,0,.06.14l.06.14.06.14.07.14.06.14.07.14.06.14.06.15.07.14.06.14.06.14.07.15.06.13.07.15.06.14.06.14.07.14.06.14.06.14.07.15.06.14.06.14.07.14.06.14.07.14.06.15.06.14.07.14.06.14.06.14.07.14.06.15.07.14.06.14.06.14.07.14.06.14.06.14.07.15.06.14.07.14.06.14.06.14.07.15.06.14.06.14.07.14.06.14a.84.84,0,0,1,.06.14l.07.14.06.14.07.15.06.14.06.14.07.14.06.14a1.47,1.47,0,0,1,.06.14l.07.14.06.15.07.14.06.14.06.14.07.14.06.15.06.14.07.14.06.14.07.14.06.14.06.14.07.15.06.14.06.14c0,.05.05.09.07.14l.06.14.07.14.06.14.06.15.07.14.06.14.06.14s.05.09.07.14l.06.14a1,1,0,0,0,.07.15l.06.14.06.14.07.14.06.14.06.14c0,.05.05.1.07.14l.06.15.06.14.07.14.06.14.07.15a.36.36,0,0,0,0,.09v117.92a50.14,50.14,0,0,0-22.05,41.61c0,.82,0,1.65.07,2.47a53.52,53.52,0,0,0,5.17,20.78.61.61,0,0,1,.07.14l.06.14.07.14.06.14.06.14s0,.1.07.14l.06.15.06.14a.61.61,0,0,1,.07.14l.06.14.06.14.07.14.06.15.07.14.06.14.06.14c0,.05,0,.1.07.14l.06.14.06.15a.61.61,0,0,1,.07.14l.06.14.07.14.06.14.06.14s0,.1.07.15l.06.14.06.14a.61.61,0,0,1,.07.14l.06.14a.61.61,0,0,0,.07.14l.06.14.06.15s0,.09.07.14l.06.14.06.14.07.14.06.14.06.14a1,1,0,0,1,.07.15l.06.14.07.14.06.14.06.14s0,.1.07.14l.06.15.06.14a.61.61,0,0,1,.07.14l.06.14a.61.61,0,0,0,.07.14l.06.14.06.14s0,.1.07.15l.06.14.06.14a.91.91,0,0,1,.07.14l.06.14a1,1,0,0,0,.07.15l.06.14.06.14s0,.09.07.14l.06.14.06.14.07.14.06.14a1,1,0,0,0,.07.15l.06.14.06.14a.61.61,0,0,0,.07.14l.06.14.06.14s0,.1.07.15l.06.14.06.14.07.14.06.14a.61.61,0,0,0,.07.14l.06.15.06.14s0,.09.07.14l.06.14.06.14.07.14.06.14a1,1,0,0,0,.07.15l.06.14.06.14.07.14.06.14.06.15a.61.61,0,0,1,.07.14l.06.14.06.14.07.14.06.14a.61.61,0,0,0,.07.14l.06.14.06.15s0,.09.07.14l.06.14.06.14.07.14.06.14a1,1,0,0,0,.07.15l.06.14.06.14.07.14.06.14.06.14a1,1,0,0,1,.07.15l.06.14.06.14a.61.61,0,0,1,.07.14l.06.14a.61.61,0,0,0,.07.14l.06.14.06.15s0,.09.07.14l.06.14.06.14.07.14.06.15.07.14.06.14.06.14.07.14.06.14.06.14s.05.1.07.14l.06.15s0,.09.07.14l.06.14.06.14a.61.61,0,0,0,.07.14l.06.14.06.14a1,1,0,0,1,.07.15l.06.14.06.14.07.14.06.14a.61.61,0,0,0,.07.14l.06.15.06.14s0,.09.07.14l.06.14.06.14.07.14.06.15.07.14.06.14.06.14s0,.1.07.14l.06.14.06.15a.61.61,0,0,1,.07.14l.06.14.07.14.06.14.06.14a1,1,0,0,0,.07.15l.06.14.06.14a.61.61,0,0,1,.07.14l.06.14.06.14.07.14.06.15.07.14.06.14.06.14.07.14.06.14.06.14a1,1,0,0,1,.07.15l.06.14s0,.09.07.14l.06.14.06.14s0,.1.07.14l.06.15.06.14a.61.61,0,0,1,.07.14l.06.14a.61.61,0,0,0,.07.14l.06.14.06.14a1,1,0,0,0,.07.15l.06.14.06.14c0,.05,0,.09.07.14l.06.14a1,1,0,0,0,.07.15l.06.14.06.14s0,.09.07.14l.06.14.06.14s0,.1.07.14l.06.15.06.14a.61.61,0,0,1,.07.14l.06.14.07.14.06.14.06.14c0,.05,0,.1.07.15l.06.14.06.14.07.14.06.14.06.14a1,1,0,0,1,.07.15l.06.14.07.14.06.14.06.14.07.14.06.14.06.15a.61.61,0,0,1,.07.14l.06.14.07.14.06.14.06.14s0,.1.07.15l.06.14.06.14.07.14.06.14.06.14.07.14.06.15s0,.09.07.14l.06.14.06.14.07.14.06.14.06.15a.61.61,0,0,1,.07.14l.06.14a.91.91,0,0,0,.07.14l.06.14.06.14a1,1,0,0,1,.07.15l.06.14.06.14a.61.61,0,0,1,.07.14l.06.14a.61.61,0,0,0,.07.14l.06.14.06.15s0,.09.07.14l.06.14.06.14.07.14.06.15.06.13a1,1,0,0,1,.07.15l.06.14s0,.09.07.14l.06.14.06.14s0,.1.07.14l.06.15.06.14a.61.61,0,0,1,.07.14l.06.14a.61.61,0,0,0,.07.14l.06.14.06.15s0,.09.07.14l.06.14.06.14s.05.1.07.14l.06.14a1,1,0,0,0,.07.15l.06.14.06.14s0,.09.07.14l.06.14.06.14.07.14.06.15.07.14.06.14.06.14a.61.61,0,0,0,.07.14l.06.14.06.14s0,.1.07.15l.06.14.06.14.07.14.06.14a1,1,0,0,0,.07.15l.06.14.06.14s0,.09.07.14l.06.14.06.14.07.14.06.15s0,.09.07.14l.06.14.06.14s0,.1.07.14l.06.14.06.14a1,1,0,0,1,.07.15l.06.14.07.14.06.14.06.14a.61.61,0,0,0,.07.14l.06.15.06.14s0,.09.07.14l.06.14.06.14s.05.1.07.14l.06.14a1,1,0,0,0,.07.15l.06.14.06.14.07.14.06.14.06.15a.61.61,0,0,1,.07.14l.06.14.07.14.06.14.06.14c0,.05,0,.1.07.14l.06.14.06.15a.61.61,0,0,1,.07.14l.06.14.06.14.07.14.06.14a1,1,0,0,0,.07.15l.06.14.06.14.07.14.06.14.06.14a1,1,0,0,1,.07.15l.06.14s0,.09.07.14l.06.14.06.14s0,.1.07.14l.06.14.06.15a.61.61,0,0,1,.07.14l.06.14.06.14.07.14.06.15s0,.09.07.13l.06.15.06.14.07.14.06.14.06.14.07.14.06.15.07.14.06.14.06.14.07.14.06.14.06.15a.61.61,0,0,1,.07.14l.06.14.07.14.06.14.06.14c0,.05,0,.1.07.15l.06.14.06.14a.61.61,0,0,1,.07.14l.06.14.06.14.07.14.06.15.07.14.06.14.06.14s0,.1.07.14l.06.15.06.14a.61.61,0,0,1,.07.14l.06.14a.91.91,0,0,0,.07.14l.06.14.06.14s0,.1.07.14l.06.15.06.14a.61.61,0,0,1,.07.14l.06.14a.61.61,0,0,0,.07.14l.06.14.06.14a1,1,0,0,0,.07.15l.06.14.06.14.07.14.06.14a1,1,0,0,0,.07.15l.06.14.06.14.07.14.06.14.06.14s0,.1.07.14l.06.15.07.14.06.14A49,49,0,0,0,536,1726.38h106.1c19,0,33.24-1.46,44.87-4.6a123.81,123.81,0,0,0,20.44-7.28,50.69,50.69,0,0,0,32.92,11.88H842a47.67,47.67,0,0,0,25.61-7.45,56.71,56.71,0,0,0,8.36-6.47c20.82,9.24,41.91,13.92,62.78,13.92h11.89c7,0,17.53-.44,32.17-1.36a47.6,47.6,0,0,0,18.33-4.94,50.42,50.42,0,0,0,18.58-15.8,47.47,47.47,0,0,0,20.74-1.48,47.6,47.6,0,0,0,35.57,21.52c5,.46,10,.7,14.82.7a159.62,159.62,0,0,0,108.1-42.35c9.76,18.17,29.83,26.34,39.92,30.41,1.07.44,2.15.83,3.25,1.18,25.72,8.27,45.48,12.12,62.17,12.12H1314c4.06,0,9.69-.17,17.18-.53a47.62,47.62,0,0,0,13.94-2.77c11.86-1.09,24.65-5.22,40.49-13l.43-.21c25.14-12.67,43.13-33.06,52-59a48,48,0,0,0,2.45-12,46.86,46.86,0,0,0,.75-5.35c.67-7.9,1.09-11.22,1.25-12.32a47.8,47.8,0,0,0,1.14-10.39,113.73,113.73,0,0,0-10.77-48.55l-.07-.14-.06-.14-.07-.14-.06-.14a1,1,0,0,0-.07-.15l-.06-.14-.06-.14a.91.91,0,0,0-.07-.14l-.06-.14-.06-.14a1,1,0,0,0-.07-.15l-.06-.14-.07-.14-.06-.14-.06-.14-.06-.14a1,1,0,0,1-.07-.15l-.06-.13a1,1,0,0,0-.07-.15l-.06-.14-.06-.14s0-.1-.07-.14l-.06-.14-.06-.14a1,1,0,0,1-.07-.15l-.06-.14-.06-.14a.91.91,0,0,1-.07-.14l-.06-.15s0-.09-.07-.13l-.06-.15-.06-.14a.91.91,0,0,1-.07-.14l-.06-.14-.06-.14s-.05-.1-.07-.14l-.06-.15-.07-.14-.06-.14-.06-.14a1,1,0,0,1-.07-.15l-.06-.13-.06-.15a.61.61,0,0,1-.07-.14l-.06-.14a.91.91,0,0,0-.07-.14l-.06-.14-.06-.14a1,1,0,0,1-.07-.15l-.06-.14-.06-.14a.61.61,0,0,1-.07-.14l-.06-.14-.06-.14-.07-.14-.06-.15s0-.09-.07-.14l-.06-.14-.06-.14-.07-.14-.06-.15-.06-.14a.83.83,0,0,1-.07-.13l-.06-.15-.07-.14-.06-.14-.06-.14a.61.61,0,0,0-.07-.14l-.06-.15-.06-.14a.61.61,0,0,1-.07-.14l-.06-.14a1,1,0,0,0-.07-.15l-.06-.13-.06-.15-.07-.14-.06-.14-.06-.14a.91.91,0,0,1-.07-.14l-.06-.14a1,1,0,0,0-.07-.15l-.06-.14-.06-.14-.07-.14-.06-.14-.06-.14s0-.1-.07-.14l-.06-.15-.07-.14-.06-.14-.06-.14-.06-.14a1,1,0,0,1-.07-.15l-.06-.13s0-.1-.07-.14l-.06-.15-.07-.14v0c.25-.33.52-.64.77-1a47.7,47.7,0,0,0,9.37-28.39v-2.06a48,48,0,0,0-.77-8.55c-3.73-20.49-4.84-26.79-5.17-28.71-1.13-10.33-2.17-18.15-3.17-23.87a75.34,75.34,0,0,0-4.88-16.9l-.06-.14-.07-.14-.06-.14-.06-.14-.07-.15-.06-.13-.06-.15a.91.91,0,0,1-.07-.14l-.06-.14-.07-.14-.06-.14-.06-.14-.07-.15-.06-.14-.06-.14-.07-.14-.06-.14-.06-.14a1,1,0,0,1-.07-.15l-.06-.14s0-.09-.07-.14l-.06-.14-.06-.14-.07-.14-.06-.15-.06-.14-.07-.14-.06-.14-.07-.14-.06-.14-.06-.14,0-.06h163.22a47.68,47.68,0,0,0,38.75-19.9,47.69,47.69,0,0,0,38.75,19.9l137,1.36c20.65,0,38.06-14.67,44.44-34.32a47.63,47.63,0,0,0-1.35-33.06l-.06-.14-.07-.14a.59.59,0,0,0-.06-.14l-.06-.15s-.05-.09-.07-.14l-.06-.14-.06-.14-.07-.14-.06-.15a.59.59,0,0,1-.06-.14l-.07-.14-.06-.14-.07-.14-.06-.14-.06-.14-.07-.14-.06-.15-.06-.14-.07-.14-.06-.14-.07-.14-.06-.14-.06-.15-.07-.14-.06-.14-.06-.14-.07-.14-.06-.14-.07-.15-.06-.14-.06-.14s-.05-.09-.07-.14l-.06-.14-.06-.14-.07-.14-.06-.15s0-.09-.07-.14l-.06-.14-.06-.14s-.05-.09-.07-.14l-.06-.15-.06-.13-.07-.15-.06-.14-.06-.14s0-.09-.07-.14l-.06-.14-.07-.14-.06-.15-.06-.14-.07-.14-.06-.14-.06-.14-.07-.14-.06-.15a.59.59,0,0,1-.06-.14l-.07-.14-.06-.14c0-.05,0-.09-.07-.14l-.06-.14-.06-.15s0-.09-.07-.14l-.06-.14-.06-.14-.07-.14-.06-.14s0-.1-.07-.14l-.06-.14-.06-.15-.07-.14-.06-.14-.06-.14-.07-.15-.06-.13-.07-.15a1.47,1.47,0,0,0-.06-.14l-.06-.14-.07-.14-.06-.14-.06-.14-.07-.15-.06-.14-.06-.14-.07-.14-.06-.14-.07-.14-.06-.15-.06-.14-.07-.14-.06-.14-.06-.14s0-.09-.07-.14l-.06-.15-.07-.14-.06-.14-.06-.14-.07-.14-.06-.14-.06-.14-.07-.15-.06-.14a.84.84,0,0,1-.06-.14c0-.05-.05-.09-.07-.14l-.06-.14-.07-.15-.06-.13-.06-.15-.07-.14-.06-.14a.84.84,0,0,1-.06-.14s-.05-.09-.07-.14l-.06-.14-.07-.15-.06-.14-.06-.14-.07-.14-.06-.14-.06-.14-.07-.14-.06-.15-.07-.14-.06-.14-.06-.14-.07-.14-.06-.15-.06-.14-.07-.14-.06-.14s0-.09-.07-.14l-.06-.14-.06-.14-.07-.15-.06-.14-.06-.14c0-.05,0-.09-.07-.14l-.06-.14a.61.61,0,0,0-.07-.14.59.59,0,0,0-.06-.14l-.06-.15-.07-.14-.06-.14-.06-.14s0-.09-.07-.14l-.06-.15-.06-.14s-.05-.09-.07-.14l-.06-.14-.07-.14-.06-.14-.06-.14c0-.05,0-.1-.07-.14l-.06-.15-.06-.14-.07-.14-.06-.14c0-.05,0-.1-.07-.14l-.06-.14-.06-.15s0-.09-.07-.14l-.06-.14-.06-.14s-.05-.09-.07-.14l-.06-.14-.07-.15a1.47,1.47,0,0,0-.06-.14l-.06-.14-.07-.14-.06-.14-.06-.14-.07-.14-.06-.15-.06-.14-.07-.14-.06-.14a.84.84,0,0,1-.06-.14,1,1,0,0,1-.07-.15l-.06-.14-.07-.14-.06-.14-.06-.14c0-.05,0-.09-.07-.14l-.06-.14-.06-.14-.07-.15-.06-.14c0-.05,0-.09-.07-.14l-.06-.14-.06-.14-.07-.14-.06-.14-.06-.15-.07-.14-.06-.14-.07-.14-.06-.14-.06-.15s-.05-.09-.07-.14l-.06-.14-.06-.14-.07-.14-.06-.14a1.47,1.47,0,0,1-.06-.14,1,1,0,0,1-.07-.15l-.06-.14s-.05-.09-.07-.14l-.06-.14-.06-.14-.07-.14-.06-.15a.59.59,0,0,1-.06-.14l-.07-.14-.06-.14s-.05-.09-.07-.14l-.06-.14-.06-.14-.07-.15-.06-.14-.06-.14s0-.09-.07-.14l-.06-.14-.07-.14a.94.94,0,0,0-.06-.15l-.06-.14-.07-.14-.06-.14-.06-.14-.07-.14-.06-.15a.59.59,0,0,1-.06-.14l-.07-.14-.06-.14c0-.05,0-.09-.07-.14l-.06-.14-.06-.14-.07-.15-.06-.14-.06-.14-.07-.14-.06-.14s-.05-.1-.07-.14l-.06-.14-.06-.15-.07-.14-.06-.14-.06-.14-.07-.14-.06-.14-.07-.15-.06-.14-.06-.14s0-.09-.07-.14l-.06-.14-.06-.14-.07-.14-.06-.15s-.05-.09-.07-.14l-.06-.14-.06-.14-.07-.14-.06-.15-.06-.14-.07-.14-.06-.14a.84.84,0,0,1-.06-.14s0-.09-.07-.14l-.06-.14-.07-.14-.06-.15-.06-.14-.07-.14-.06-.14-.06-.14-.07-.14-.06-.15-.07-.14-.06-.14-.06-.14c0-.05,0-.09-.07-.14l-.06-.14-.06-.15s0-.09-.07-.14l-.06-.14-.07-.14-.06-.14-.06-.14-.07-.14-.06-.15-.06-.14-.07-.14-.06-.14a.61.61,0,0,0-.07-.14.59.59,0,0,0-.06-.14l-.06-.15-.07-.14-.06-.14-.06-.14-.07-.14-.06-.14-.06-.15-.07-.14-.06-.14s0-.09-.07-.14a.84.84,0,0,0-.06-.14l-.06-.14-.07-.14-.06-.15-.06-.14c0-.05,0-.09-.07-.14l-.06-.14-.06-.14-.07-.15-.06-.13-.07-.15-.06-.14-.06-.14-.07-.14-.06-.14-.06-.14-.07-.15-.06-.14-.07-.14a.84.84,0,0,0-.06-.14l-.06-.14c0-.05,0-.1-.07-.14l-.06-.15-.06-.14-.07-.14-.06-.14a.84.84,0,0,1-.06-.14s0-.1-.07-.14l-.06-.15s0-.09-.07-.14l-.06-.14-.06-.14-.07-.14-.06-.14-.06-.14c0-.05,0-.1-.07-.14l-.06-.15-.07-.14-.06-.14-.06-.14-.07-.15-.06-.13-.06-.15s-.05-.09-.07-.14l-.06-.14s0-.09-.07-.14l-.06-.14-.06-.14-.07-.15-.06-.14-.06-.14c0-.05-.05-.09-.07-.14l-.06-.14a1.47,1.47,0,0,1-.06-.14l-.07-.15-.06-.14-.07-.14-.06-.14-.06-.14s-.05-.09-.07-.14l-.06-.15a.59.59,0,0,1-.06-.14l-.07-.14-.06-.14-.07-.14-.06-.14-.06-.14-.07-.15-.06-.14-.06-.14-.07-.14-.06-.14-.07-.15-.06-.13-.06-.15s-.05-.09-.07-.14l-.06-.14-.06-.14s0-.09-.07-.14l-.06-.14-.07-.15a1.47,1.47,0,0,0-.06-.14l-.06-.14-.07-.14-.06-.14-.06-.14-.07-.14-.06-.15-.07-.14a.84.84,0,0,0-.06-.14l-.06-.14-.07-.14-.06-.15-.06-.14s-.05-.09-.07-.14l-.06-.14-.07-.14a.84.84,0,0,0-.06-.14l-.06-.14a.94.94,0,0,1-.06-.15l-.07-.14-.06-.14c0-.05-.05-.09-.07-.14l-.06-.14-.06-.15-.07-.13-.06-.15-.06-.14-.07-.14-.06-.14s-.05-.09-.07-.14l-.06-.14-.06-.15-.07-.14-.06-.14-.06-.14-.07-.14-.06-.14a47.85,47.85,0,0,0-6-10.49v-95.79a47.68,47.68,0,0,0,64.13-44.75v-94.57A47.53,47.53,0,0,0,1869.2,1044.9Zm-635.63,15.68-3.76-6.31h5C1234.4,1056.38,1234,1058.49,1233.57,1060.58Z"/></g><g id="Outline"><path class="cls-2" d="M1798.51,956.29H1632c-13,0-17.56-.14-19-.2a49.79,49.79,0,0,0-5-.26,47.69,47.69,0,0,0-9.33.92H1446.9a48.28,48.28,0,0,0,1.52-11.93V943a47.72,47.72,0,0,0-7.21-25.21l-.68-1.09a47.39,47.39,0,0,0-40.3-22.47,17.34,17.34,0,0,1-3.44-.81,38.66,38.66,0,0,1-2.07-3.28c-.58-1-1.19-2-1.84-3-2.8-4.16-5.25-7.87-7.4-11.16,12.33-17.35,18.36-40.34,18.36-69.77,0-17.35-5-43.44-28.76-69.23a47.8,47.8,0,0,0-4.1-3.95c-23.11-19.74-48.16-29.74-74.45-29.74H1192.32a47.54,47.54,0,0,0-16.73,3.06,48.66,48.66,0,0,0-17.11-3.2H1020.9a47.59,47.59,0,0,0-21.21,5,51.59,51.59,0,0,0-6.74,4,142.42,142.42,0,0,0-19.22-5.36v0a75.28,75.28,0,0,0-12.4-1.82c-4.88-.32-11.65-.58-20.69-.78-16.58-.36-41.52-.55-74.13-.56l-3.78-.2c-.86,0-1.72-.07-2.58-.07a47.63,47.63,0,0,0-12.23,1.66,54.28,54.28,0,0,0-7.55-1.55,46,46,0,0,0-6-.38H773.66A51.34,51.34,0,0,0,754,707.07a48.54,48.54,0,0,0-18.75-3.86H656.86A47.7,47.7,0,0,0,638,707.09l-.24.08a49,49,0,0,0-5,2,48.59,48.59,0,0,0-10.2-1.19,112.05,112.05,0,0,0-11.6.79c-19.08-3.85-32.37-5.58-42.56-5.58l-1.39,0-1.48,0h-3c-1.2,0-2.4,0-3.59.13a154.57,154.57,0,0,0-37.07,7.11c-1.11.37-2.2.78-3.28,1.23-40.27,16.81-63.37,50.44-63.37,92.27V809a100.24,100.24,0,0,0,6.59,36.31l-.19.19a47.62,47.62,0,0,0-12.78,44.72c1.54,6.56,4.12,19.71,7.69,45.22a46.34,46.34,0,0,0,6.26,19.68l-12.33-.22a47.45,47.45,0,0,0-13.05,1.84H332.88a47.63,47.63,0,0,0-36.47,17,47.57,47.57,0,0,0-30.42-11h-.47a47.68,47.68,0,0,0-34.36,15.12,47.69,47.69,0,0,0-39.91-21.58c-1.07,0-4.48.07-10.3.25-4.29.14-9.74.21-16.22.21h-74a47.67,47.67,0,0,0-31.43,83.52,18.94,18.94,0,0,1,1.67,1.88l.55.68c.15.23.39.64.7,1.24a31.13,31.13,0,0,1,1.92,4.87c.69,2.76,6.14,24.82,6.14,24.82,3.51,14.2,7.66,30.63,12.33,48.82,4.78,18.67,9.69,38.48,14.59,58.85q7.63,31.72,14.36,59c4.36,17.8,7.9,33,10.5,45.34.3,1.4.57,2.69.81,3.88A47.68,47.68,0,0,0,152,1375h107a47.83,47.83,0,0,0,9.23-.9,46.87,46.87,0,0,0,9.22.9H383.63a47.46,47.46,0,0,0,9.88-1.07,47.61,47.61,0,0,0,9.95,1.07h60.16a51.73,51.73,0,0,0-3.83,19.67v1.59a48.78,48.78,0,0,0,22.52,40.91v137.29a50.14,50.14,0,0,0-22.05,41.61c0,.82,0,1.65.07,2.47,1.62,31.32,26.39,48.22,48.88,48.22h106.1c19,0,33.25-1.47,44.87-4.6a124.41,124.41,0,0,0,20.44-7.29,50.64,50.64,0,0,0,32.92,11.89H815.2a47.67,47.67,0,0,0,25.6-7.46,56.68,56.68,0,0,0,8.36-6.46c20.83,9.24,41.91,13.92,62.78,13.92h11.89c7,0,17.53-.45,32.17-1.37a47.58,47.58,0,0,0,18.33-4.93,50.63,50.63,0,0,0,18.59-15.8,47.27,47.27,0,0,0,20.73-1.49,47.59,47.59,0,0,0,35.57,21.52c5,.47,10,.71,14.82.71a159.61,159.61,0,0,0,108.1-42.36c9.76,18.17,29.83,26.34,39.92,30.42,1.07.43,2.16.82,3.25,1.18,25.72,8.26,45.48,12.12,62.18,12.12h9.67c4.07,0,9.69-.18,17.18-.53a48,48,0,0,0,13.94-2.78c11.87-1.09,24.66-5.22,40.49-13l.43-.21c25.14-12.67,43.13-33.07,52-59a47.53,47.53,0,0,0,2.45-12,47,47,0,0,0,.76-5.36c.66-7.9,1.09-11.22,1.24-12.32a47.74,47.74,0,0,0,1.15-10.39A112.72,112.72,0,0,0,1399,1490q.83-1,1.62-2.07a47.7,47.7,0,0,0,9.37-28.38v-2.06a47.23,47.23,0,0,0-.77-8.56c-3.73-20.48-4.84-26.78-5.16-28.71-1.14-10.33-2.18-18.15-3.18-23.87a71,71,0,0,0-7-21.34h163.34a47.66,47.66,0,0,0,38.75-19.9,47.66,47.66,0,0,0,38.75,19.9h136.09a47.67,47.67,0,0,0,28-86.26,59.11,59.11,0,0,1-10.06-9.3,45.24,45.24,0,0,1-5.56-9.46,18.43,18.43,0,0,1-1.14-7.24V1143.29a47.68,47.68,0,0,0,64.12-44.75V1004A47.67,47.67,0,0,0,1798.51,956.29Zm-821.15,256.5a47.52,47.52,0,0,0-9.08.87v-76.21a47.91,47.91,0,0,0,12.6-4.47v80C979.7,1212.9,978.53,1212.79,977.36,1212.79Zm245.36-191.55,12.71,29.88c-.63,3.2-1.24,6.32-1.86,9.46l-39.34-65.9h25.36A47.75,47.75,0,0,0,1222.72,1021.24ZM981.25,915l.41-.1-.25.35C981.36,915.17,981.31,915.08,981.25,915ZM816.53,968.4a51.44,51.44,0,0,0,31.66,24.45l-26.75,28.79-24.18-40.5A101.71,101.71,0,0,0,816.53,968.4ZM1154.76,1375h44.11a100.22,100.22,0,0,0-18.51,22.14A160.89,160.89,0,0,0,1154.76,1375Zm461.82-102a60.36,60.36,0,0,1-14.56,19.7,47.94,47.94,0,0,0-6,6.9,47.61,47.61,0,0,0-8-8.65,75.88,75.88,0,0,1-12.61-13.5V1233a47.68,47.68,0,0,0,41.2-9.1Z"/></g><g id="Super_Warcraft_Bros" data-name="Super Warcraft Bros"><g id="Bros"><path class="cls-3" d="M691.11,1553.3V1552q0-10.3-5.87-24.11-17.6-30.12-46.3-30.13h-5.08v-1a50.42,50.42,0,0,0,7.3-1.27q12.52-3,23.79-15.7,11.88-17,13.16-32.67,0-12.53-3-20.78-14.13-34.73-65-34.73H510.48a2.67,2.67,0,0,0-3,3v1.59q0,2.06,14.91,4,7.61,2.07,7.61,8.88v194.76q0,6.18-12.69,8.4-9.34,0-9.35,3.81c.1,2,.53,3,1.27,3h106.1q21.72,0,32.66-3,43.14-11.1,43.14-56.78v-2.53l.48-2.22C691.27,1554.57,691.11,1554.14,691.11,1553.3Zm-109-149.24.48-1c3,0,7.45-.11,13.47-.32q7.62,0,15.71,5.08,17.91,15.54,17.92,38.06a78.18,78.18,0,0,1-6,30.13q-8.57,16.18-20,16.18H582.16Zm51.7,185.71q-8.08,16.65-30.13,16.66-21.57-3.66-21.57-12.37V1505.4h5.55a127.13,127.13,0,0,1,15.23.79q37.26,9,37.27,50.91Q640.21,1577.56,633.86,1589.77Z"/><path class="cls-3" d="M927.17,1607.69q-15.55-5.39-27.92-27.12-32.36-48.21-32.35-55.5a100.16,100.16,0,0,0,20-14.91q15.71-15.06,15.7-54.24,0-22.51-18.71-42.82-24.9-21.25-50.43-21.25H712.59Q711,1393,711,1393.59v2.07q0,1.89,9.2,3.49,15.38,3.33,15.38,11.89v189.83q0,8.1-14.11,10.63-10.94.64-10.94,4.6,0,3,3,3H815.2q1.74-1.11,1.74-1.74v-1.59l-.47-2.22q-1.59-.94-16-3.33-6.83-2.37-6.82-10.15v-3.8c0-2,.16-3.18.47-3.49a30.25,30.25,0,0,1-.47-4.6v-17q0-15.08.47-27.6-.47-3.48-.47-23.31V1519h2.06a31.36,31.36,0,0,1,15.38,8.88l22.84,42.5q15.23,30,30.13,36.8,24.42,11.9,47.9,11.89h11.89q8.89,0,29.18-1.27c.85-.42,1.27-.84,1.27-1.26v-2.07l-.79-1.27Q941.76,1613.24,927.17,1607.69Zm-82.31-131q-7.79,28.86-25.38,28.86h-6.82q-18.55-2.85-18.56-13.16v-87.86h5.4l2.22-.32a.28.28,0,0,0,.31.32l2.22-.32.8.32c.1,0,.69-.11,1.74-.32a3.48,3.48,0,0,1,1.27.32,3.41,3.41,0,0,1,1.59-.32l2.69.32.8-.32q4.43,0,14,5.07,20.29,17.61,20.3,45.36A91.4,91.4,0,0,1,844.86,1476.7Z"/><path class="cls-3" d="M1304.6,1477q-57.72-17.91-57.73-41.55v-3q0-9.51,7.62-17.92,10.46-7.93,17-7.93l1,.31,11.89-1.58a69.14,69.14,0,0,1,20.78,2.85q31.71,13,48.37,44.25,3.33,9.21,5.07,9.2c2.22-1,3.49-1.64,3.81-2.06v-2.06q-5.55-30.45-5.55-31.09-3.18-29.18-5.07-29.18t-14,1.27h-3.49q-32.21-6.81-45.36-6.82a8.68,8.68,0,0,1-1.74.48c0-.32-.43-.48-1.27-.48h-.32l-1,.48c0-.32-.11-.48-.32-.48h-2.22a123.71,123.71,0,0,0-29.65,5.55q-39.5,16.5-39.49,56v5.86q0,30.45,26.32,50.59a195.65,195.65,0,0,0,21.25,13.17,319.35,319.35,0,0,1,39,18.55q23.31,17.46,23.31,32.67,0,11.1-5.55,18.24-6.66,8.42-22.84,11.9v-.32l-9.35,1.27q-20.94,0-45-20.78-18.72-18.87-25.86-33.94-4.92-11.25-5.55-11.58h-1.26a5,5,0,0,0-3.34,1.75q4.6,19.5,10.15,59.47,0,2.87,15.71,9.2,30.6,9.84,47.57,9.83h9.68q4.9,0,14.91-.47c0-.21.15-.32.47-.32q0-.63,9.36-2.22,8.71,0,25.85-8.41,21.09-10.62,28.39-31.87l-.48-.79c.42-3.39.85-5.08,1.27-5.08q1.26-15.06,2.22-18.72Q1369.15,1501.45,1304.6,1477Z"/><g id="Smash_Ball" data-name="Smash Ball"><path id="Bottom_Right_Y_" data-name="Bottom Right (Y)" class="cls-4" d="M1053.61,1617.25c3.44.32,6.91.5,10.43.5a111.71,111.71,0,0,0,101.74-65.55H1053.61Z"/><path id="Bottom_Left_G_" data-name="Bottom Left (G)" class="cls-5" d="M962.3,1552.2a112.16,112.16,0,0,0,37.68,45.34V1552.2Z"/><path id="Top_Left_B_" data-name="Top Left (B)" class="cls-6" d="M1000,1414.48a111.63,111.63,0,0,0-44.76,116.86H1000Z"/><path id="Top_Right_R_" data-name="Top Right (R)" class="cls-7" d="M1172.86,1531.34A111.7,111.7,0,0,0,1064,1394.27c-3.52,0-7,.18-10.43.5v136.57Z"/></g></g><g id="Warcraft"><path class="cls-8" d="M412,1050.1c2.31-8.31,4.22-13.68,5.77-16.15,3.38-4.91,6.46-9.23,9.22-12.92a85.59,85.59,0,0,1,7.85-9.22,55.29,55.29,0,0,1,7.84-7.38H332.88a14.6,14.6,0,0,1,5.54,4.15,19.09,19.09,0,0,1,3.92,6.23,26.34,26.34,0,0,1,1.61,9.91,31.35,31.35,0,0,1-.46,6q-.93,4.15-2.3,13.38T338,1066.25q-1.86,12.91-4.16,27.67t-4.61,30q-5.08,35.53-11.53,78L266,1010.42,217.09,1207q-10.16-46.12-18-84.42-3.71-16.15-6.92-32.07t-5.77-29.06q-2.53-13.14-4.15-22.6t-2.08-12.23v-2.77a21.68,21.68,0,0,1,1.62-8.76,19.21,19.21,0,0,1,3.92-6,29.45,29.45,0,0,1,5.53-5.08q-1.38,0-8.76.23t-17.76.24h-74a62,62,0,0,1,7.39,7.84,50.88,50.88,0,0,1,6.45,9.92,79.19,79.19,0,0,1,5.54,14.07q1.38,5.54,6.46,26.06t12.22,48.44q7.15,27.93,14.77,59.51t14.3,58.82q6.67,27.24,10.84,46.83t4.15,23.3a19.21,19.21,0,0,1-3.46,11.07,60,60,0,0,1-7.15,8.76,66.38,66.38,0,0,1-10.15,8.31h107a15.33,15.33,0,0,1-4.15-3.69,18.14,18.14,0,0,1-3-5.77,29,29,0,0,1-1.15-9v-2.3q.45-6,3.22-22.38t6.46-33.44q4.16-19.83,8.77-43.37,4.61,24.91,8.76,45.67,1.84,8.78,3.46,17.53t3,16.38q1.4,7.62,2.08,12.92a68.57,68.57,0,0,1,.69,7.15,25,25,0,0,1-1.61,9.46,26.63,26.63,0,0,1-3.46,6.23,16.62,16.62,0,0,1-4.62,4.61H383.63a31.33,31.33,0,0,1-8.31-7.38,33.29,33.29,0,0,1-5.53-9.23,32.06,32.06,0,0,1-2.31-12.46c0-2.14.54-7.38,1.62-15.68s2.53-18.52,4.38-30.68,4-25.61,6.46-40.37,5.07-29.82,7.84-45.21,5.61-30.44,8.53-45.21,5.69-28.21,8.31-40.36S409.69,1058.4,412,1050.1Z"/><path class="cls-9" d="M809.2,1311a99.33,99.33,0,0,1-8.3-21,137.08,137.08,0,0,1-4.15-22.61q-1.15-11.52-1.16-22.14c0-4.91.07-9.46.23-13.61s.39-7.76.69-10.84a91.44,91.44,0,0,1,1.39-9.69L755,1185.73l72-61.82-72.42-121.33H599.07l40.59,41.52v231.59A50.44,50.44,0,0,1,636,1294.6a104.15,104.15,0,0,1-8.3,16.61c-.63,1-1.31,2.06-2,3.09a183.78,183.78,0,0,1-7-17.16q-7.14-20.07-12.68-40.83-6.47-24-12.46-50.74l37.37-14.77-7.84-35.06-40.14,12.46q-7.38-27.21-13.84-50.29-2.76-9.69-5.53-19.83t-5.31-18.92q-2.54-8.76-4.38-15.91t-2.77-10.84a48.8,48.8,0,0,1-1.84-9,87.15,87.15,0,0,1-.47-9.46c0-3.69.15-7.3.47-10.84a71.32,71.32,0,0,1,1.38-9.46c.61-3.38,1.22-6.46,1.84-9.22l-102-1.85L469,1046q-12.93,65.5-23.07,118.1-4.16,22.6-8.54,44.52t-7.84,40.13q-3.46,18.24-5.54,30.45c-1.38,8.15-2.23,13.31-2.53,15.45a47.06,47.06,0,0,1-7.61,19.61q-6.24,9.46-10.39,13.15H503.57q.46,0-6.92-6.23t-20.3-23.3a35.46,35.46,0,0,1-.46-6.46A43.76,43.76,0,0,1,486,1262.54a100.37,100.37,0,0,1,22.15-20.07,171.08,171.08,0,0,1,32.75-16.15q2.77,15.24,5.08,28.61,1.83,11.53,3.45,22.83a131.09,131.09,0,0,1,1.62,16.84,25.41,25.41,0,0,1-2.77,11.54,114.94,114.94,0,0,1-6,10.61,90.2,90.2,0,0,1-8.3,10.61H719.93a71.42,71.42,0,0,1-10.61-11.07,59.43,59.43,0,0,1-7.38-11.77,33,33,0,0,1-3.23-14.53c0-5.22-.08-12-.23-20.3s-.39-16.45-.69-24.45q-.46-14.29-.46-29.52l34.6,26.75q0,7.4.46,14.77c.3,4.31.53,9,.69,14.07s.23,10.23.23,15.45A33.61,33.61,0,0,0,737,1302a55.69,55.69,0,0,0,8.77,12.92,59.33,59.33,0,0,0,12.46,12.46h65A48.32,48.32,0,0,1,809.2,1311ZM491.12,1209.26l18-93.19,22.6,66.89Zm206.21-54.44v-86.73H719l32.76,45.67Z"/><polygon class="cls-10" points="935.83 1057.94 958.9 1090.69 1002.72 1061.17 925.22 979.98 852.79 1057.94 852.79 1303.83 928.91 1385.95 996.73 1325.05 977.35 1260.46 934.45 1307.06 920.61 1289.07 920.61 1078.24 935.83 1057.94"/><path class="cls-11" d="M1143.43,1002.58H988l40.6,41.52v231.59a50.45,50.45,0,0,1-3.7,18.91,104.15,104.15,0,0,1-8.3,16.61,116,116,0,0,1-12,16.15h104.25a71.35,71.35,0,0,1-10.6-11.07,59,59,0,0,1-7.39-11.77,33,33,0,0,1-3.22-14.53c0-5.22-.09-12-.24-20.3s-.39-16.45-.69-24.45q-.47-14.29-.46-29.52l34.6,26.75q0,7.4.46,14.77c.3,4.31.53,9,.69,14.07s.23,10.23.23,15.45a33.61,33.61,0,0,0,3.69,15.22,55.69,55.69,0,0,0,8.77,12.92,59.33,59.33,0,0,0,12.46,12.46h65a48.32,48.32,0,0,1-14.07-16.38,99.33,99.33,0,0,1-8.3-21,137.08,137.08,0,0,1-4.15-22.61q-1.16-11.52-1.16-22.14c0-4.91.07-9.46.24-13.61s.38-7.76.68-10.84a91.44,91.44,0,0,1,1.39-9.69l-42.9-25.37,72-61.82Zm-57.21,152.24v-86.73h21.68l32.76,45.67Z"/><path class="cls-12" d="M1632,1004q-21.21,0-24-.46c0,.32,0,.62,0,.93H1427.13q8.31,12.45,16.84,23.29t17.76,24.22q.46,58.61,1.39,107,0,20.76.23,40.83t.46,36.91q.23,16.85.46,28.83t.23,15.68q0,7.86-5.77,16.15a107.75,107.75,0,0,1-12.22,14.76q-1.93,1.93-4,3.8a174.8,174.8,0,0,1-7.81-18.79q-7.15-20.07-12.69-40.83-6.46-24-12.45-50.74L1447,1190.8l-7.85-35.06L1399,1168.2q-7.39-27.21-13.84-50.29-2.78-9.69-5.54-19.83t-5.3-18.92q-2.55-8.76-4.39-15.91t-2.76-10.84a48,48,0,0,1-1.85-9,89.88,89.88,0,0,1-.46-9.46q0-5.54.46-10.84a71.32,71.32,0,0,1,1.38-9.46c.62-3.38,1.23-6.46,1.85-9.22l-102-1.85,18.45,43.37q-12.91,65.5-23.07,118.1-4.15,22.6-8.53,44.52t-7.85,40.13q-3.45,18.24-5.53,30.45c-1.39,8.15-2.23,13.31-2.54,15.45a46.93,46.93,0,0,1-7.61,19.61q-6.23,9.46-10.38,13.15h100.11q.45,0-6.92-6.23t-20.3-23.3a34.57,34.57,0,0,1-.46-6.46,43.71,43.71,0,0,1,10.15-28.83,100.33,100.33,0,0,1,22.14-20.07,171.18,171.18,0,0,1,32.76-16.15q2.76,15.24,5.07,28.61,1.85,11.53,3.46,22.83a133,133,0,0,1,1.62,16.84,25.54,25.54,0,0,1-2.77,11.54,119.77,119.77,0,0,1-6,10.61,91.27,91.27,0,0,1-8.3,10.61h207.13a123,123,0,0,1-20.76-22.38q-8.78-12.21-8.76-24.22v-106.1h47l12,12V1127.6h-59v-75.66h65.5l14.31,40.12v6.48c.43-.92.91-1.74,1.38-2.6l3.23,9.06-.07-14.16a37.71,37.71,0,0,1,7-7.53,51.06,51.06,0,0,1,14.53-8.3,59.81,59.81,0,0,1,14.76-3.46q7.15-.69,11.31-.69h4.61V1274.3a43.34,43.34,0,0,1-4.61,19.15,107.91,107.91,0,0,1-24.92,33.91h136.09a107.87,107.87,0,0,1-18.45-17.07,91.46,91.46,0,0,1-12.45-20.3,64.23,64.23,0,0,1-5.54-27.22V1070.86h6.92a66.63,66.63,0,0,1,13.84,1.84,99.92,99.92,0,0,1,16.61,5.31,78.67,78.67,0,0,1,15.68,8.76,38,38,0,0,1,11.08,11.77V1004Zm-324.77,205.3,18-93.19,22.61,66.89Z"/></g><g id="Super"><path class="cls-3" d="M517.59,938.52Q544,947,558.61,947H567q4.23,0,12.85-.41c0-.18.14-.27.41-.27q0-.54,8.07-1.92,7.51,0,22.3-7.24,18.18-9.17,24.47-27.49l-.41-.69c.37-2.91.73-4.37,1.1-4.37q1.1-13,1.91-16.14,0-42.94-55.66-64Q532.21,809,532.22,788.63V786q0-8.21,6.56-15.45,9-6.84,14.64-6.84l.82.27,10.26-1.36a59.56,59.56,0,0,1,17.91,2.46q27.36,11.21,41.72,38.16,2.86,7.92,4.37,7.93a10.85,10.85,0,0,0,3.28-1.78v-1.78Q627,781.39,627,780.84q-2.75-25.17-4.38-25.17c-1.09,0-5.11.36-12,1.1h-3q-27.78-5.88-39.12-5.89a7.09,7.09,0,0,1-1.5.41c0-.27-.37-.41-1.1-.41h-.27l-.82.41c0-.27-.09-.41-.27-.41h-1.92A106.38,106.38,0,0,0,537,755.67Q502.94,769.89,503,804V809q0,26.25,22.7,43.63A169.68,169.68,0,0,0,544,864a274.56,274.56,0,0,1,33.65,16q20.1,15,20.1,28.17,0,9.58-4.79,15.73-5.75,7.25-19.69,10.26v-.28l-8.07,1.1q-18.06,0-38.84-17.92-16.14-16.27-22.29-29.27-4.24-9.71-4.79-10h-1.1a4.24,4.24,0,0,0-2.87,1.5q4,16.83,8.76,51.29Q504.05,933.05,517.59,938.52Z"/><path class="cls-3" d="M660.56,757.86l.82-.41q10.93,2.32,10.94,8.75v47.18q0,24.76.27,67.43a123.72,123.72,0,0,0,1.92,13.13q4.23,22,16.14,34.74t31.73,17.23l.82-.41q0,.69,9.16,1.5l.68-.41a.36.36,0,0,0,.41.41h9l1.91-.41a.36.36,0,0,0,.41.41c2.19,0,6.79-.72,13.82-2.19q18.46-4.5,29.27-14.63,25.56-20.52,25.57-69.48V776.46q0-13,17-19.42,6.15-.54,6.15-3.56V752c0-.55-.73-.91-2.19-1.1H773.66a2.3,2.3,0,0,0-2.6,2.6v.69l1.1,1.5a68.8,68.8,0,0,1,13.13,4.38q11.07,7.65,11.07,15,.28,51.42.28,80.42v3.69q0,21.75-4,33-11.49,34.33-39.93,34.33-21.35,0-29.54-23.8-5.48-8.48-5.47-56.35v-79l.27-3.56q1.63-4.25,8.48-6.29,9.84,0,9.85-4c-.28-1.73-.64-2.6-1.1-2.6H656.86l-.68.41-3.28,1.1v2.87Q653.3,756.63,660.56,757.86Z"/><path class="cls-3" d="M862.34,947h77.54a2.32,2.32,0,0,0,2.46-1.5V943c0-1-1-1.51-2.87-1.51q-16.41-1.77-16.41-9.16v-66.2q18.2,4.8,25.16,4.79,64.69,0,64.69-63.86,0-31.05-27.35-46.51a93.39,93.39,0,0,0-21.2-7q0-2.19-99.15-2.19l-5.06-.27c-1.46.73-2.19,1.32-2.19,1.78v2.59a.61.61,0,0,0,.68.69q.55.69,12.86,3.28,6.15,1.79,6.15,11.35V930.59q0,7.67-9.84,9.85-9.85,0-9.85,3.69v.68C858.78,946.28,860.24,947,862.34,947Zm60.72-185.58q1.63,0,10.94.27,15,0,21.47,8.75a61,61,0,0,1,12.18,37.34v4.78q0,23.54-10.67,38.3-7.93,7.38-14.64,7.38h-2.87q-3,0-10.94-1.91-5.47-1.79-5.47-8.35Z"/><path class="cls-3" d="M1026.78,941.12c-4.92,0-7.39,1.23-7.39,3.69,0,1.47.87,2.19,2.6,2.19h140.87a3.72,3.72,0,0,0,2.46-1.09q3.42-26.4,10.26-60c-.55-.91-1-1.37-1.37-1.37H1172l-.82.27q-8.07,15.47-14.63,25.58a62.51,62.51,0,0,1-12.45,13.54q-10.93,11.76-31.72,11.76h-2.6a16.32,16.32,0,0,0-3.29.41L1093.25,935q-8.76-2.73-8.75-8.48V850q0-1.1,7-1.51a54.33,54.33,0,0,0,5.88.41q15.87,0,21.61,8.07a100.74,100.74,0,0,1,12.45,20.79c1.72,6.38,3.28,9.57,4.65,9.57q2.87,0,3.69-3.69V800.26c0-.64-1.23-1.14-3.69-1.51h-.28c-1,0-2.24,2.69-3.69,8.07q-5.61,14.5-11.76,22-7.12,12.45-30.64,12.44H1086q-1.5-.94-1.5-1.5V764c0-1.64,2.68-2.46,8.06-2.46a3.9,3.9,0,0,0,1.51.28l2.6-.28a22.63,22.63,0,0,0,3.28.28,4.13,4.13,0,0,0,1.78-.28l2.19.28h7l.68-.28v.28l8.76.41,7.79,2.59q18.47,8.76,29.27,31.73,4.92,13.28,5.74,13.54a5.28,5.28,0,0,0,3.69-1.36q0-7.66-4.78-40.62-.69-17.24-3.56-17.24H1020.9c-.73.37-1.09.73-1.09,1.1v2.6a2,2,0,0,0,1.77,1.36l8.07,1.92q9.43,2.05,9.44,8.75V932.78Q1039.09,938.8,1026.78,941.12Z"/><path class="cls-3" d="M1200,940.44q-9.43.55-9.44,4a2.29,2.29,0,0,0,2.6,2.6h87.67q1.5-.94,1.5-1.5v-1.37l-.41-1.91q-1.37-.83-13.81-2.88c-3.93-1.36-5.88-4.28-5.88-8.75v-3.28c0-1.73.13-2.74.41-3a24.5,24.5,0,0,1-.41-4V905.7q0-13,.41-23.8-.42-3-.41-20.1v-1.1H1264a27,27,0,0,1,13.27,7.66L1296.94,905q13.14,25.85,26,31.73Q1344,947,1364.23,947h10.26q7.65,0,25.16-1.09c.73-.36,1.1-.73,1.1-1.1V943l-.69-1.1q-10.12,0-22.7-4.78-13.41-4.65-24.07-23.39-27.9-41.58-27.9-47.87a86,86,0,0,0,17.23-12.85q13.55-13,13.54-46.78,0-19.41-16.14-36.92Q1318.56,751,1296.53,751H1192.32c-.92.64-1.37,1.14-1.37,1.51v1.77q0,1.65,7.93,3,13.27,2.88,13.27,10.26V931.28Q1212.15,938.25,1200,940.44ZM1262.62,762h4.65l1.91-.27a.24.24,0,0,0,.27.27l1.92-.27.68.27c.09,0,.59-.09,1.51-.27a3.21,3.21,0,0,1,1.09.27,3.1,3.1,0,0,1,1.37-.27l2.32.27.69-.27q3.83,0,12,4.38,17.51,15.18,17.51,39.11a78.15,78.15,0,0,1-2.19,19q-6.7,24.9-21.88,24.89h-5.88q-16-2.46-16-11.35Z"/></g></g></svg>